<svg width="283" height="42" viewBox="0 0 283 42" fill="none" xmlns="http://www.w3.org/2000/svg">
<path d="M68.386 27V25.272H70.078V16.128H68.386V14.4H74.776C75.532 14.4 76.192 14.532 76.756 14.796C77.32 15.048 77.758 15.414 78.07 15.894C78.394 16.362 78.556 16.92 78.556 17.568V17.748C78.556 18.324 78.448 18.798 78.232 19.17C78.016 19.542 77.752 19.83 77.44 20.034C77.14 20.238 76.852 20.382 76.576 20.466V20.754C76.852 20.826 77.146 20.97 77.458 21.186C77.782 21.39 78.052 21.678 78.268 22.05C78.496 22.422 78.61 22.908 78.61 23.508V23.688C78.61 24.384 78.448 24.978 78.124 25.47C77.8 25.962 77.35 26.34 76.774 26.604C76.21 26.868 75.556 27 74.812 27H68.386ZM72.04 25.236H74.578C75.226 25.236 75.736 25.08 76.108 24.768C76.48 24.456 76.666 24.024 76.666 23.472V23.31C76.666 22.758 76.48 22.326 76.108 22.014C75.748 21.702 75.238 21.546 74.578 21.546H72.04V25.236ZM72.04 19.764H74.578C75.19 19.764 75.682 19.614 76.054 19.314C76.426 19.002 76.612 18.582 76.612 18.054V17.874C76.612 17.346 76.426 16.932 76.054 16.632C75.694 16.32 75.202 16.164 74.578 16.164H72.04V19.764ZM84.2456 27.162C83.5736 27.162 82.9736 27.012 82.4456 26.712C81.9176 26.412 81.5036 25.986 81.2036 25.434C80.9036 24.882 80.7536 24.222 80.7536 23.454V18.126H82.6076V23.328C82.6076 24.096 82.7996 24.666 83.1836 25.038C83.5676 25.398 84.1016 25.578 84.7856 25.578C85.5416 25.578 86.1476 25.326 86.6036 24.822C87.0716 24.306 87.3056 23.568 87.3056 22.608V18.126H89.1596V27H87.3416V25.668H87.0536C86.8856 26.028 86.5856 26.37 86.1536 26.694C85.7216 27.006 85.0856 27.162 84.2456 27.162ZM95.5362 27.252C94.4082 27.252 93.4722 27 92.7282 26.496C91.9842 25.992 91.5282 25.23 91.3602 24.21L93.0882 23.796C93.1842 24.288 93.3462 24.678 93.5742 24.966C93.8022 25.254 94.0842 25.458 94.4202 25.578C94.7682 25.698 95.1402 25.758 95.5362 25.758C96.1242 25.758 96.5742 25.644 96.8862 25.416C97.2102 25.188 97.3722 24.894 97.3722 24.534C97.3722 24.174 97.2222 23.91 96.9222 23.742C96.6222 23.574 96.1782 23.436 95.5902 23.328L94.9782 23.22C94.3782 23.112 93.8322 22.956 93.3402 22.752C92.8482 22.548 92.4582 22.266 92.1702 21.906C91.8822 21.546 91.7382 21.084 91.7382 20.52C91.7382 19.68 92.0502 19.032 92.6742 18.576C93.2982 18.108 94.1262 17.874 95.1582 17.874C96.1542 17.874 96.9702 18.102 97.6062 18.558C98.2542 19.002 98.6742 19.608 98.8662 20.376L97.1382 20.862C97.0302 20.322 96.8022 19.944 96.4542 19.728C96.1062 19.5 95.6742 19.386 95.1582 19.386C94.6542 19.386 94.2582 19.482 93.9702 19.674C93.6822 19.854 93.5382 20.112 93.5382 20.448C93.5382 20.808 93.6762 21.072 93.9522 21.24C94.2402 21.408 94.6242 21.534 95.1042 21.618L95.7342 21.726C96.3702 21.834 96.9522 21.984 97.4802 22.176C98.0082 22.368 98.4222 22.644 98.7222 23.004C99.0342 23.364 99.1902 23.844 99.1902 24.444C99.1902 25.332 98.8602 26.022 98.2002 26.514C97.5402 27.006 96.6522 27.252 95.5362 27.252ZM101.357 27V18.126H103.211V27H101.357ZM102.293 16.92C101.933 16.92 101.627 16.806 101.375 16.578C101.135 16.338 101.015 16.032 101.015 15.66C101.015 15.288 101.135 14.988 101.375 14.76C101.627 14.52 101.933 14.4 102.293 14.4C102.665 14.4 102.971 14.52 103.211 14.76C103.451 14.988 103.571 15.288 103.571 15.66C103.571 16.032 103.451 16.338 103.211 16.578C102.971 16.806 102.665 16.92 102.293 16.92ZM105.963 27V18.126H107.781V19.458H108.069C108.237 19.098 108.537 18.762 108.969 18.45C109.401 18.138 110.043 17.982 110.895 17.982C111.567 17.982 112.161 18.132 112.677 18.432C113.205 18.732 113.619 19.158 113.919 19.71C114.219 20.25 114.369 20.904 114.369 21.672V27H112.515V21.816C112.515 21.048 112.323 20.484 111.939 20.124C111.555 19.752 111.027 19.566 110.355 19.566C109.587 19.566 108.969 19.818 108.501 20.322C108.045 20.826 107.817 21.558 107.817 22.518V27H105.963ZM121.105 27.252C120.205 27.252 119.419 27.066 118.747 26.694C118.075 26.31 117.547 25.776 117.163 25.092C116.791 24.396 116.605 23.592 116.605 22.68V22.464C116.605 21.54 116.791 20.736 117.163 20.052C117.535 19.356 118.051 18.822 118.711 18.45C119.383 18.066 120.157 17.874 121.033 17.874C121.885 17.874 122.629 18.066 123.265 18.45C123.913 18.822 124.417 19.344 124.777 20.016C125.137 20.688 125.317 21.474 125.317 22.374V23.076H118.495C118.519 23.856 118.777 24.48 119.269 24.948C119.773 25.404 120.397 25.632 121.141 25.632C121.837 25.632 122.359 25.476 122.707 25.164C123.067 24.852 123.343 24.492 123.535 24.084L125.065 24.876C124.897 25.212 124.651 25.566 124.327 25.938C124.015 26.31 123.601 26.622 123.085 26.874C122.569 27.126 121.909 27.252 121.105 27.252ZM118.513 21.654H123.427C123.379 20.982 123.139 20.46 122.707 20.088C122.275 19.704 121.711 19.512 121.015 19.512C120.319 19.512 119.749 19.704 119.305 20.088C118.873 20.46 118.609 20.982 118.513 21.654ZM131.185 27.252C130.057 27.252 129.121 27 128.377 26.496C127.633 25.992 127.177 25.23 127.009 24.21L128.737 23.796C128.833 24.288 128.995 24.678 129.223 24.966C129.451 25.254 129.733 25.458 130.069 25.578C130.417 25.698 130.789 25.758 131.185 25.758C131.773 25.758 132.223 25.644 132.535 25.416C132.859 25.188 133.021 24.894 133.021 24.534C133.021 24.174 132.871 23.91 132.571 23.742C132.271 23.574 131.827 23.436 131.239 23.328L130.627 23.22C130.027 23.112 129.481 22.956 128.989 22.752C128.497 22.548 128.107 22.266 127.819 21.906C127.531 21.546 127.387 21.084 127.387 20.52C127.387 19.68 127.699 19.032 128.323 18.576C128.947 18.108 129.775 17.874 130.807 17.874C131.803 17.874 132.619 18.102 133.255 18.558C133.903 19.002 134.323 19.608 134.515 20.376L132.787 20.862C132.679 20.322 132.451 19.944 132.103 19.728C131.755 19.5 131.323 19.386 130.807 19.386C130.303 19.386 129.907 19.482 129.619 19.674C129.331 19.854 129.187 20.112 129.187 20.448C129.187 20.808 129.325 21.072 129.601 21.24C129.889 21.408 130.273 21.534 130.753 21.618L131.383 21.726C132.019 21.834 132.601 21.984 133.129 22.176C133.657 22.368 134.071 22.644 134.371 23.004C134.683 23.364 134.839 23.844 134.839 24.444C134.839 25.332 134.509 26.022 133.849 26.514C133.189 27.006 132.301 27.252 131.185 27.252ZM140.642 27.252C139.514 27.252 138.578 27 137.834 26.496C137.09 25.992 136.634 25.23 136.466 24.21L138.194 23.796C138.29 24.288 138.452 24.678 138.68 24.966C138.908 25.254 139.19 25.458 139.526 25.578C139.874 25.698 140.246 25.758 140.642 25.758C141.23 25.758 141.68 25.644 141.992 25.416C142.316 25.188 142.478 24.894 142.478 24.534C142.478 24.174 142.328 23.91 142.028 23.742C141.728 23.574 141.284 23.436 140.696 23.328L140.084 23.22C139.484 23.112 138.938 22.956 138.446 22.752C137.954 22.548 137.564 22.266 137.276 21.906C136.988 21.546 136.844 21.084 136.844 20.52C136.844 19.68 137.156 19.032 137.78 18.576C138.404 18.108 139.232 17.874 140.264 17.874C141.26 17.874 142.076 18.102 142.712 18.558C143.36 19.002 143.78 19.608 143.972 20.376L142.244 20.862C142.136 20.322 141.908 19.944 141.56 19.728C141.212 19.5 140.78 19.386 140.264 19.386C139.76 19.386 139.364 19.482 139.076 19.674C138.788 19.854 138.644 20.112 138.644 20.448C138.644 20.808 138.782 21.072 139.058 21.24C139.346 21.408 139.73 21.534 140.21 21.618L140.84 21.726C141.476 21.834 142.058 21.984 142.586 22.176C143.114 22.368 143.528 22.644 143.828 23.004C144.14 23.364 144.296 23.844 144.296 24.444C144.296 25.332 143.966 26.022 143.306 26.514C142.646 27.006 141.758 27.252 140.642 27.252ZM149.832 27L153.432 14.4H156.852L160.434 27H158.436L157.608 24.03H152.676L151.848 27H149.832ZM153.162 22.23H157.122L155.286 15.606H154.998L153.162 22.23ZM162.195 27V18.126H164.013V19.458H164.301C164.469 19.098 164.769 18.762 165.201 18.45C165.633 18.138 166.275 17.982 167.127 17.982C167.799 17.982 168.393 18.132 168.909 18.432C169.437 18.732 169.851 19.158 170.151 19.71C170.451 20.25 170.601 20.904 170.601 21.672V27H168.747V21.816C168.747 21.048 168.555 20.484 168.171 20.124C167.787 19.752 167.259 19.566 166.587 19.566C165.819 19.566 165.201 19.818 164.733 20.322C164.277 20.826 164.049 21.558 164.049 22.518V27H162.195ZM176.023 27.252C175.387 27.252 174.817 27.144 174.313 26.928C173.821 26.712 173.425 26.394 173.125 25.974C172.837 25.554 172.693 25.044 172.693 24.444C172.693 23.832 172.837 23.328 173.125 22.932C173.425 22.524 173.827 22.218 174.331 22.014C174.847 21.81 175.429 21.708 176.077 21.708H178.777V21.132C178.777 20.616 178.621 20.202 178.309 19.89C177.997 19.578 177.517 19.422 176.869 19.422C176.233 19.422 175.747 19.572 175.411 19.872C175.075 20.172 174.853 20.562 174.745 21.042L173.017 20.484C173.161 20.004 173.389 19.572 173.701 19.188C174.025 18.792 174.451 18.474 174.979 18.234C175.507 17.994 176.143 17.874 176.887 17.874C178.039 17.874 178.945 18.168 179.605 18.756C180.265 19.344 180.595 20.178 180.595 21.258V24.912C180.595 25.272 180.763 25.452 181.099 25.452H181.855V27H180.469C180.049 27 179.707 26.892 179.443 26.676C179.179 26.46 179.047 26.166 179.047 25.794V25.74H178.777C178.681 25.92 178.537 26.13 178.345 26.37C178.153 26.61 177.871 26.82 177.499 27C177.127 27.168 176.635 27.252 176.023 27.252ZM176.293 25.722C177.037 25.722 177.637 25.512 178.093 25.092C178.549 24.66 178.777 24.072 178.777 23.328V23.148H176.185C175.693 23.148 175.297 23.256 174.997 23.472C174.697 23.676 174.547 23.982 174.547 24.39C174.547 24.798 174.703 25.122 175.015 25.362C175.327 25.602 175.753 25.722 176.293 25.722ZM183.658 27V14.4H185.512V27H183.658ZM189.29 30.6V28.98H194.24C194.576 28.98 194.744 28.8 194.744 28.44V25.704H194.456C194.348 25.944 194.18 26.178 193.952 26.406C193.736 26.622 193.442 26.802 193.07 26.946C192.698 27.09 192.23 27.162 191.666 27.162C190.994 27.162 190.394 27.012 189.866 26.712C189.338 26.412 188.924 25.986 188.624 25.434C188.324 24.882 188.174 24.228 188.174 23.472V18.126H190.028V23.328C190.028 24.096 190.22 24.666 190.604 25.038C190.988 25.398 191.522 25.578 192.206 25.578C192.962 25.578 193.568 25.326 194.024 24.822C194.492 24.318 194.726 23.586 194.726 22.626V18.126H196.58V28.818C196.58 29.358 196.418 29.79 196.094 30.114C195.782 30.438 195.35 30.6 194.798 30.6H189.29ZM202.956 27.252C201.828 27.252 200.892 27 200.148 26.496C199.404 25.992 198.948 25.23 198.78 24.21L200.508 23.796C200.604 24.288 200.766 24.678 200.994 24.966C201.222 25.254 201.504 25.458 201.84 25.578C202.188 25.698 202.56 25.758 202.956 25.758C203.544 25.758 203.994 25.644 204.306 25.416C204.63 25.188 204.792 24.894 204.792 24.534C204.792 24.174 204.642 23.91 204.342 23.742C204.042 23.574 203.598 23.436 203.01 23.328L202.398 23.22C201.798 23.112 201.252 22.956 200.76 22.752C200.268 22.548 199.878 22.266 199.59 21.906C199.302 21.546 199.158 21.084 199.158 20.52C199.158 19.68 199.47 19.032 200.094 18.576C200.718 18.108 201.546 17.874 202.578 17.874C203.574 17.874 204.39 18.102 205.026 18.558C205.674 19.002 206.094 19.608 206.286 20.376L204.558 20.862C204.45 20.322 204.222 19.944 203.874 19.728C203.526 19.5 203.094 19.386 202.578 19.386C202.074 19.386 201.678 19.482 201.39 19.674C201.102 19.854 200.958 20.112 200.958 20.448C200.958 20.808 201.096 21.072 201.372 21.24C201.66 21.408 202.044 21.534 202.524 21.618L203.154 21.726C203.79 21.834 204.372 21.984 204.9 22.176C205.428 22.368 205.842 22.644 206.142 23.004C206.454 23.364 206.61 23.844 206.61 24.444C206.61 25.332 206.28 26.022 205.62 26.514C204.96 27.006 204.072 27.252 202.956 27.252ZM211.914 27C211.374 27 210.942 26.838 210.618 26.514C210.306 26.19 210.15 25.758 210.15 25.218V19.692H207.702V18.126H210.15V15.192H212.004V18.126H214.65V19.692H212.004V24.894C212.004 25.254 212.172 25.434 212.508 25.434H214.362V27H211.914Z" fill="black"/>
</svg>
