<svg width="283" height="42" viewBox="0 0 283 42" fill="none" xmlns="http://www.w3.org/2000/svg">
<path d="M74.6058 27.252C73.6578 27.252 72.8178 27.084 72.0858 26.748C71.3538 26.412 70.7778 25.92 70.3578 25.272C69.9498 24.612 69.7458 23.814 69.7458 22.878V22.428H71.6718V22.878C71.6718 23.766 71.9358 24.432 72.4638 24.876C73.0038 25.32 73.7178 25.542 74.6058 25.542C75.5058 25.542 76.1838 25.356 76.6398 24.984C77.0958 24.6 77.3238 24.108 77.3238 23.508C77.3238 23.112 77.2158 22.788 76.9998 22.536C76.7838 22.284 76.4778 22.086 76.0818 21.942C75.6858 21.786 75.2118 21.642 74.6598 21.51L73.9938 21.348C73.1898 21.156 72.4878 20.922 71.8878 20.646C71.2998 20.358 70.8438 19.98 70.5198 19.512C70.1958 19.044 70.0338 18.444 70.0338 17.712C70.0338 16.968 70.2138 16.332 70.5738 15.804C70.9458 15.276 71.4558 14.868 72.1038 14.58C72.7518 14.292 73.5138 14.148 74.3898 14.148C75.2658 14.148 76.0458 14.298 76.7298 14.598C77.4258 14.898 77.9718 15.342 78.3678 15.93C78.7638 16.518 78.9618 17.256 78.9618 18.144V18.792H77.0358V18.144C77.0358 17.604 76.9218 17.166 76.6938 16.83C76.4778 16.494 76.1718 16.248 75.7758 16.092C75.3798 15.936 74.9178 15.858 74.3898 15.858C73.6218 15.858 73.0218 16.02 72.5898 16.344C72.1698 16.656 71.9598 17.094 71.9598 17.658C71.9598 18.042 72.0498 18.36 72.2298 18.612C72.4218 18.852 72.6978 19.05 73.0578 19.206C73.4178 19.362 73.8678 19.5 74.4078 19.62L75.0738 19.782C75.8898 19.962 76.6098 20.196 77.2338 20.484C77.8578 20.76 78.3498 21.138 78.7098 21.618C79.0698 22.098 79.2498 22.716 79.2498 23.472C79.2498 24.228 79.0578 24.888 78.6738 25.452C78.3018 26.016 77.7678 26.46 77.0718 26.784C76.3758 27.096 75.5538 27.252 74.6058 27.252ZM82.3706 30.6V28.98H87.3206C87.6566 28.98 87.8246 28.8 87.8246 28.44V25.704H87.5366C87.4286 25.944 87.2606 26.178 87.0326 26.406C86.8166 26.622 86.5226 26.802 86.1506 26.946C85.7786 27.09 85.3106 27.162 84.7466 27.162C84.0746 27.162 83.4746 27.012 82.9466 26.712C82.4186 26.412 82.0046 25.986 81.7046 25.434C81.4046 24.882 81.2546 24.228 81.2546 23.472V18.126H83.1086V23.328C83.1086 24.096 83.3006 24.666 83.6846 25.038C84.0686 25.398 84.6026 25.578 85.2866 25.578C86.0426 25.578 86.6486 25.326 87.1046 24.822C87.5726 24.318 87.8066 23.586 87.8066 22.626V18.126H89.6606V28.818C89.6606 29.358 89.4986 29.79 89.1746 30.114C88.8626 30.438 88.4306 30.6 87.8786 30.6H82.3706ZM96.0372 27.252C94.9092 27.252 93.9732 27 93.2292 26.496C92.4852 25.992 92.0292 25.23 91.8612 24.21L93.5892 23.796C93.6852 24.288 93.8472 24.678 94.0752 24.966C94.3032 25.254 94.5852 25.458 94.9212 25.578C95.2692 25.698 95.6412 25.758 96.0372 25.758C96.6252 25.758 97.0752 25.644 97.3872 25.416C97.7112 25.188 97.8732 24.894 97.8732 24.534C97.8732 24.174 97.7232 23.91 97.4232 23.742C97.1232 23.574 96.6792 23.436 96.0912 23.328L95.4792 23.22C94.8792 23.112 94.3332 22.956 93.8412 22.752C93.3492 22.548 92.9592 22.266 92.6712 21.906C92.3832 21.546 92.2392 21.084 92.2392 20.52C92.2392 19.68 92.5512 19.032 93.1752 18.576C93.7992 18.108 94.6272 17.874 95.6592 17.874C96.6552 17.874 97.4712 18.102 98.1072 18.558C98.7552 19.002 99.1752 19.608 99.3672 20.376L97.6392 20.862C97.5312 20.322 97.3032 19.944 96.9552 19.728C96.6072 19.5 96.1752 19.386 95.6592 19.386C95.1552 19.386 94.7592 19.482 94.4712 19.674C94.1832 19.854 94.0392 20.112 94.0392 20.448C94.0392 20.808 94.1772 21.072 94.4532 21.24C94.7412 21.408 95.1252 21.534 95.6052 21.618L96.2352 21.726C96.8712 21.834 97.4532 21.984 97.9812 22.176C98.5092 22.368 98.9232 22.644 99.2232 23.004C99.5352 23.364 99.6912 23.844 99.6912 24.444C99.6912 25.332 99.3612 26.022 98.7012 26.514C98.0412 27.006 97.1532 27.252 96.0372 27.252ZM104.995 27C104.455 27 104.023 26.838 103.699 26.514C103.387 26.19 103.231 25.758 103.231 25.218V19.692H100.783V18.126H103.231V15.192H105.085V18.126H107.731V19.692H105.085V24.894C105.085 25.254 105.253 25.434 105.589 25.434H107.443V27H104.995ZM113.661 27.252C112.761 27.252 111.975 27.066 111.303 26.694C110.631 26.31 110.103 25.776 109.719 25.092C109.347 24.396 109.161 23.592 109.161 22.68V22.464C109.161 21.54 109.347 20.736 109.719 20.052C110.091 19.356 110.607 18.822 111.267 18.45C111.939 18.066 112.713 17.874 113.589 17.874C114.441 17.874 115.185 18.066 115.821 18.45C116.469 18.822 116.973 19.344 117.333 20.016C117.693 20.688 117.873 21.474 117.873 22.374V23.076H111.051C111.075 23.856 111.333 24.48 111.825 24.948C112.329 25.404 112.953 25.632 113.697 25.632C114.393 25.632 114.915 25.476 115.263 25.164C115.623 24.852 115.899 24.492 116.091 24.084L117.621 24.876C117.453 25.212 117.207 25.566 116.883 25.938C116.571 26.31 116.157 26.622 115.641 26.874C115.125 27.126 114.465 27.252 113.661 27.252ZM111.069 21.654H115.983C115.935 20.982 115.695 20.46 115.263 20.088C114.831 19.704 114.267 19.512 113.571 19.512C112.875 19.512 112.305 19.704 111.861 20.088C111.429 20.46 111.165 20.982 111.069 21.654ZM120.104 27V18.126H121.922V19.17H122.21C122.378 18.858 122.648 18.582 123.02 18.342C123.392 18.102 123.896 17.982 124.532 17.982C125.192 17.982 125.72 18.12 126.116 18.396C126.524 18.66 126.83 19.002 127.034 19.422H127.322C127.526 19.014 127.82 18.672 128.204 18.396C128.6 18.12 129.158 17.982 129.878 17.982C130.454 17.982 130.964 18.102 131.408 18.342C131.852 18.57 132.206 18.918 132.47 19.386C132.734 19.842 132.866 20.412 132.866 21.096V27H131.012V21.24C131.012 20.7 130.862 20.286 130.562 19.998C130.274 19.698 129.86 19.548 129.32 19.548C128.744 19.548 128.282 19.734 127.934 20.106C127.586 20.478 127.412 21.012 127.412 21.708V27H125.558V21.24C125.558 20.7 125.408 20.286 125.108 19.998C124.82 19.698 124.406 19.548 123.866 19.548C123.29 19.548 122.828 19.734 122.48 20.106C122.132 20.478 121.958 21.012 121.958 21.708V27H120.104ZM139.174 27.252C138.046 27.252 137.11 27 136.366 26.496C135.622 25.992 135.166 25.23 134.998 24.21L136.726 23.796C136.822 24.288 136.984 24.678 137.212 24.966C137.44 25.254 137.722 25.458 138.058 25.578C138.406 25.698 138.778 25.758 139.174 25.758C139.762 25.758 140.212 25.644 140.524 25.416C140.848 25.188 141.01 24.894 141.01 24.534C141.01 24.174 140.86 23.91 140.56 23.742C140.26 23.574 139.816 23.436 139.228 23.328L138.616 23.22C138.016 23.112 137.47 22.956 136.978 22.752C136.486 22.548 136.096 22.266 135.808 21.906C135.52 21.546 135.376 21.084 135.376 20.52C135.376 19.68 135.688 19.032 136.312 18.576C136.936 18.108 137.764 17.874 138.796 17.874C139.792 17.874 140.608 18.102 141.244 18.558C141.892 19.002 142.312 19.608 142.504 20.376L140.776 20.862C140.668 20.322 140.44 19.944 140.092 19.728C139.744 19.5 139.312 19.386 138.796 19.386C138.292 19.386 137.896 19.482 137.608 19.674C137.32 19.854 137.176 20.112 137.176 20.448C137.176 20.808 137.314 21.072 137.59 21.24C137.878 21.408 138.262 21.534 138.742 21.618L139.372 21.726C140.008 21.834 140.59 21.984 141.118 22.176C141.646 22.368 142.06 22.644 142.36 23.004C142.672 23.364 142.828 23.844 142.828 24.444C142.828 25.332 142.498 26.022 141.838 26.514C141.178 27.006 140.29 27.252 139.174 27.252ZM148.364 27L151.964 14.4H155.384L158.966 27H156.968L156.14 24.03H151.208L150.38 27H148.364ZM151.694 22.23H155.654L153.818 15.606H153.53L151.694 22.23ZM160.727 27V18.126H162.545V19.458H162.833C163.001 19.098 163.301 18.762 163.733 18.45C164.165 18.138 164.807 17.982 165.659 17.982C166.331 17.982 166.925 18.132 167.441 18.432C167.969 18.732 168.383 19.158 168.683 19.71C168.983 20.25 169.133 20.904 169.133 21.672V27H167.279V21.816C167.279 21.048 167.087 20.484 166.703 20.124C166.319 19.752 165.791 19.566 165.119 19.566C164.351 19.566 163.733 19.818 163.265 20.322C162.809 20.826 162.581 21.558 162.581 22.518V27H160.727ZM174.556 27.252C173.92 27.252 173.35 27.144 172.846 26.928C172.354 26.712 171.958 26.394 171.658 25.974C171.37 25.554 171.226 25.044 171.226 24.444C171.226 23.832 171.37 23.328 171.658 22.932C171.958 22.524 172.36 22.218 172.864 22.014C173.38 21.81 173.962 21.708 174.61 21.708H177.31V21.132C177.31 20.616 177.154 20.202 176.842 19.89C176.53 19.578 176.05 19.422 175.402 19.422C174.766 19.422 174.28 19.572 173.944 19.872C173.608 20.172 173.386 20.562 173.278 21.042L171.55 20.484C171.694 20.004 171.922 19.572 172.234 19.188C172.558 18.792 172.984 18.474 173.512 18.234C174.04 17.994 174.676 17.874 175.42 17.874C176.572 17.874 177.478 18.168 178.138 18.756C178.798 19.344 179.128 20.178 179.128 21.258V24.912C179.128 25.272 179.296 25.452 179.632 25.452H180.388V27H179.002C178.582 27 178.24 26.892 177.976 26.676C177.712 26.46 177.58 26.166 177.58 25.794V25.74H177.31C177.214 25.92 177.07 26.13 176.878 26.37C176.686 26.61 176.404 26.82 176.032 27C175.66 27.168 175.168 27.252 174.556 27.252ZM174.826 25.722C175.57 25.722 176.17 25.512 176.626 25.092C177.082 24.66 177.31 24.072 177.31 23.328V23.148H174.718C174.226 23.148 173.83 23.256 173.53 23.472C173.23 23.676 173.08 23.982 173.08 24.39C173.08 24.798 173.236 25.122 173.548 25.362C173.86 25.602 174.286 25.722 174.826 25.722ZM182.19 27V14.4H184.044V27H182.19ZM187.822 30.6V28.98H192.772C193.108 28.98 193.276 28.8 193.276 28.44V25.704H192.988C192.88 25.944 192.712 26.178 192.484 26.406C192.268 26.622 191.974 26.802 191.602 26.946C191.23 27.09 190.762 27.162 190.198 27.162C189.526 27.162 188.926 27.012 188.398 26.712C187.87 26.412 187.456 25.986 187.156 25.434C186.856 24.882 186.706 24.228 186.706 23.472V18.126H188.56V23.328C188.56 24.096 188.752 24.666 189.136 25.038C189.52 25.398 190.054 25.578 190.738 25.578C191.494 25.578 192.1 25.326 192.556 24.822C193.024 24.318 193.258 23.586 193.258 22.626V18.126H195.112V28.818C195.112 29.358 194.95 29.79 194.626 30.114C194.314 30.438 193.882 30.6 193.33 30.6H187.822ZM201.488 27.252C200.36 27.252 199.424 27 198.68 26.496C197.936 25.992 197.48 25.23 197.312 24.21L199.04 23.796C199.136 24.288 199.298 24.678 199.526 24.966C199.754 25.254 200.036 25.458 200.372 25.578C200.72 25.698 201.092 25.758 201.488 25.758C202.076 25.758 202.526 25.644 202.838 25.416C203.162 25.188 203.324 24.894 203.324 24.534C203.324 24.174 203.174 23.91 202.874 23.742C202.574 23.574 202.13 23.436 201.542 23.328L200.93 23.22C200.33 23.112 199.784 22.956 199.292 22.752C198.8 22.548 198.41 22.266 198.122 21.906C197.834 21.546 197.69 21.084 197.69 20.52C197.69 19.68 198.002 19.032 198.626 18.576C199.25 18.108 200.078 17.874 201.11 17.874C202.106 17.874 202.922 18.102 203.558 18.558C204.206 19.002 204.626 19.608 204.818 20.376L203.09 20.862C202.982 20.322 202.754 19.944 202.406 19.728C202.058 19.5 201.626 19.386 201.11 19.386C200.606 19.386 200.21 19.482 199.922 19.674C199.634 19.854 199.49 20.112 199.49 20.448C199.49 20.808 199.628 21.072 199.904 21.24C200.192 21.408 200.576 21.534 201.056 21.618L201.686 21.726C202.322 21.834 202.904 21.984 203.432 22.176C203.96 22.368 204.374 22.644 204.674 23.004C204.986 23.364 205.142 23.844 205.142 24.444C205.142 25.332 204.812 26.022 204.152 26.514C203.492 27.006 202.604 27.252 201.488 27.252ZM210.446 27C209.906 27 209.474 26.838 209.15 26.514C208.838 26.19 208.682 25.758 208.682 25.218V19.692H206.234V18.126H208.682V15.192H210.536V18.126H213.182V19.692H210.536V24.894C210.536 25.254 210.704 25.434 211.04 25.434H212.894V27H210.446Z" fill="black"/>
</svg>
