<svg width="283" height="42" viewBox="0 0 283 42" fill="none" xmlns="http://www.w3.org/2000/svg">
<path d="M52.2376 27.252C51.2896 27.252 50.4496 27.084 49.7176 26.748C48.9856 26.412 48.4096 25.92 47.9896 25.272C47.5816 24.612 47.3776 23.814 47.3776 22.878V22.428H49.3036V22.878C49.3036 23.766 49.5676 24.432 50.0956 24.876C50.6356 25.32 51.3496 25.542 52.2376 25.542C53.1376 25.542 53.8156 25.356 54.2716 24.984C54.7276 24.6 54.9556 24.108 54.9556 23.508C54.9556 23.112 54.8476 22.788 54.6316 22.536C54.4156 22.284 54.1096 22.086 53.7136 21.942C53.3176 21.786 52.8436 21.642 52.2916 21.51L51.6256 21.348C50.8216 21.156 50.1196 20.922 49.5196 20.646C48.9316 20.358 48.4756 19.98 48.1516 19.512C47.8276 19.044 47.6656 18.444 47.6656 17.712C47.6656 16.968 47.8456 16.332 48.2056 15.804C48.5776 15.276 49.0876 14.868 49.7356 14.58C50.3836 14.292 51.1456 14.148 52.0216 14.148C52.8976 14.148 53.6776 14.298 54.3616 14.598C55.0576 14.898 55.6036 15.342 55.9996 15.93C56.3956 16.518 56.5936 17.256 56.5936 18.144V18.792H54.6676V18.144C54.6676 17.604 54.5536 17.166 54.3256 16.83C54.1096 16.494 53.8036 16.248 53.4076 16.092C53.0116 15.936 52.5496 15.858 52.0216 15.858C51.2536 15.858 50.6536 16.02 50.2216 16.344C49.8016 16.656 49.5916 17.094 49.5916 17.658C49.5916 18.042 49.6816 18.36 49.8616 18.612C50.0536 18.852 50.3296 19.05 50.6896 19.206C51.0496 19.362 51.4996 19.5 52.0396 19.62L52.7056 19.782C53.5216 19.962 54.2416 20.196 54.8656 20.484C55.4896 20.76 55.9816 21.138 56.3416 21.618C56.7016 22.098 56.8816 22.716 56.8816 23.472C56.8816 24.228 56.6896 24.888 56.3056 25.452C55.9336 26.016 55.3996 26.46 54.7036 26.784C54.0076 27.096 53.1856 27.252 52.2376 27.252ZM63.1344 27.252C62.2464 27.252 61.4544 27.072 60.7584 26.712C60.0744 26.34 59.5344 25.812 59.1384 25.128C58.7424 24.444 58.5444 23.634 58.5444 22.698V22.428C58.5444 21.492 58.7424 20.688 59.1384 20.016C59.5344 19.332 60.0744 18.804 60.7584 18.432C61.4544 18.06 62.2464 17.874 63.1344 17.874C64.0224 17.874 64.8144 18.06 65.5104 18.432C66.2064 18.804 66.7524 19.332 67.1484 20.016C67.5444 20.688 67.7424 21.492 67.7424 22.428V22.698C67.7424 23.634 67.5444 24.444 67.1484 25.128C66.7524 25.812 66.2064 26.34 65.5104 26.712C64.8144 27.072 64.0224 27.252 63.1344 27.252ZM63.1344 25.596C63.9504 25.596 64.6104 25.338 65.1144 24.822C65.6304 24.294 65.8884 23.568 65.8884 22.644V22.482C65.8884 21.558 65.6364 20.838 65.1324 20.322C64.6284 19.794 63.9624 19.53 63.1344 19.53C62.3304 19.53 61.6704 19.794 61.1544 20.322C60.6504 20.838 60.3984 21.558 60.3984 22.482V22.644C60.3984 23.568 60.6504 24.294 61.1544 24.822C61.6704 25.338 62.3304 25.596 63.1344 25.596ZM71.3186 27V19.692H68.8346V18.126H71.3186V16.182C71.3186 15.642 71.4806 15.21 71.8046 14.886C72.1286 14.562 72.5606 14.4 73.1006 14.4H75.3866V15.966H73.6946C73.3466 15.966 73.1726 16.146 73.1726 16.506V18.126H75.7286V19.692H73.1726V27H71.3186ZM80.7283 27C80.1883 27 79.7563 26.838 79.4323 26.514C79.1203 26.19 78.9643 25.758 78.9643 25.218V19.692H76.5163V18.126H78.9643V15.192H80.8183V18.126H83.4643V19.692H80.8183V24.894C80.8183 25.254 80.9863 25.434 81.3223 25.434H83.1763V27H80.7283ZM86.6144 27L85.1024 18.126H86.9564L88.0724 25.758H88.3604L89.9084 18.126H92.9144L94.4444 25.758H94.7324L95.8484 18.126H97.7024L96.1904 27H93.0764L91.5464 19.386H91.2584L89.7284 27H86.6144ZM102.582 27.252C101.946 27.252 101.376 27.144 100.872 26.928C100.38 26.712 99.984 26.394 99.684 25.974C99.396 25.554 99.252 25.044 99.252 24.444C99.252 23.832 99.396 23.328 99.684 22.932C99.984 22.524 100.386 22.218 100.89 22.014C101.406 21.81 101.988 21.708 102.636 21.708H105.336V21.132C105.336 20.616 105.18 20.202 104.868 19.89C104.556 19.578 104.076 19.422 103.428 19.422C102.792 19.422 102.306 19.572 101.97 19.872C101.634 20.172 101.412 20.562 101.304 21.042L99.576 20.484C99.72 20.004 99.948 19.572 100.26 19.188C100.584 18.792 101.01 18.474 101.538 18.234C102.066 17.994 102.702 17.874 103.446 17.874C104.598 17.874 105.504 18.168 106.164 18.756C106.824 19.344 107.154 20.178 107.154 21.258V24.912C107.154 25.272 107.322 25.452 107.658 25.452H108.414V27H107.028C106.608 27 106.266 26.892 106.002 26.676C105.738 26.46 105.606 26.166 105.606 25.794V25.74H105.336C105.24 25.92 105.096 26.13 104.904 26.37C104.712 26.61 104.43 26.82 104.058 27C103.686 27.168 103.194 27.252 102.582 27.252ZM102.852 25.722C103.596 25.722 104.196 25.512 104.652 25.092C105.108 24.66 105.336 24.072 105.336 23.328V23.148H102.744C102.252 23.148 101.856 23.256 101.556 23.472C101.256 23.676 101.106 23.982 101.106 24.39C101.106 24.798 101.262 25.122 101.574 25.362C101.886 25.602 102.312 25.722 102.852 25.722ZM110.217 27V18.126H112.035V19.17H112.323C112.467 18.798 112.695 18.528 113.007 18.36C113.331 18.18 113.727 18.09 114.195 18.09H115.257V19.764H114.123C113.523 19.764 113.031 19.932 112.647 20.268C112.263 20.592 112.071 21.096 112.071 21.78V27H110.217ZM120.929 27.252C120.029 27.252 119.243 27.066 118.571 26.694C117.899 26.31 117.371 25.776 116.987 25.092C116.615 24.396 116.429 23.592 116.429 22.68V22.464C116.429 21.54 116.615 20.736 116.987 20.052C117.359 19.356 117.875 18.822 118.535 18.45C119.207 18.066 119.981 17.874 120.857 17.874C121.709 17.874 122.453 18.066 123.089 18.45C123.737 18.822 124.241 19.344 124.601 20.016C124.961 20.688 125.141 21.474 125.141 22.374V23.076H118.319C118.343 23.856 118.601 24.48 119.093 24.948C119.597 25.404 120.221 25.632 120.965 25.632C121.661 25.632 122.183 25.476 122.531 25.164C122.891 24.852 123.167 24.492 123.359 24.084L124.889 24.876C124.721 25.212 124.475 25.566 124.151 25.938C123.839 26.31 123.425 26.622 122.909 26.874C122.393 27.126 121.733 27.252 120.929 27.252ZM118.337 21.654H123.251C123.203 20.982 122.963 20.46 122.531 20.088C122.099 19.704 121.535 19.512 120.839 19.512C120.143 19.512 119.573 19.704 119.129 20.088C118.697 20.46 118.433 20.982 118.337 21.654ZM131.439 27V25.272H133.131V16.128H131.439V14.4H136.479C138.159 14.4 139.443 14.826 140.331 15.678C141.231 16.53 141.681 17.814 141.681 19.53V21.888C141.681 23.604 141.231 24.888 140.331 25.74C139.443 26.58 138.159 27 136.479 27H131.439ZM135.093 25.236H136.497C137.589 25.236 138.399 24.96 138.927 24.408C139.455 23.856 139.719 23.034 139.719 21.942V19.458C139.719 18.354 139.455 17.532 138.927 16.992C138.399 16.452 137.589 16.182 136.497 16.182H135.093V25.236ZM147.999 27.252C147.099 27.252 146.313 27.066 145.641 26.694C144.969 26.31 144.441 25.776 144.057 25.092C143.685 24.396 143.499 23.592 143.499 22.68V22.464C143.499 21.54 143.685 20.736 144.057 20.052C144.429 19.356 144.945 18.822 145.605 18.45C146.277 18.066 147.051 17.874 147.927 17.874C148.779 17.874 149.523 18.066 150.159 18.45C150.807 18.822 151.311 19.344 151.671 20.016C152.031 20.688 152.211 21.474 152.211 22.374V23.076H145.389C145.413 23.856 145.671 24.48 146.163 24.948C146.667 25.404 147.291 25.632 148.035 25.632C148.731 25.632 149.253 25.476 149.601 25.164C149.961 24.852 150.237 24.492 150.429 24.084L151.959 24.876C151.791 25.212 151.545 25.566 151.221 25.938C150.909 26.31 150.495 26.622 149.979 26.874C149.463 27.126 148.803 27.252 147.999 27.252ZM145.407 21.654H150.321C150.273 20.982 150.033 20.46 149.601 20.088C149.169 19.704 148.605 19.512 147.909 19.512C147.213 19.512 146.643 19.704 146.199 20.088C145.767 20.46 145.503 20.982 145.407 21.654ZM154.443 30.6V18.126H156.261V19.404H156.549C156.777 19.008 157.119 18.654 157.575 18.342C158.043 18.03 158.709 17.874 159.573 17.874C160.317 17.874 160.995 18.054 161.607 18.414C162.231 18.774 162.729 19.296 163.101 19.98C163.485 20.652 163.677 21.468 163.677 22.428V22.698C163.677 23.658 163.491 24.48 163.119 25.164C162.747 25.836 162.249 26.352 161.625 26.712C161.001 27.072 160.317 27.252 159.573 27.252C158.997 27.252 158.511 27.18 158.115 27.036C157.719 26.892 157.401 26.712 157.161 26.496C156.921 26.268 156.729 26.034 156.585 25.794H156.297V30.6H154.443ZM159.033 25.632C159.849 25.632 160.515 25.374 161.031 24.858C161.547 24.342 161.805 23.604 161.805 22.644V22.482C161.805 21.534 161.541 20.802 161.013 20.286C160.497 19.77 159.837 19.512 159.033 19.512C158.241 19.512 157.581 19.77 157.053 20.286C156.537 20.802 156.279 21.534 156.279 22.482V22.644C156.279 23.604 156.537 24.342 157.053 24.858C157.581 25.374 158.241 25.632 159.033 25.632ZM165.974 27V14.4H167.828V27H165.974ZM174.738 27.252C173.85 27.252 173.058 27.072 172.362 26.712C171.678 26.34 171.138 25.812 170.742 25.128C170.346 24.444 170.148 23.634 170.148 22.698V22.428C170.148 21.492 170.346 20.688 170.742 20.016C171.138 19.332 171.678 18.804 172.362 18.432C173.058 18.06 173.85 17.874 174.738 17.874C175.626 17.874 176.418 18.06 177.114 18.432C177.81 18.804 178.356 19.332 178.752 20.016C179.148 20.688 179.346 21.492 179.346 22.428V22.698C179.346 23.634 179.148 24.444 178.752 25.128C178.356 25.812 177.81 26.34 177.114 26.712C176.418 27.072 175.626 27.252 174.738 27.252ZM174.738 25.596C175.554 25.596 176.214 25.338 176.718 24.822C177.234 24.294 177.492 23.568 177.492 22.644V22.482C177.492 21.558 177.24 20.838 176.736 20.322C176.232 19.794 175.566 19.53 174.738 19.53C173.934 19.53 173.274 19.794 172.758 20.322C172.254 20.838 172.002 21.558 172.002 22.482V22.644C172.002 23.568 172.254 24.294 172.758 24.822C173.274 25.338 173.934 25.596 174.738 25.596ZM182.68 30.6V28.98H187.63C187.966 28.98 188.134 28.8 188.134 28.44V25.704H187.846C187.738 25.944 187.57 26.178 187.342 26.406C187.126 26.622 186.832 26.802 186.46 26.946C186.088 27.09 185.62 27.162 185.056 27.162C184.384 27.162 183.784 27.012 183.256 26.712C182.728 26.412 182.314 25.986 182.014 25.434C181.714 24.882 181.564 24.228 181.564 23.472V18.126H183.418V23.328C183.418 24.096 183.61 24.666 183.994 25.038C184.378 25.398 184.912 25.578 185.596 25.578C186.352 25.578 186.958 25.326 187.414 24.822C187.882 24.318 188.116 23.586 188.116 22.626V18.126H189.97V28.818C189.97 29.358 189.808 29.79 189.484 30.114C189.172 30.438 188.74 30.6 188.188 30.6H182.68ZM192.711 27V18.126H194.529V19.17H194.817C194.985 18.858 195.255 18.582 195.627 18.342C195.999 18.102 196.503 17.982 197.139 17.982C197.799 17.982 198.327 18.12 198.723 18.396C199.131 18.66 199.437 19.002 199.641 19.422H199.929C200.133 19.014 200.427 18.672 200.811 18.396C201.207 18.12 201.765 17.982 202.485 17.982C203.061 17.982 203.571 18.102 204.015 18.342C204.459 18.57 204.813 18.918 205.077 19.386C205.341 19.842 205.473 20.412 205.473 21.096V27H203.619V21.24C203.619 20.7 203.469 20.286 203.169 19.998C202.881 19.698 202.467 19.548 201.927 19.548C201.351 19.548 200.889 19.734 200.541 20.106C200.193 20.478 200.019 21.012 200.019 21.708V27H198.165V21.24C198.165 20.7 198.015 20.286 197.715 19.998C197.427 19.698 197.013 19.548 196.473 19.548C195.897 19.548 195.435 19.734 195.087 20.106C194.739 20.478 194.565 21.012 194.565 21.708V27H192.711ZM212.212 27.252C211.312 27.252 210.526 27.066 209.854 26.694C209.182 26.31 208.654 25.776 208.27 25.092C207.898 24.396 207.712 23.592 207.712 22.68V22.464C207.712 21.54 207.898 20.736 208.27 20.052C208.642 19.356 209.158 18.822 209.818 18.45C210.49 18.066 211.264 17.874 212.14 17.874C212.992 17.874 213.736 18.066 214.372 18.45C215.02 18.822 215.524 19.344 215.884 20.016C216.244 20.688 216.424 21.474 216.424 22.374V23.076H209.602C209.626 23.856 209.884 24.48 210.376 24.948C210.88 25.404 211.504 25.632 212.248 25.632C212.944 25.632 213.466 25.476 213.814 25.164C214.174 24.852 214.45 24.492 214.642 24.084L216.172 24.876C216.004 25.212 215.758 25.566 215.434 25.938C215.122 26.31 214.708 26.622 214.192 26.874C213.676 27.126 213.016 27.252 212.212 27.252ZM209.62 21.654H214.534C214.486 20.982 214.246 20.46 213.814 20.088C213.382 19.704 212.818 19.512 212.122 19.512C211.426 19.512 210.856 19.704 210.412 20.088C209.98 20.46 209.716 20.982 209.62 21.654ZM218.656 27V18.126H220.474V19.458H220.762C220.93 19.098 221.23 18.762 221.662 18.45C222.094 18.138 222.736 17.982 223.588 17.982C224.26 17.982 224.854 18.132 225.37 18.432C225.898 18.732 226.312 19.158 226.612 19.71C226.912 20.25 227.062 20.904 227.062 21.672V27H225.208V21.816C225.208 21.048 225.016 20.484 224.632 20.124C224.248 19.752 223.72 19.566 223.048 19.566C222.28 19.566 221.662 19.818 221.194 20.322C220.738 20.826 220.51 21.558 220.51 22.518V27H218.656ZM232.814 27C232.274 27 231.842 26.838 231.518 26.514C231.206 26.19 231.05 25.758 231.05 25.218V19.692H228.602V18.126H231.05V15.192H232.904V18.126H235.55V19.692H232.904V24.894C232.904 25.254 233.072 25.434 233.408 25.434H235.262V27H232.814Z" fill="black"/>
</svg>
