<svg width="124" height="198" viewBox="0 0 124 198" fill="none" xmlns="http://www.w3.org/2000/svg">
<circle cx="62" cy="115" r="20" fill="url(#paint0_linear_49_2)"/>
<path d="M61.16 121V111L58.9 111.8L58.42 110.3L61.74 108.54H63.42V121H61.16Z" fill="white"/>
<line x1="62.5" x2="62.5" y2="95" stroke="url(#paint1_linear_49_2)"/>
<path d="M6.36846 190H1.09574L9.12983 166.727H15.4707L23.4935 190H18.2207L12.3912 172.045H12.2094L6.36846 190ZM6.03892 180.852H18.4935V184.693H6.03892V180.852ZM29.4446 179.909V190H24.6037V172.545H29.2173V175.625H29.4219C29.8082 174.61 30.456 173.807 31.3651 173.216C32.2741 172.617 33.3764 172.318 34.6719 172.318C35.884 172.318 36.9408 172.583 37.8423 173.114C38.7438 173.644 39.4446 174.402 39.9446 175.386C40.4446 176.364 40.6946 177.53 40.6946 178.886V190H35.8537V179.75C35.8613 178.682 35.5885 177.848 35.0355 177.25C34.4825 176.644 33.7211 176.341 32.7514 176.341C32.0999 176.341 31.5241 176.481 31.0241 176.761C30.5317 177.042 30.1454 177.451 29.8651 177.989C29.5923 178.519 29.4522 179.159 29.4446 179.909ZM47.8872 190.33C46.7736 190.33 45.7812 190.136 44.9099 189.75C44.0387 189.356 43.3493 188.777 42.8418 188.011C42.3418 187.239 42.0918 186.277 42.0918 185.125C42.0918 184.155 42.2698 183.341 42.6259 182.682C42.9819 182.023 43.4668 181.492 44.0804 181.091C44.694 180.689 45.391 180.386 46.1713 180.182C46.9592 179.977 47.7849 179.833 48.6486 179.75C49.6637 179.644 50.4819 179.545 51.1031 179.455C51.7243 179.356 52.1751 179.212 52.4554 179.023C52.7357 178.833 52.8759 178.553 52.8759 178.182V178.114C52.8759 177.394 52.6486 176.837 52.194 176.443C51.7471 176.049 51.1107 175.852 50.2849 175.852C49.4137 175.852 48.7205 176.045 48.2054 176.432C47.6902 176.811 47.3493 177.288 47.1827 177.864L42.7054 177.5C42.9327 176.439 43.3796 175.523 44.0463 174.75C44.713 173.97 45.5728 173.371 46.6259 172.955C47.6865 172.53 48.9137 172.318 50.3077 172.318C51.2774 172.318 52.2054 172.432 53.0918 172.659C53.9857 172.886 54.7774 173.239 55.4668 173.716C56.1637 174.193 56.713 174.807 57.1145 175.557C57.516 176.299 57.7168 177.189 57.7168 178.227V190H53.1259V187.58H52.9895C52.7092 188.125 52.3342 188.606 51.8645 189.023C51.3948 189.432 50.8304 189.754 50.1713 189.989C49.5122 190.216 48.7509 190.33 47.8872 190.33ZM49.2736 186.989C49.9857 186.989 50.6145 186.848 51.1599 186.568C51.7054 186.28 52.1334 185.894 52.444 185.409C52.7546 184.924 52.9099 184.375 52.9099 183.761V181.909C52.7584 182.008 52.5501 182.098 52.2849 182.182C52.0274 182.258 51.7357 182.33 51.4099 182.398C51.0842 182.458 50.7584 182.515 50.4327 182.568C50.1069 182.614 49.8115 182.655 49.5463 182.693C48.9781 182.777 48.4819 182.909 48.0577 183.091C47.6334 183.273 47.3039 183.519 47.069 183.83C46.8342 184.133 46.7168 184.511 46.7168 184.966C46.7168 185.625 46.9554 186.129 47.4327 186.477C47.9175 186.818 48.5312 186.989 49.2736 186.989ZM64.7134 166.727V190H59.8724V166.727H64.7134ZM69.9798 196.545C69.3662 196.545 68.7904 196.496 68.2526 196.398C67.7223 196.307 67.2829 196.189 66.9344 196.045L68.0253 192.432C68.5935 192.606 69.1048 192.701 69.5594 192.716C70.0215 192.731 70.4192 192.625 70.7526 192.398C71.0935 192.17 71.37 191.784 71.5821 191.239L71.8662 190.5L65.6048 172.545H70.6957L74.3094 185.364H74.4912L78.1389 172.545H83.2639L76.4798 191.886C76.1541 192.826 75.7109 193.644 75.1503 194.341C74.5973 195.045 73.8965 195.587 73.048 195.966C72.1995 196.352 71.1768 196.545 69.9798 196.545ZM98.6639 177.523L94.2321 177.795C94.1563 177.417 93.9935 177.076 93.7435 176.773C93.4935 176.462 93.1639 176.216 92.7548 176.034C92.3533 175.845 91.8723 175.75 91.3116 175.75C90.5616 175.75 89.9291 175.909 89.4139 176.227C88.8988 176.538 88.6412 176.955 88.6412 177.477C88.6412 177.894 88.8079 178.246 89.1412 178.534C89.4745 178.822 90.0465 179.053 90.8571 179.227L94.0162 179.864C95.7132 180.212 96.9783 180.773 97.8116 181.545C98.645 182.318 99.0616 183.333 99.0616 184.591C99.0616 185.735 98.7245 186.739 98.0503 187.602C97.3836 188.466 96.467 189.14 95.3003 189.625C94.1412 190.102 92.8041 190.341 91.2889 190.341C88.9783 190.341 87.1374 189.86 85.7662 188.898C84.4026 187.928 83.6033 186.61 83.3685 184.943L88.1298 184.693C88.2738 185.398 88.6223 185.936 89.1753 186.307C89.7283 186.67 90.4366 186.852 91.3003 186.852C92.1488 186.852 92.8306 186.689 93.3457 186.364C93.8685 186.03 94.1336 185.602 94.1412 185.08C94.1336 184.64 93.948 184.28 93.5844 184C93.2207 183.712 92.6601 183.492 91.9026 183.341L88.8798 182.739C87.1753 182.398 85.9063 181.807 85.073 180.966C84.2473 180.125 83.8344 179.053 83.8344 177.75C83.8344 176.629 84.1374 175.663 84.7435 174.852C85.3571 174.042 86.2169 173.417 87.323 172.977C88.4366 172.538 89.7397 172.318 91.2321 172.318C93.4366 172.318 95.1715 172.784 96.4366 173.716C97.7094 174.648 98.4518 175.917 98.6639 177.523ZM100.51 190V172.545H105.351V190H100.51ZM102.942 170.295C102.222 170.295 101.605 170.057 101.089 169.58C100.582 169.095 100.328 168.515 100.328 167.841C100.328 167.174 100.582 166.602 101.089 166.125C101.605 165.64 102.222 165.398 102.942 165.398C103.661 165.398 104.275 165.64 104.783 166.125C105.298 166.602 105.555 167.174 105.555 167.841C105.555 168.515 105.298 169.095 104.783 169.58C104.275 170.057 103.661 170.295 102.942 170.295ZM122.151 177.523L117.72 177.795C117.644 177.417 117.481 177.076 117.231 176.773C116.981 176.462 116.651 176.216 116.242 176.034C115.841 175.845 115.36 175.75 114.799 175.75C114.049 175.75 113.417 175.909 112.901 176.227C112.386 176.538 112.129 176.955 112.129 177.477C112.129 177.894 112.295 178.246 112.629 178.534C112.962 178.822 113.534 179.053 114.345 179.227L117.504 179.864C119.201 180.212 120.466 180.773 121.299 181.545C122.132 182.318 122.549 183.333 122.549 184.591C122.549 185.735 122.212 186.739 121.538 187.602C120.871 188.466 119.954 189.14 118.788 189.625C117.629 190.102 116.292 190.341 114.776 190.341C112.466 190.341 110.625 189.86 109.254 188.898C107.89 187.928 107.091 186.61 106.856 184.943L111.617 184.693C111.761 185.398 112.11 185.936 112.663 186.307C113.216 186.67 113.924 186.852 114.788 186.852C115.636 186.852 116.318 186.689 116.833 186.364C117.356 186.03 117.621 185.602 117.629 185.08C117.621 184.64 117.436 184.28 117.072 184C116.708 183.712 116.148 183.492 115.39 183.341L112.367 182.739C110.663 182.398 109.394 181.807 108.561 180.966C107.735 180.125 107.322 179.053 107.322 177.75C107.322 176.629 107.625 175.663 108.231 174.852C108.845 174.042 109.704 173.417 110.811 172.977C111.924 172.538 113.227 172.318 114.72 172.318C116.924 172.318 118.659 172.784 119.924 173.716C121.197 174.648 121.939 175.917 122.151 177.523Z" fill="url(#paint2_linear_49_2)"/>
<defs>
<linearGradient id="paint0_linear_49_2" x1="41.0476" y1="115" x2="82" y2="115" gradientUnits="userSpaceOnUse">
<stop stop-color="#FF0F32"/>
<stop offset="0.53125" stop-color="#FF651B"/>
<stop offset="0.911458" stop-color="#FEC600"/>
</linearGradient>
<linearGradient id="paint1_linear_49_2" x1="62.0001" y1="95" x2="62" y2="0" gradientUnits="userSpaceOnUse">
<stop offset="0.130208" stop-color="#FF681A"/>
<stop offset="0.46875" stop-color="#FEC601"/>
<stop offset="0.979167" stop-color="#FEC601" stop-opacity="0"/>
</linearGradient>
<linearGradient id="paint2_linear_49_2" x1="-7.92064e-07" y1="179" x2="120.926" y2="179" gradientUnits="userSpaceOnUse">
<stop offset="0.294555" stop-color="#FF4D4D"/>
<stop offset="1" stop-color="#F9CB28"/>
</linearGradient>
</defs>
</svg>
