<?xml version="1.0" encoding="UTF-8"?>
<svg width="20px" height="16px" viewBox="0 0 20 16" version="1.1" xmlns="http://www.w3.org/2000/svg" xmlns:xlink="http://www.w3.org/1999/xlink">
    <title>Icon color</title>
    <g id="Symbols" stroke="none" stroke-width="1" fill="none" fill-rule="evenodd">
        <g id="ico-/-24-/-other-/-book_opened" transform="translate(-2.000000, -4.000000)" fill="#000000" fill-rule="nonzero">
            <path d="M21,4 L15,4 C13.8495119,4.00398044 12.7564436,4.50314832 12,5.37 C11.2435564,4.50314832 10.1504881,4.00398044 9,4 L3,4 C2.44771525,4 2,4.44771525 2,5 L2,18 C2,18.5522847 2.44771525,19 3,19 L8.59,19 C8.85233988,19.0011046 9.10373936,19.1052558 9.29,19.29 L9.71,19.71 C9.89626064,19.8947442 10.1476601,19.9988954 10.41,20 L13.59,20 C13.8523399,19.9988954 14.1037394,19.8947442 14.29,19.71 L14.71,19.29 C14.8962606,19.1052558 15.1476601,19.0011046 15.41,19 L21,19 C21.5522847,19 22,18.5522847 22,18 L22,5 C22,4.44771525 21.5522847,4 21,4 Z M11,16.54 C10.3923207,16.187493 9.70251958,16.0012467 9,16 L4,16 L4,6 L9,6 C10.1045695,6 11,6.8954305 11,8 L11,16.54 Z M20,16 L15,16 C14.2974804,16.0012467 13.6076793,16.187493 13,16.54 L13,8 C13,6.8954305 13.8954305,6 15,6 L20,6 L20,16 Z" id="Icon-color"></path>
        </g>
    </g>
</svg>