<?xml version="1.0" encoding="UTF-8"?>
<svg width="20px" height="16px" viewBox="0 0 20 16" version="1.1" xmlns="http://www.w3.org/2000/svg" xmlns:xlink="http://www.w3.org/1999/xlink">
    <title>Icon color</title>
    <g id="Symbols" stroke="none" stroke-width="1" fill="none" fill-rule="evenodd">
        <g id="ico-/-24-/-other-/-brick_wall" transform="translate(-2.000000, -4.000000)" fill="#000000" fill-rule="nonzero">
            <path d="M2,7.5 L2,4.5 C2,4.22385763 2.22385763,4 2.5,4 L10.5,4 C10.7761424,4 11,4.22385763 11,4.5 L11,7.5 C11,7.77614237 10.7761424,8 10.5,8 L2.5,8 C2.22385763,8 2,7.77614237 2,7.5 Z M21.5,4 L13.5,4 C13.2238576,4 13,4.22385763 13,4.5 L13,7.5 C13,7.77614237 13.2238576,8 13.5,8 L21.5,8 C21.7761424,8 22,7.77614237 22,7.5 L22,4.5 C22,4.22385763 21.7761424,4 21.5,4 Z M2.5,14 L4.5,14 C4.77614237,14 5,13.7761424 5,13.5 L5,10.5 C5,10.2238576 4.77614237,10 4.5,10 L2.5,10 C2.22385763,10 2,10.2238576 2,10.5 L2,13.5 C2,13.7761424 2.22385763,14 2.5,14 Z M7,10.5 L7,13.5 C7,13.7761424 7.22385763,14 7.5,14 L16.5,14 C16.7761424,14 17,13.7761424 17,13.5 L17,10.5 C17,10.2238576 16.7761424,10 16.5,10 L7.5,10 C7.22385763,10 7,10.2238576 7,10.5 Z M21.5,10 L19.5,10 C19.2238576,10 19,10.2238576 19,10.5 L19,13.5 C19,13.7761424 19.2238576,14 19.5,14 L21.5,14 C21.7761424,14 22,13.7761424 22,13.5 L22,10.5 C22,10.2238576 21.7761424,10 21.5,10 Z M10.5,16 L2.5,16 C2.22385763,16 2,16.2238576 2,16.5 L2,19.5 C2,19.7761424 2.22385763,20 2.5,20 L10.5,20 C10.7761424,20 11,19.7761424 11,19.5 L11,16.5 C11,16.2238576 10.7761424,16 10.5,16 Z M21.5,16 L13.5,16 C13.2238576,16 13,16.2238576 13,16.5 L13,19.5 C13,19.7761424 13.2238576,20 13.5,20 L21.5,20 C21.7761424,20 22,19.7761424 22,19.5 L22,16.5 C22,16.2238576 21.7761424,16 21.5,16 Z" id="Icon-color"></path>
        </g>
    </g>
</svg>