<svg width="102" height="198" viewBox="0 0 102 198" fill="none" xmlns="http://www.w3.org/2000/svg">
<circle cx="51" cy="115" r="20" fill="url(#paint0_linear_49_14)"/>
<path d="M47.14 119.32C47.9133 118.573 48.6 117.913 49.2 117.34C49.8 116.753 50.32 116.227 50.76 115.76C51.2133 115.28 51.5867 114.833 51.88 114.42C52.1867 114.007 52.4133 113.607 52.56 113.22C52.7067 112.82 52.78 112.4 52.78 111.96C52.78 111.667 52.74 111.413 52.66 111.2C52.5933 110.987 52.48 110.813 52.32 110.68C52.1733 110.533 51.9867 110.427 51.76 110.36C51.5467 110.28 51.3 110.24 51.02 110.24C50.74 110.24 50.4733 110.273 50.22 110.34C49.98 110.407 49.7467 110.507 49.52 110.64C49.3067 110.773 49.1067 110.953 48.92 111.18C48.8 111.353 48.72 111.493 48.68 111.6C48.6533 111.693 48.6467 111.793 48.66 111.9L48.54 112.04L48.4 111.94L46.84 110.74C47.1467 110.22 47.5133 109.787 47.94 109.44C48.38 109.093 48.86 108.827 49.38 108.64C49.9133 108.453 50.4667 108.36 51.04 108.36C51.76 108.36 52.4133 108.507 53 108.8C53.5867 109.093 54.0533 109.513 54.4 110.06C54.7467 110.593 54.92 111.227 54.92 111.96C54.92 112.48 54.84 112.973 54.68 113.44C54.5333 113.893 54.32 114.34 54.04 114.78C53.7733 115.207 53.44 115.647 53.04 116.1C52.64 116.553 52.1933 117.033 51.7 117.54C51.2067 118.033 50.6733 118.573 50.1 119.16H54.04C54.2667 119.16 54.4267 119.147 54.52 119.12C54.6133 119.093 54.7 119.04 54.78 118.96H54.96V119.16V121H47.14V119.32Z" fill="white"/>
<line x1="51.5" x2="51.5" y2="95" stroke="url(#paint1_linear_49_14)"/>
<path d="M10.6477 190H2.39773V166.727H10.7159C13.0568 166.727 15.072 167.193 16.7614 168.125C18.4508 169.049 19.75 170.379 20.6591 172.114C21.5758 173.848 22.0341 175.924 22.0341 178.341C22.0341 180.765 21.5758 182.848 20.6591 184.591C19.75 186.333 18.4432 187.67 16.7386 188.602C15.0417 189.534 13.0114 190 10.6477 190ZM7.31818 185.784H10.4432C11.8977 185.784 13.1212 185.527 14.1136 185.011C15.1136 184.489 15.8636 183.682 16.3636 182.591C16.8712 181.492 17.125 180.076 17.125 178.341C17.125 176.621 16.8712 175.216 16.3636 174.125C15.8636 173.034 15.1174 172.231 14.125 171.716C13.1326 171.201 11.9091 170.943 10.4545 170.943H7.31818V185.784ZM31.9426 190.341C30.1472 190.341 28.6017 189.977 27.3062 189.25C26.0184 188.515 25.0259 187.477 24.329 186.136C23.632 184.788 23.2835 183.193 23.2835 181.352C23.2835 179.557 23.632 177.981 24.329 176.625C25.0259 175.269 26.007 174.212 27.2722 173.455C28.5449 172.697 30.0373 172.318 31.7494 172.318C32.9009 172.318 33.9729 172.504 34.9653 172.875C35.9653 173.239 36.8366 173.788 37.579 174.523C38.329 175.258 38.9123 176.182 39.329 177.295C39.7456 178.402 39.954 179.697 39.954 181.182V182.511H25.2153V179.511H35.3972C35.3972 178.814 35.2456 178.197 34.9426 177.659C34.6396 177.121 34.2191 176.701 33.6812 176.398C33.1509 176.087 32.5335 175.932 31.829 175.932C31.0941 175.932 30.4426 176.102 29.8744 176.443C29.3138 176.777 28.8744 177.227 28.5562 177.795C28.2381 178.356 28.0752 178.981 28.0676 179.67V182.523C28.0676 183.386 28.2267 184.133 28.5449 184.761C28.8706 185.39 29.329 185.875 29.9199 186.216C30.5108 186.557 31.2116 186.727 32.0222 186.727C32.56 186.727 33.0525 186.652 33.4994 186.5C33.9464 186.348 34.329 186.121 34.6472 185.818C34.9653 185.515 35.2078 185.144 35.3744 184.705L39.8517 185C39.6244 186.076 39.1585 187.015 38.454 187.818C37.757 188.614 36.8555 189.235 35.7494 189.682C34.6509 190.121 33.382 190.341 31.9426 190.341ZM56.0358 177.523L51.604 177.795C51.5282 177.417 51.3653 177.076 51.1153 176.773C50.8653 176.462 50.5358 176.216 50.1267 176.034C49.7252 175.845 49.2441 175.75 48.6835 175.75C47.9335 175.75 47.3009 175.909 46.7858 176.227C46.2706 176.538 46.0131 176.955 46.0131 177.477C46.0131 177.894 46.1797 178.246 46.5131 178.534C46.8464 178.822 47.4184 179.053 48.229 179.227L51.3881 179.864C53.085 180.212 54.3502 180.773 55.1835 181.545C56.0169 182.318 56.4335 183.333 56.4335 184.591C56.4335 185.735 56.0964 186.739 55.4222 187.602C54.7555 188.466 53.8388 189.14 52.6722 189.625C51.5131 190.102 50.1759 190.341 48.6608 190.341C46.3502 190.341 44.5093 189.86 43.1381 188.898C41.7744 187.928 40.9752 186.61 40.7403 184.943L45.5017 184.693C45.6456 185.398 45.9941 185.936 46.5472 186.307C47.1002 186.67 47.8085 186.852 48.6722 186.852C49.5206 186.852 50.2025 186.689 50.7176 186.364C51.2403 186.03 51.5055 185.602 51.5131 185.08C51.5055 184.64 51.3199 184.28 50.9562 184C50.5926 183.712 50.032 183.492 49.2744 183.341L46.2517 182.739C44.5472 182.398 43.2782 181.807 42.4449 180.966C41.6191 180.125 41.2062 179.053 41.2062 177.75C41.2062 176.629 41.5093 175.663 42.1153 174.852C42.729 174.042 43.5888 173.417 44.6949 172.977C45.8085 172.538 47.1116 172.318 48.604 172.318C50.8085 172.318 52.5434 172.784 53.8085 173.716C55.0812 174.648 55.8237 175.917 56.0358 177.523ZM57.8818 190V172.545H62.7227V190H57.8818ZM60.3136 170.295C59.5939 170.295 58.9765 170.057 58.4614 169.58C57.9538 169.095 57.7 168.515 57.7 167.841C57.7 167.174 57.9538 166.602 58.4614 166.125C58.9765 165.64 59.5939 165.398 60.3136 165.398C61.0333 165.398 61.647 165.64 62.1545 166.125C62.6697 166.602 62.9273 167.174 62.9273 167.841C62.9273 168.515 62.6697 169.095 62.1545 169.58C61.647 170.057 61.0333 170.295 60.3136 170.295ZM72.8642 196.909C71.296 196.909 69.9513 196.693 68.8301 196.261C67.7165 195.837 66.8301 195.258 66.171 194.523C65.5119 193.788 65.0839 192.962 64.8869 192.045L69.3642 191.443C69.5006 191.792 69.7165 192.117 70.0119 192.42C70.3074 192.723 70.6975 192.966 71.1824 193.148C71.6748 193.337 72.2733 193.432 72.9778 193.432C74.0309 193.432 74.8983 193.174 75.5801 192.659C76.2695 192.152 76.6142 191.299 76.6142 190.102V186.909H76.4097C76.1975 187.394 75.8794 187.852 75.4551 188.284C75.0309 188.716 74.4854 189.068 73.8187 189.341C73.1521 189.614 72.3566 189.75 71.4324 189.75C70.1218 189.75 68.9286 189.447 67.8528 188.841C66.7847 188.227 65.9324 187.292 65.296 186.034C64.6672 184.769 64.3528 183.17 64.3528 181.239C64.3528 179.261 64.6748 177.61 65.3187 176.284C65.9627 174.958 66.8187 173.966 67.8869 173.307C68.9627 172.648 70.1407 172.318 71.421 172.318C72.3983 172.318 73.2165 172.485 73.8756 172.818C74.5347 173.144 75.065 173.553 75.4665 174.045C75.8756 174.53 76.19 175.008 76.4097 175.477H76.5915V172.545H81.3983V190.17C81.3983 191.655 81.0347 192.898 80.3074 193.898C79.5801 194.898 78.5725 195.648 77.2847 196.148C76.0044 196.655 74.5309 196.909 72.8642 196.909ZM72.9665 186.114C73.7468 186.114 74.4059 185.92 74.9437 185.534C75.4892 185.14 75.9059 184.58 76.1937 183.852C76.4892 183.117 76.6369 182.239 76.6369 181.216C76.6369 180.193 76.493 179.307 76.2051 178.557C75.9172 177.799 75.5006 177.212 74.9551 176.795C74.4097 176.379 73.7468 176.17 72.9665 176.17C72.171 176.17 71.5006 176.386 70.9551 176.818C70.4097 177.242 69.9968 177.833 69.7165 178.591C69.4362 179.348 69.296 180.223 69.296 181.216C69.296 182.223 69.4362 183.095 69.7165 183.83C70.0044 184.557 70.4172 185.121 70.9551 185.523C71.5006 185.917 72.171 186.114 72.9665 186.114ZM88.4915 179.909V190H83.6506V172.545H88.2642V175.625H88.4688C88.8551 174.61 89.5028 173.807 90.4119 173.216C91.321 172.617 92.4233 172.318 93.7188 172.318C94.9309 172.318 95.9877 172.583 96.8892 173.114C97.7907 173.644 98.4915 174.402 98.9915 175.386C99.4915 176.364 99.7415 177.53 99.7415 178.886V190H94.9006V179.75C94.9081 178.682 94.6354 177.848 94.0824 177.25C93.5294 176.644 92.768 176.341 91.7983 176.341C91.1468 176.341 90.571 176.481 90.071 176.761C89.5786 177.042 89.1922 177.451 88.9119 177.989C88.6392 178.519 88.4991 179.159 88.4915 179.909Z" fill="url(#paint2_linear_49_14)"/>
<defs>
<linearGradient id="paint0_linear_49_14" x1="30.0476" y1="115" x2="71" y2="115" gradientUnits="userSpaceOnUse">
<stop stop-color="#7928CA"/>
<stop offset="0.473958" stop-color="#7928CA"/>
<stop offset="1" stop-color="#FF0080"/>
</linearGradient>
<linearGradient id="paint1_linear_49_14" x1="51.0001" y1="95" x2="51" y2="0" gradientUnits="userSpaceOnUse">
<stop offset="0.203125" stop-color="#7928CA"/>
<stop offset="0.46875" stop-color="#FF0080"/>
<stop offset="0.979167" stop-color="#FF0080" stop-opacity="0"/>
</linearGradient>
<linearGradient id="paint2_linear_49_14" x1="-6.51536e-07" y1="179" x2="99.4711" y2="179" gradientUnits="userSpaceOnUse">
<stop offset="0.0520833" stop-color="#7928CA"/>
<stop offset="1" stop-color="#FF0080"/>
</linearGradient>
</defs>
</svg>
