<svg width="119" height="198" viewBox="0 0 119 198" fill="none" xmlns="http://www.w3.org/2000/svg">
<circle cx="59" cy="115" r="20" fill="url(#paint0_linear_49_8)"/>
<path d="M58.7 121.24C57.9667 121.24 57.2533 121.12 56.56 120.88C55.8667 120.627 55.3067 120.247 54.88 119.74L56.02 118.08L56.14 117.92L56.3 118.02C56.3267 118.127 56.3533 118.233 56.38 118.34C56.42 118.447 56.52 118.58 56.68 118.74C56.92 118.953 57.2 119.127 57.52 119.26C57.8533 119.38 58.2133 119.44 58.6 119.44C59.0267 119.44 59.3867 119.36 59.68 119.2C59.9733 119.027 60.1933 118.793 60.34 118.5C60.5 118.193 60.58 117.847 60.58 117.46C60.58 117.047 60.5067 116.7 60.36 116.42C60.2267 116.127 60.02 115.9 59.74 115.74C59.4733 115.58 59.1333 115.473 58.72 115.42C58.32 115.367 57.8467 115.373 57.3 115.44V113.68C57.8867 113.693 58.3733 113.653 58.76 113.56C59.1467 113.467 59.4533 113.333 59.68 113.16C59.9067 112.987 60.0667 112.787 60.16 112.56C60.2533 112.32 60.3 112.073 60.3 111.82C60.3 111.567 60.26 111.347 60.18 111.16C60.1 110.96 59.9867 110.793 59.84 110.66C59.7067 110.513 59.5333 110.407 59.32 110.34C59.12 110.26 58.8933 110.22 58.64 110.22C58.3733 110.22 58.1067 110.253 57.84 110.32C57.5867 110.387 57.34 110.493 57.1 110.64C56.8733 110.773 56.66 110.953 56.46 111.18L55.16 109.86C55.64 109.327 56.1933 108.947 56.82 108.72C57.46 108.48 58.0933 108.36 58.72 108.36C59.4533 108.36 60.1 108.5 60.66 108.78C61.2333 109.06 61.68 109.44 62 109.92C62.32 110.4 62.48 110.953 62.48 111.58C62.48 112.033 62.3867 112.447 62.2 112.82C62.0267 113.193 61.7867 113.513 61.48 113.78C61.1867 114.033 60.8733 114.233 60.54 114.38C60.9267 114.513 61.2933 114.713 61.64 114.98C62 115.247 62.2867 115.593 62.5 116.02C62.7267 116.433 62.84 116.94 62.84 117.54C62.84 118.22 62.6733 118.84 62.34 119.4C62.0067 119.96 61.5333 120.407 60.92 120.74C60.3067 121.073 59.5667 121.24 58.7 121.24Z" fill="white"/>
<line x1="59.5" x2="59.5" y2="95" stroke="url(#paint1_linear_49_8)"/>
<path d="M10.6509 190H2.40085V166.727H10.719C13.0599 166.727 15.0751 167.193 16.7645 168.125C18.4539 169.049 19.7531 170.379 20.6622 172.114C21.5789 173.848 22.0372 175.924 22.0372 178.341C22.0372 180.765 21.5789 182.848 20.6622 184.591C19.7531 186.333 18.4463 187.67 16.7418 188.602C15.0448 189.534 13.0145 190 10.6509 190ZM7.32131 185.784H10.4463C11.9009 185.784 13.1243 185.527 14.1168 185.011C15.1168 184.489 15.8668 183.682 16.3668 182.591C16.8743 181.492 17.1281 180.076 17.1281 178.341C17.1281 176.621 16.8743 175.216 16.3668 174.125C15.8668 173.034 15.1205 172.231 14.1281 171.716C13.1357 171.201 11.9122 170.943 10.4577 170.943H7.32131V185.784ZM31.9457 190.341C30.1503 190.341 28.6048 189.977 27.3094 189.25C26.0215 188.515 25.0291 187.477 24.3321 186.136C23.6351 184.788 23.2866 183.193 23.2866 181.352C23.2866 179.557 23.6351 177.981 24.3321 176.625C25.0291 175.269 26.0101 174.212 27.2753 173.455C28.548 172.697 30.0404 172.318 31.7526 172.318C32.9041 172.318 33.976 172.504 34.9685 172.875C35.9685 173.239 36.8397 173.788 37.5821 174.523C38.3321 175.258 38.9154 176.182 39.3321 177.295C39.7488 178.402 39.9571 179.697 39.9571 181.182V182.511H25.2185V179.511H35.4003C35.4003 178.814 35.2488 178.197 34.9457 177.659C34.6427 177.121 34.2223 176.701 33.6844 176.398C33.1541 176.087 32.5366 175.932 31.8321 175.932C31.0973 175.932 30.4457 176.102 29.8776 176.443C29.3169 176.777 28.8776 177.227 28.5594 177.795C28.2412 178.356 28.0783 178.981 28.0707 179.67V182.523C28.0707 183.386 28.2298 184.133 28.548 184.761C28.8738 185.39 29.3321 185.875 29.923 186.216C30.5139 186.557 31.2147 186.727 32.0253 186.727C32.5632 186.727 33.0556 186.652 33.5026 186.5C33.9495 186.348 34.3321 186.121 34.6503 185.818C34.9685 185.515 35.2109 185.144 35.3776 184.705L39.8548 185C39.6276 186.076 39.1616 187.015 38.4571 187.818C37.7601 188.614 36.8586 189.235 35.7526 189.682C34.6541 190.121 33.3851 190.341 31.9457 190.341ZM57.3202 172.545L51.2179 190H45.7634L39.6611 172.545H44.7747L48.3997 185.034H48.5815L52.1952 172.545H57.3202ZM65.5895 190.341C63.794 190.341 62.2486 189.977 60.9531 189.25C59.6652 188.515 58.6728 187.477 57.9759 186.136C57.2789 184.788 56.9304 183.193 56.9304 181.352C56.9304 179.557 57.2789 177.981 57.9759 176.625C58.6728 175.269 59.6539 174.212 60.919 173.455C62.1918 172.697 63.6842 172.318 65.3963 172.318C66.5478 172.318 67.6198 172.504 68.6122 172.875C69.6122 173.239 70.4834 173.788 71.2259 174.523C71.9759 175.258 72.5592 176.182 72.9759 177.295C73.3925 178.402 73.6009 179.697 73.6009 181.182V182.511H58.8622V179.511H69.044C69.044 178.814 68.8925 178.197 68.5895 177.659C68.2865 177.121 67.866 176.701 67.3281 176.398C66.7978 176.087 66.1804 175.932 65.4759 175.932C64.741 175.932 64.0895 176.102 63.5213 176.443C62.9607 176.777 62.5213 177.227 62.2031 177.795C61.8849 178.356 61.7221 178.981 61.7145 179.67V182.523C61.7145 183.386 61.8736 184.133 62.1918 184.761C62.5175 185.39 62.9759 185.875 63.5668 186.216C64.1577 186.557 64.8584 186.727 65.669 186.727C66.2069 186.727 66.6993 186.652 67.1463 186.5C67.5933 186.348 67.9759 186.121 68.294 185.818C68.6122 185.515 68.8546 185.144 69.0213 184.705L73.4986 185C73.2713 186.076 72.8054 187.015 72.1009 187.818C71.4039 188.614 70.5024 189.235 69.3963 189.682C68.2978 190.121 67.0289 190.341 65.5895 190.341ZM80.0008 166.727V190H75.1599V166.727H80.0008ZM90.1651 190.341C88.3999 190.341 86.8734 189.966 85.5855 189.216C84.3052 188.458 83.3166 187.405 82.6196 186.057C81.9226 184.701 81.5742 183.129 81.5742 181.341C81.5742 179.538 81.9226 177.962 82.6196 176.614C83.3166 175.258 84.3052 174.205 85.5855 173.455C86.8734 172.697 88.3999 172.318 90.1651 172.318C91.9302 172.318 93.4529 172.697 94.7332 173.455C96.0211 174.205 97.0135 175.258 97.7105 176.614C98.4075 177.962 98.756 179.538 98.756 181.341C98.756 183.129 98.4075 184.701 97.7105 186.057C97.0135 187.405 96.0211 188.458 94.7332 189.216C93.4529 189.966 91.9302 190.341 90.1651 190.341ZM90.1878 186.591C90.9908 186.591 91.6613 186.364 92.1992 185.909C92.737 185.447 93.1423 184.818 93.4151 184.023C93.6954 183.227 93.8355 182.322 93.8355 181.307C93.8355 180.292 93.6954 179.386 93.4151 178.591C93.1423 177.795 92.737 177.167 92.1992 176.705C91.6613 176.242 90.9908 176.011 90.1878 176.011C89.3772 176.011 88.6954 176.242 88.1423 176.705C87.5969 177.167 87.184 177.795 86.9037 178.591C86.631 179.386 86.4946 180.292 86.4946 181.307C86.4946 182.322 86.631 183.227 86.9037 184.023C87.184 184.818 87.5969 185.447 88.1423 185.909C88.6954 186.364 89.3772 186.591 90.1878 186.591ZM100.304 196.545V172.545H105.076V175.477H105.292C105.504 175.008 105.811 174.53 106.213 174.045C106.622 173.553 107.152 173.144 107.804 172.818C108.463 172.485 109.281 172.318 110.258 172.318C111.531 172.318 112.705 172.652 113.781 173.318C114.857 173.977 115.717 174.973 116.361 176.307C117.004 177.633 117.326 179.295 117.326 181.295C117.326 183.242 117.012 184.886 116.383 186.227C115.762 187.561 114.914 188.572 113.838 189.261C112.77 189.943 111.573 190.284 110.247 190.284C109.307 190.284 108.508 190.129 107.849 189.818C107.198 189.508 106.664 189.117 106.247 188.648C105.83 188.17 105.512 187.689 105.292 187.205H105.145V196.545H100.304ZM105.042 181.273C105.042 182.311 105.186 183.216 105.474 183.989C105.762 184.761 106.179 185.364 106.724 185.795C107.27 186.22 107.932 186.432 108.713 186.432C109.501 186.432 110.167 186.216 110.713 185.784C111.258 185.345 111.671 184.739 111.951 183.966C112.239 183.186 112.383 182.288 112.383 181.273C112.383 180.265 112.243 179.379 111.963 178.614C111.682 177.848 111.27 177.25 110.724 176.818C110.179 176.386 109.508 176.17 108.713 176.17C107.925 176.17 107.258 176.379 106.713 176.795C106.175 177.212 105.762 177.803 105.474 178.568C105.186 179.333 105.042 180.235 105.042 181.273Z" fill="url(#paint2_linear_49_8)"/>
<defs>
<linearGradient id="paint0_linear_49_8" x1="38.0476" y1="115" x2="79" y2="115" gradientUnits="userSpaceOnUse">
<stop offset="0.0104167" stop-color="#007CF0"/>
<stop offset="0.260417" stop-color="#007CF0"/>
<stop offset="0.484375" stop-color="#007CF0"/>
<stop offset="0.911458" stop-color="#00DFD8"/>
</linearGradient>
<linearGradient id="paint1_linear_49_8" x1="59.0001" y1="95" x2="59" y2="0" gradientUnits="userSpaceOnUse">
<stop offset="0.203125" stop-color="#007CF0"/>
<stop offset="0.46875" stop-color="#00DFD8"/>
<stop offset="0.979167" stop-color="#00DFD8" stop-opacity="0"/>
</linearGradient>
<linearGradient id="paint2_linear_49_8" x1="-7.60126e-07" y1="179" x2="116.05" y2="179" gradientUnits="userSpaceOnUse">
<stop offset="0.0520833" stop-color="#007CF0"/>
<stop offset="1" stop-color="#00DFD8"/>
</linearGradient>
</defs>
</svg>
