<svg width="40" height="40" viewBox="0 0 40 40" fill="none" xmlns="http://www.w3.org/2000/svg">
<path d="M20.0013 8C13.3706 7.99732 8 13.3652 8 19.9906C8 25.2298 11.3596 29.6834 16.0384 31.319C16.6685 31.4772 16.572 31.0294 16.572 30.7237V28.6457C12.9335 29.0721 12.7861 26.6643 12.5421 26.2621C12.0487 25.4202 10.8824 25.2057 11.2309 24.8035C12.0594 24.3772 12.904 24.9107 13.8827 26.3559C14.5905 27.4043 15.9714 27.2274 16.6712 27.0531C16.824 26.423 17.1512 25.8599 17.6016 25.4229C13.8318 24.7472 12.2605 22.4467 12.2605 19.7118C12.2605 18.3845 12.6976 17.1646 13.5556 16.1805C13.0086 14.5584 13.6065 13.1695 13.687 12.963C15.2448 12.8236 16.8643 14.0784 16.9903 14.1776C17.8751 13.939 18.8859 13.813 20.0174 13.813C21.1543 13.813 22.1678 13.9444 23.0607 14.1857C23.3636 13.9551 24.8652 12.8772 26.313 13.0086C26.3908 13.2151 26.9753 14.5718 26.4605 16.1725C27.3292 17.1592 27.7716 18.3899 27.7716 19.7198C27.7716 22.4601 26.1897 24.7633 22.4091 25.4282C22.7329 25.7467 22.99 26.1265 23.1654 26.5454C23.3408 26.9643 23.431 27.414 23.4307 27.8682V30.8846C23.4521 31.1259 23.4307 31.3645 23.8329 31.3645C28.5814 29.7638 32 25.2781 32 19.9933C32 13.3652 26.6267 8 20.0013 8Z" fill="white"/>
<rect x="0.5" y="0.5" width="39" height="39" rx="4.5" stroke="white"/>
</svg>
