<svg width="1227" height="110" viewBox="0 0 1227 110" fill="none" xmlns="http://www.w3.org/2000/svg">
<path d="M26.8633 45.5293C24.3926 47.7904 21.2331 48.9209 17.3848 48.9209C12.623 48.9209 8.87956 47.3936 6.1543 44.3389C3.42904 41.2692 2.06641 37.0615 2.06641 31.7158C2.06641 25.9359 3.61621 21.4811 6.71582 18.3516C9.41113 15.6263 12.8402 14.2637 17.0029 14.2637C22.5732 14.2637 26.6462 16.0905 29.2217 19.7441C30.6442 21.7956 31.4079 23.8545 31.5127 25.9209H24.5947C24.1455 24.3337 23.569 23.1357 22.8652 22.3271C21.6074 20.8896 19.7432 20.1709 17.2725 20.1709C14.7568 20.1709 12.7728 21.1891 11.3203 23.2256C9.86784 25.2471 9.1416 28.1146 9.1416 31.8281C9.1416 35.5417 9.90527 38.3268 11.4326 40.1836C12.9749 42.0254 14.929 42.9463 17.2949 42.9463C19.7207 42.9463 21.57 42.1527 22.8428 40.5654C23.5465 39.7119 24.1305 38.4316 24.5947 36.7246H31.4453C30.8464 40.3333 29.319 43.2682 26.8633 45.5293ZM51.3906 48.9209C46.6589 48.9209 43.0426 47.6331 40.542 45.0576C37.1878 41.8981 35.5107 37.346 35.5107 31.4014C35.5107 25.3369 37.1878 20.7848 40.542 17.7451C43.0426 15.1696 46.6589 13.8818 51.3906 13.8818C56.1224 13.8818 59.7386 15.1696 62.2393 17.7451C65.5785 20.7848 67.248 25.3369 67.248 31.4014C67.248 37.346 65.5785 41.8981 62.2393 45.0576C59.7386 47.6331 56.1224 48.9209 51.3906 48.9209ZM57.9268 40.0264C59.529 38.0049 60.3301 35.1299 60.3301 31.4014C60.3301 27.6878 59.5215 24.8203 57.9043 22.7988C56.3021 20.7624 54.1309 19.7441 51.3906 19.7441C48.6504 19.7441 46.4642 20.7549 44.832 22.7764C43.1999 24.7979 42.3838 27.6729 42.3838 31.4014C42.3838 35.1299 43.1999 38.0049 44.832 40.0264C46.4642 42.0479 48.6504 43.0586 51.3906 43.0586C54.1309 43.0586 56.3096 42.0479 57.9268 40.0264ZM99.3223 48H92.4043L78.8828 24.4834V48H72.4365V14.8926H79.6914L92.876 38.0049V14.8926H99.3223V48ZM129.15 45.5293C126.68 47.7904 123.52 48.9209 119.672 48.9209C114.91 48.9209 111.167 47.3936 108.441 44.3389C105.716 41.2692 104.354 37.0615 104.354 31.7158C104.354 25.9359 105.903 21.4811 109.003 18.3516C111.698 15.6263 115.127 14.2637 119.29 14.2637C124.86 14.2637 128.933 16.0905 131.509 19.7441C132.931 21.7956 133.695 23.8545 133.8 25.9209H126.882C126.433 24.3337 125.856 23.1357 125.152 22.3271C123.895 20.8896 122.03 20.1709 119.56 20.1709C117.044 20.1709 115.06 21.1891 113.607 23.2256C112.155 25.2471 111.429 28.1146 111.429 31.8281C111.429 35.5417 112.192 38.3268 113.72 40.1836C115.262 42.0254 117.216 42.9463 119.582 42.9463C122.008 42.9463 123.857 42.1527 125.13 40.5654C125.834 39.7119 126.418 38.4316 126.882 36.7246H133.732C133.133 40.3333 131.606 43.2682 129.15 45.5293ZM162.078 33.5352H145.996V42.0479H164.324V48H139.235V14.8926H163.516V20.7549H145.996V27.7852H162.078V33.5352ZM183.775 36.0957H176.745V48H169.872V14.8926H184.292C187.616 14.8926 190.267 15.7461 192.243 17.4531C194.22 19.1602 195.208 21.8031 195.208 25.3818C195.208 29.29 194.22 32.0527 192.243 33.6699C190.267 35.2871 187.444 36.0957 183.775 36.0957ZM187.01 29.2002C187.908 28.4066 188.357 27.1488 188.357 25.4268C188.357 23.7048 187.901 22.4769 186.987 21.7432C186.089 21.0094 184.824 20.6426 183.191 20.6426H176.745V30.3906H183.191C184.824 30.3906 186.096 29.9938 187.01 29.2002ZM224.452 14.8926V20.7549H214.547V48H207.584V20.7549H197.634V14.8926H224.452ZM248.104 35.2422V14.8926H255.134V35.2422C255.134 38.7611 254.587 41.5013 253.494 43.4629C251.458 47.0566 247.572 48.8535 241.837 48.8535C236.102 48.8535 232.209 47.0566 230.157 43.4629C229.064 41.5013 228.518 38.7611 228.518 35.2422V14.8926H235.548V35.2422C235.548 37.5182 235.817 39.1803 236.356 40.2285C237.195 42.0853 239.022 43.0137 241.837 43.0137C244.637 43.0137 246.456 42.0853 247.295 40.2285C247.834 39.1803 248.104 37.5182 248.104 35.2422ZM281.144 41.1943H268.947L266.656 48H259.424L271.238 14.8926H279.055L290.779 48H283.277L281.144 41.1943ZM279.212 35.4893L275.079 22.4619L270.812 35.4893H279.212ZM295.002 14.8926H301.92V42.0479H318.316V48H295.002V14.8926ZM322.584 14.8926H329.457V48H322.584V14.8926ZM359.353 48H333.59V42.1602L350.683 20.7549H334.017V14.8926H359.308V20.4404L341.99 42.1602H359.353V48ZM383.431 41.1943H371.234L368.943 48H361.711L373.525 14.8926H381.342L393.066 48H385.564L383.431 41.1943ZM381.499 35.4893L377.366 22.4619L373.099 35.4893H381.499ZM417.931 14.8926V20.7549H408.025V48H401.062V20.7549H391.112V14.8926H417.931ZM421.457 14.8926H428.33V48H421.457V14.8926ZM449.443 48.9209C444.712 48.9209 441.095 47.6331 438.595 45.0576C435.241 41.8981 433.563 37.346 433.563 31.4014C433.563 25.3369 435.241 20.7848 438.595 17.7451C441.095 15.1696 444.712 13.8818 449.443 13.8818C454.175 13.8818 457.791 15.1696 460.292 17.7451C463.631 20.7848 465.301 25.3369 465.301 31.4014C465.301 37.346 463.631 41.8981 460.292 45.0576C457.791 47.6331 454.175 48.9209 449.443 48.9209ZM455.979 40.0264C457.582 38.0049 458.383 35.1299 458.383 31.4014C458.383 27.6878 457.574 24.8203 455.957 22.7988C454.355 20.7624 452.184 19.7441 449.443 19.7441C446.703 19.7441 444.517 20.7549 442.885 22.7764C441.253 24.7979 440.437 27.6729 440.437 31.4014C440.437 35.1299 441.253 38.0049 442.885 40.0264C444.517 42.0479 446.703 43.0586 449.443 43.0586C452.184 43.0586 454.362 42.0479 455.979 40.0264ZM497.375 48H490.457L476.936 24.4834V48H470.489V14.8926H477.744L490.929 38.0049V14.8926H497.375V48ZM13.1846 108.809C9.8304 108.809 7.20996 107.82 5.32324 105.844C3.43652 103.867 2.49316 101.674 2.49316 99.2627C2.49316 97.2712 2.9873 95.5641 3.97559 94.1416C4.96387 92.7191 6.58105 91.3115 8.82715 89.9189L9.52344 89.4922C8.5651 88.4141 7.82389 87.3135 7.2998 86.1904C6.77572 85.0674 6.51367 83.8994 6.51367 82.6865C6.51367 80.2757 7.32227 78.3965 8.93945 77.0488C10.5566 75.6862 12.653 75.0049 15.2285 75.0049C17.5794 75.0049 19.5186 75.7012 21.0459 77.0938C22.5882 78.4714 23.3594 80.2383 23.3594 82.3945C23.3594 84.3411 22.8952 85.9209 21.9668 87.1338C21.0534 88.3467 19.7057 89.4697 17.9238 90.5029L22.6182 96.2979C23.1572 95.5192 23.569 94.6732 23.8535 93.7598C24.153 92.8464 24.3102 91.8805 24.3252 90.8623H30.0078C29.918 92.8688 29.4388 94.8978 28.5703 96.9492C28.0911 98.1022 27.3125 99.375 26.2344 100.768L32.2539 108H24.4824L22.1914 105.192C21.0833 106.226 20.0501 106.989 19.0918 107.483C17.3848 108.367 15.4157 108.809 13.1846 108.809ZM12.8252 93.5801C11.223 94.6432 10.1598 95.5791 9.63574 96.3877C9.12663 97.1963 8.87207 98.0872 8.87207 99.0605C8.87207 100.154 9.3138 101.157 10.1973 102.07C11.0957 102.984 12.2412 103.44 13.6338 103.44C14.682 103.44 15.6702 103.201 16.5986 102.722C17.542 102.228 18.3057 101.681 18.8896 101.082L12.8252 93.5801ZM12.3984 82.4619C12.3984 83.0609 12.6081 83.6898 13.0273 84.3486C13.2969 84.7829 13.8809 85.554 14.7793 86.6621C15.6777 86.0332 16.3216 85.5016 16.7109 85.0674C17.4596 84.2588 17.834 83.3828 17.834 82.4395C17.834 81.7507 17.6094 81.1367 17.1602 80.5977C16.7109 80.0586 16.0296 79.7891 15.1162 79.7891C14.5472 79.7891 14.0156 79.9463 13.5215 80.2607C12.7728 80.7249 12.3984 81.4587 12.3984 82.4619ZM63.8115 108H49.5488V74.8926H63.8115C65.863 74.9225 67.57 75.1621 68.9326 75.6113C71.2536 76.375 73.1328 77.7751 74.5703 79.8115C75.7233 81.4587 76.5094 83.2406 76.9287 85.1572C77.348 87.0739 77.5576 88.9007 77.5576 90.6377C77.5576 95.04 76.6742 98.7686 74.9072 101.823C72.5114 105.941 68.8128 108 63.8115 108ZM68.9551 83.3379C67.8919 81.541 65.7881 80.6426 62.6436 80.6426H56.2646V102.25H62.6436C65.9079 102.25 68.1839 100.64 69.4717 97.4209C70.1755 95.654 70.5273 93.5501 70.5273 91.1094C70.5273 87.7402 70.0033 85.1497 68.9551 83.3379ZM105.836 93.5352H89.7539V102.048H108.082V108H82.9932V74.8926H107.273V80.7549H89.7539V87.7852H105.836V93.5352ZM125.489 103.216C127.121 103.216 128.447 103.036 129.465 102.677C131.396 101.988 132.362 100.708 132.362 98.8359C132.362 97.7428 131.883 96.8968 130.925 96.2979C129.966 95.7139 128.462 95.1973 126.41 94.748L122.906 93.9619C119.462 93.1833 117.081 92.3372 115.764 91.4238C113.533 89.8965 112.417 87.5081 112.417 84.2588C112.417 81.2939 113.495 78.8307 115.651 76.8691C117.808 74.9076 120.975 73.9268 125.152 73.9268C128.641 73.9268 131.614 74.8551 134.069 76.7119C136.54 78.5537 137.835 81.234 137.955 84.7529H131.307C131.187 82.7614 130.318 81.3464 128.701 80.5078C127.623 79.9538 126.283 79.6768 124.681 79.6768C122.899 79.6768 121.476 80.0361 120.413 80.7549C119.35 81.4736 118.818 82.4769 118.818 83.7646C118.818 84.9476 119.342 85.8311 120.391 86.415C121.064 86.8044 122.502 87.2611 124.703 87.7852L130.408 89.1553C132.909 89.7542 134.796 90.5553 136.068 91.5586C138.045 93.1159 139.033 95.3695 139.033 98.3193C139.033 101.344 137.873 103.86 135.552 105.866C133.246 107.858 129.981 108.854 125.759 108.854C121.446 108.854 118.055 107.873 115.584 105.911C113.113 103.935 111.878 101.224 111.878 97.7803H118.481C118.691 99.2926 119.103 100.423 119.717 101.172C120.84 102.535 122.764 103.216 125.489 103.216ZM143.615 74.8926H150.488V108H143.615V74.8926ZM177.262 107.191C175.435 108.314 173.189 108.876 170.523 108.876C166.136 108.876 162.542 107.356 159.742 104.316C156.822 101.262 155.362 97.084 155.362 91.7832C155.362 86.4225 156.837 82.125 159.787 78.8906C162.737 75.6562 166.638 74.0391 171.489 74.0391C175.697 74.0391 179.074 75.1097 181.619 77.251C184.18 79.3773 185.647 82.0352 186.021 85.2246H179.216C178.692 82.9635 177.411 81.3838 175.375 80.4854C174.237 79.9912 172.972 79.7441 171.579 79.7441C168.914 79.7441 166.72 80.7549 164.998 82.7764C163.291 84.7829 162.438 87.8076 162.438 91.8506C162.438 95.9235 163.366 98.806 165.223 100.498C167.079 102.19 169.191 103.036 171.557 103.036C173.878 103.036 175.779 102.37 177.262 101.037C178.744 99.6895 179.658 97.93 180.002 95.7588H172.343V90.2334H186.134V108H181.552L180.855 103.867C179.523 105.439 178.325 106.548 177.262 107.191ZM219.533 108H212.615L199.094 84.4834V108H192.647V74.8926H199.902L213.087 98.0049V74.8926H219.533V108Z" fill="#F5F5F5"/>
<path d="M26.8633 45.5293C24.3926 47.7904 21.2331 48.9209 17.3848 48.9209C12.623 48.9209 8.87956 47.3936 6.1543 44.3389C3.42904 41.2692 2.06641 37.0615 2.06641 31.7158C2.06641 25.9359 3.61621 21.4811 6.71582 18.3516C9.41113 15.6263 12.8402 14.2637 17.0029 14.2637C22.5732 14.2637 26.6462 16.0905 29.2217 19.7441C30.6442 21.7956 31.4079 23.8545 31.5127 25.9209H24.5947C24.1455 24.3337 23.569 23.1357 22.8652 22.3271C21.6074 20.8896 19.7432 20.1709 17.2725 20.1709C14.7568 20.1709 12.7728 21.1891 11.3203 23.2256C9.86784 25.2471 9.1416 28.1146 9.1416 31.8281C9.1416 35.5417 9.90527 38.3268 11.4326 40.1836C12.9749 42.0254 14.929 42.9463 17.2949 42.9463C19.7207 42.9463 21.57 42.1527 22.8428 40.5654C23.5465 39.7119 24.1305 38.4316 24.5947 36.7246H31.4453C30.8464 40.3333 29.319 43.2682 26.8633 45.5293ZM51.3906 48.9209C46.6589 48.9209 43.0426 47.6331 40.542 45.0576C37.1878 41.8981 35.5107 37.346 35.5107 31.4014C35.5107 25.3369 37.1878 20.7848 40.542 17.7451C43.0426 15.1696 46.6589 13.8818 51.3906 13.8818C56.1224 13.8818 59.7386 15.1696 62.2393 17.7451C65.5785 20.7848 67.248 25.3369 67.248 31.4014C67.248 37.346 65.5785 41.8981 62.2393 45.0576C59.7386 47.6331 56.1224 48.9209 51.3906 48.9209ZM57.9268 40.0264C59.529 38.0049 60.3301 35.1299 60.3301 31.4014C60.3301 27.6878 59.5215 24.8203 57.9043 22.7988C56.3021 20.7624 54.1309 19.7441 51.3906 19.7441C48.6504 19.7441 46.4642 20.7549 44.832 22.7764C43.1999 24.7979 42.3838 27.6729 42.3838 31.4014C42.3838 35.1299 43.1999 38.0049 44.832 40.0264C46.4642 42.0479 48.6504 43.0586 51.3906 43.0586C54.1309 43.0586 56.3096 42.0479 57.9268 40.0264ZM99.3223 48H92.4043L78.8828 24.4834V48H72.4365V14.8926H79.6914L92.876 38.0049V14.8926H99.3223V48ZM129.15 45.5293C126.68 47.7904 123.52 48.9209 119.672 48.9209C114.91 48.9209 111.167 47.3936 108.441 44.3389C105.716 41.2692 104.354 37.0615 104.354 31.7158C104.354 25.9359 105.903 21.4811 109.003 18.3516C111.698 15.6263 115.127 14.2637 119.29 14.2637C124.86 14.2637 128.933 16.0905 131.509 19.7441C132.931 21.7956 133.695 23.8545 133.8 25.9209H126.882C126.433 24.3337 125.856 23.1357 125.152 22.3271C123.895 20.8896 122.03 20.1709 119.56 20.1709C117.044 20.1709 115.06 21.1891 113.607 23.2256C112.155 25.2471 111.429 28.1146 111.429 31.8281C111.429 35.5417 112.192 38.3268 113.72 40.1836C115.262 42.0254 117.216 42.9463 119.582 42.9463C122.008 42.9463 123.857 42.1527 125.13 40.5654C125.834 39.7119 126.418 38.4316 126.882 36.7246H133.732C133.133 40.3333 131.606 43.2682 129.15 45.5293ZM162.078 33.5352H145.996V42.0479H164.324V48H139.235V14.8926H163.516V20.7549H145.996V27.7852H162.078V33.5352ZM183.775 36.0957H176.745V48H169.872V14.8926H184.292C187.616 14.8926 190.267 15.7461 192.243 17.4531C194.22 19.1602 195.208 21.8031 195.208 25.3818C195.208 29.29 194.22 32.0527 192.243 33.6699C190.267 35.2871 187.444 36.0957 183.775 36.0957ZM187.01 29.2002C187.908 28.4066 188.357 27.1488 188.357 25.4268C188.357 23.7048 187.901 22.4769 186.987 21.7432C186.089 21.0094 184.824 20.6426 183.191 20.6426H176.745V30.3906H183.191C184.824 30.3906 186.096 29.9938 187.01 29.2002ZM224.452 14.8926V20.7549H214.547V48H207.584V20.7549H197.634V14.8926H224.452ZM248.104 35.2422V14.8926H255.134V35.2422C255.134 38.7611 254.587 41.5013 253.494 43.4629C251.458 47.0566 247.572 48.8535 241.837 48.8535C236.102 48.8535 232.209 47.0566 230.157 43.4629C229.064 41.5013 228.518 38.7611 228.518 35.2422V14.8926H235.548V35.2422C235.548 37.5182 235.817 39.1803 236.356 40.2285C237.195 42.0853 239.022 43.0137 241.837 43.0137C244.637 43.0137 246.456 42.0853 247.295 40.2285C247.834 39.1803 248.104 37.5182 248.104 35.2422ZM281.144 41.1943H268.947L266.656 48H259.424L271.238 14.8926H279.055L290.779 48H283.277L281.144 41.1943ZM279.212 35.4893L275.079 22.4619L270.812 35.4893H279.212ZM295.002 14.8926H301.92V42.0479H318.316V48H295.002V14.8926ZM322.584 14.8926H329.457V48H322.584V14.8926ZM359.353 48H333.59V42.1602L350.683 20.7549H334.017V14.8926H359.308V20.4404L341.99 42.1602H359.353V48ZM383.431 41.1943H371.234L368.943 48H361.711L373.525 14.8926H381.342L393.066 48H385.564L383.431 41.1943ZM381.499 35.4893L377.366 22.4619L373.099 35.4893H381.499ZM417.931 14.8926V20.7549H408.025V48H401.062V20.7549H391.112V14.8926H417.931ZM421.457 14.8926H428.33V48H421.457V14.8926ZM449.443 48.9209C444.712 48.9209 441.095 47.6331 438.595 45.0576C435.241 41.8981 433.563 37.346 433.563 31.4014C433.563 25.3369 435.241 20.7848 438.595 17.7451C441.095 15.1696 444.712 13.8818 449.443 13.8818C454.175 13.8818 457.791 15.1696 460.292 17.7451C463.631 20.7848 465.301 25.3369 465.301 31.4014C465.301 37.346 463.631 41.8981 460.292 45.0576C457.791 47.6331 454.175 48.9209 449.443 48.9209ZM455.979 40.0264C457.582 38.0049 458.383 35.1299 458.383 31.4014C458.383 27.6878 457.574 24.8203 455.957 22.7988C454.355 20.7624 452.184 19.7441 449.443 19.7441C446.703 19.7441 444.517 20.7549 442.885 22.7764C441.253 24.7979 440.437 27.6729 440.437 31.4014C440.437 35.1299 441.253 38.0049 442.885 40.0264C444.517 42.0479 446.703 43.0586 449.443 43.0586C452.184 43.0586 454.362 42.0479 455.979 40.0264ZM497.375 48H490.457L476.936 24.4834V48H470.489V14.8926H477.744L490.929 38.0049V14.8926H497.375V48ZM13.1846 108.809C9.8304 108.809 7.20996 107.82 5.32324 105.844C3.43652 103.867 2.49316 101.674 2.49316 99.2627C2.49316 97.2712 2.9873 95.5641 3.97559 94.1416C4.96387 92.7191 6.58105 91.3115 8.82715 89.9189L9.52344 89.4922C8.5651 88.4141 7.82389 87.3135 7.2998 86.1904C6.77572 85.0674 6.51367 83.8994 6.51367 82.6865C6.51367 80.2757 7.32227 78.3965 8.93945 77.0488C10.5566 75.6862 12.653 75.0049 15.2285 75.0049C17.5794 75.0049 19.5186 75.7012 21.0459 77.0938C22.5882 78.4714 23.3594 80.2383 23.3594 82.3945C23.3594 84.3411 22.8952 85.9209 21.9668 87.1338C21.0534 88.3467 19.7057 89.4697 17.9238 90.5029L22.6182 96.2979C23.1572 95.5192 23.569 94.6732 23.8535 93.7598C24.153 92.8464 24.3102 91.8805 24.3252 90.8623H30.0078C29.918 92.8688 29.4388 94.8978 28.5703 96.9492C28.0911 98.1022 27.3125 99.375 26.2344 100.768L32.2539 108H24.4824L22.1914 105.192C21.0833 106.226 20.0501 106.989 19.0918 107.483C17.3848 108.367 15.4157 108.809 13.1846 108.809ZM12.8252 93.5801C11.223 94.6432 10.1598 95.5791 9.63574 96.3877C9.12663 97.1963 8.87207 98.0872 8.87207 99.0605C8.87207 100.154 9.3138 101.157 10.1973 102.07C11.0957 102.984 12.2412 103.44 13.6338 103.44C14.682 103.44 15.6702 103.201 16.5986 102.722C17.542 102.228 18.3057 101.681 18.8896 101.082L12.8252 93.5801ZM12.3984 82.4619C12.3984 83.0609 12.6081 83.6898 13.0273 84.3486C13.2969 84.7829 13.8809 85.554 14.7793 86.6621C15.6777 86.0332 16.3216 85.5016 16.7109 85.0674C17.4596 84.2588 17.834 83.3828 17.834 82.4395C17.834 81.7507 17.6094 81.1367 17.1602 80.5977C16.7109 80.0586 16.0296 79.7891 15.1162 79.7891C14.5472 79.7891 14.0156 79.9463 13.5215 80.2607C12.7728 80.7249 12.3984 81.4587 12.3984 82.4619ZM63.8115 108H49.5488V74.8926H63.8115C65.863 74.9225 67.57 75.1621 68.9326 75.6113C71.2536 76.375 73.1328 77.7751 74.5703 79.8115C75.7233 81.4587 76.5094 83.2406 76.9287 85.1572C77.348 87.0739 77.5576 88.9007 77.5576 90.6377C77.5576 95.04 76.6742 98.7686 74.9072 101.823C72.5114 105.941 68.8128 108 63.8115 108ZM68.9551 83.3379C67.8919 81.541 65.7881 80.6426 62.6436 80.6426H56.2646V102.25H62.6436C65.9079 102.25 68.1839 100.64 69.4717 97.4209C70.1755 95.654 70.5273 93.5501 70.5273 91.1094C70.5273 87.7402 70.0033 85.1497 68.9551 83.3379ZM105.836 93.5352H89.7539V102.048H108.082V108H82.9932V74.8926H107.273V80.7549H89.7539V87.7852H105.836V93.5352ZM125.489 103.216C127.121 103.216 128.447 103.036 129.465 102.677C131.396 101.988 132.362 100.708 132.362 98.8359C132.362 97.7428 131.883 96.8968 130.925 96.2979C129.966 95.7139 128.462 95.1973 126.41 94.748L122.906 93.9619C119.462 93.1833 117.081 92.3372 115.764 91.4238C113.533 89.8965 112.417 87.5081 112.417 84.2588C112.417 81.2939 113.495 78.8307 115.651 76.8691C117.808 74.9076 120.975 73.9268 125.152 73.9268C128.641 73.9268 131.614 74.8551 134.069 76.7119C136.54 78.5537 137.835 81.234 137.955 84.7529H131.307C131.187 82.7614 130.318 81.3464 128.701 80.5078C127.623 79.9538 126.283 79.6768 124.681 79.6768C122.899 79.6768 121.476 80.0361 120.413 80.7549C119.35 81.4736 118.818 82.4769 118.818 83.7646C118.818 84.9476 119.342 85.8311 120.391 86.415C121.064 86.8044 122.502 87.2611 124.703 87.7852L130.408 89.1553C132.909 89.7542 134.796 90.5553 136.068 91.5586C138.045 93.1159 139.033 95.3695 139.033 98.3193C139.033 101.344 137.873 103.86 135.552 105.866C133.246 107.858 129.981 108.854 125.759 108.854C121.446 108.854 118.055 107.873 115.584 105.911C113.113 103.935 111.878 101.224 111.878 97.7803H118.481C118.691 99.2926 119.103 100.423 119.717 101.172C120.84 102.535 122.764 103.216 125.489 103.216ZM143.615 74.8926H150.488V108H143.615V74.8926ZM177.262 107.191C175.435 108.314 173.189 108.876 170.523 108.876C166.136 108.876 162.542 107.356 159.742 104.316C156.822 101.262 155.362 97.084 155.362 91.7832C155.362 86.4225 156.837 82.125 159.787 78.8906C162.737 75.6562 166.638 74.0391 171.489 74.0391C175.697 74.0391 179.074 75.1097 181.619 77.251C184.18 79.3773 185.647 82.0352 186.021 85.2246H179.216C178.692 82.9635 177.411 81.3838 175.375 80.4854C174.237 79.9912 172.972 79.7441 171.579 79.7441C168.914 79.7441 166.72 80.7549 164.998 82.7764C163.291 84.7829 162.438 87.8076 162.438 91.8506C162.438 95.9235 163.366 98.806 165.223 100.498C167.079 102.19 169.191 103.036 171.557 103.036C173.878 103.036 175.779 102.37 177.262 101.037C178.744 99.6895 179.658 97.93 180.002 95.7588H172.343V90.2334H186.134V108H181.552L180.855 103.867C179.523 105.439 178.325 106.548 177.262 107.191ZM219.533 108H212.615L199.094 84.4834V108H192.647V74.8926H199.902L213.087 98.0049V74.8926H219.533V108Z" fill="#FFC900"/>
</svg>
