<svg width="1227" height="30" viewBox="0 0 1227 30" fill="none" xmlns="http://www.w3.org/2000/svg">
<path d="M3.42188 21H1.17969V9.48438H4.67969L6.77344 18.5391L8.85156 9.48438H12.3125V21H10.0703V13.2109C10.0703 12.987 10.0729 12.6745 10.0781 12.2734C10.0833 11.8672 10.0859 11.5547 10.0859 11.3359L7.90625 21H5.57031L3.40625 11.3359C3.40625 11.5547 3.40885 11.8672 3.41406 12.2734C3.41927 12.6745 3.42188 12.987 3.42188 13.2109V21ZM19.6406 21.3203C17.9948 21.3203 16.737 20.8724 15.8672 19.9766C14.7005 18.8776 14.1172 17.2943 14.1172 15.2266C14.1172 13.1172 14.7005 11.5339 15.8672 10.4766C16.737 9.58073 17.9948 9.13281 19.6406 9.13281C21.2865 9.13281 22.5443 9.58073 23.4141 10.4766C24.5755 11.5339 25.1562 13.1172 25.1562 15.2266C25.1562 17.2943 24.5755 18.8776 23.4141 19.9766C22.5443 20.8724 21.2865 21.3203 19.6406 21.3203ZM21.9141 18.2266C22.4714 17.5234 22.75 16.5234 22.75 15.2266C22.75 13.9349 22.4688 12.9375 21.9062 12.2344C21.349 11.526 20.5938 11.1719 19.6406 11.1719C18.6875 11.1719 17.9271 11.5234 17.3594 12.2266C16.7917 12.9297 16.5078 13.9297 16.5078 15.2266C16.5078 16.5234 16.7917 17.5234 17.3594 18.2266C17.9271 18.9297 18.6875 19.2812 19.6406 19.2812C20.5938 19.2812 21.3516 18.9297 21.9141 18.2266ZM18.6406 5.875H20.6406L22.4688 8.21094H20.6562L19.6406 6.89844L18.6172 8.21094H16.8047L18.6406 5.875ZM38.3203 21V15.8594H33.8203V21H31.4375V9.48438H33.8203V13.875H38.3203V9.48438H40.7109V21H38.3203ZM42.8281 9.48438H45.2188V21H42.8281V9.48438ZM41.4062 6H43.8828L45.3828 8.33594H43.7734L41.4062 6ZM56.7812 21H54.375L49.6719 12.8203V21H47.4297V9.48438H49.9531L54.5391 17.5234V9.48438H56.7812V21ZM65.8984 21V15.8594H61.3984V21H59.0156V9.48438H61.3984V13.875H65.8984V9.48438H68.2891V21H65.8984ZM83.4141 9.48438V11.5234H79.9688V21H77.5469V11.5234H74.0859V9.48438H83.4141ZM89.9219 21.3203C88.276 21.3203 87.0182 20.8724 86.1484 19.9766C84.9818 18.8776 84.3984 17.2943 84.3984 15.2266C84.3984 13.1172 84.9818 11.5339 86.1484 10.4766C87.0182 9.58073 88.276 9.13281 89.9219 9.13281C91.5677 9.13281 92.8255 9.58073 93.6953 10.4766C94.8568 11.5339 95.4375 13.1172 95.4375 15.2266C95.4375 17.2943 94.8568 18.8776 93.6953 19.9766C92.8255 20.8724 91.5677 21.3203 89.9219 21.3203ZM92.1953 18.2266C92.7526 17.5234 93.0312 16.5234 93.0312 15.2266C93.0312 13.9349 92.75 12.9375 92.1875 12.2344C91.6302 11.526 90.875 11.1719 89.9219 11.1719C88.9688 11.1719 88.2083 11.5234 87.6406 12.2266C87.0729 12.9297 86.7891 13.9297 86.7891 15.2266C86.7891 16.5234 87.0729 17.5234 87.6406 18.2266C88.2083 18.9297 88.9688 19.2812 89.9219 19.2812C90.875 19.2812 91.6328 18.9297 92.1953 18.2266ZM88.9375 5.84375H90.9375L92.7656 8.17969H90.9531L89.9375 6.86719L88.9141 8.17969H87.1016L88.9375 5.84375ZM93.2578 6.44531C93.1276 6.51823 92.9635 6.57552 92.7656 6.61719L92.6562 6.96094H91.5781L91.6328 6.36719C92.0651 6.33594 92.3411 6.2474 92.4609 6.10156C92.5859 5.95573 92.6484 5.79688 92.6484 5.625C92.6484 5.53646 92.6302 5.45312 92.5938 5.375C92.5573 5.29167 92.5 5.21615 92.4219 5.14844C92.3646 5.10156 92.3073 5.06771 92.25 5.04688C92.1927 5.02083 92.0807 5.00521 91.9141 5L91.5 4.99219L91.4688 4.375C91.5833 4.35938 91.7083 4.34635 91.8438 4.33594C91.9844 4.32552 92.1068 4.32031 92.2109 4.32031C92.4766 4.32031 92.7344 4.36458 92.9844 4.45312C93.2344 4.53646 93.4453 4.70052 93.6172 4.94531C93.6641 5.01302 93.7031 5.10156 93.7344 5.21094C93.7708 5.32031 93.7891 5.4375 93.7891 5.5625C93.7891 5.66667 93.7734 5.77344 93.7422 5.88281C93.7109 5.99219 93.6562 6.09635 93.5781 6.19531C93.5 6.28906 93.3932 6.3724 93.2578 6.44531ZM106.594 21H104.188L99.4844 12.8203V21H97.2422V9.48438H99.7656L104.352 17.5234V9.48438H106.594V21ZM115.906 20.7188C115.271 21.1094 114.49 21.3047 113.562 21.3047C112.036 21.3047 110.786 20.776 109.812 19.7188C108.797 18.6562 108.289 17.2031 108.289 15.3594C108.289 13.4948 108.802 12 109.828 10.875C110.854 9.75 112.211 9.1875 113.898 9.1875C115.362 9.1875 116.536 9.5599 117.422 10.3047C118.312 11.0443 118.823 11.9688 118.953 13.0781H116.586C116.404 12.2917 115.958 11.7422 115.25 11.4297C114.854 11.2578 114.414 11.1719 113.93 11.1719C113.003 11.1719 112.24 11.5234 111.641 12.2266C111.047 12.9245 110.75 13.9766 110.75 15.3828C110.75 16.7995 111.073 17.8021 111.719 18.3906C112.365 18.9792 113.099 19.2734 113.922 19.2734C114.729 19.2734 115.391 19.0417 115.906 18.5781C116.422 18.1094 116.74 17.4974 116.859 16.7422H114.195V14.8203H118.992V21H117.398L117.156 19.5625C116.693 20.1094 116.276 20.4948 115.906 20.7188ZM132.672 21.0625C132.156 21.2344 131.539 21.3203 130.82 21.3203C129.32 21.3203 128.081 20.8724 127.102 19.9766C125.914 18.8984 125.32 17.3151 125.32 15.2266C125.32 13.1224 125.93 11.5312 127.148 10.4531C128.143 9.57292 129.38 9.13281 130.859 9.13281C132.349 9.13281 133.599 9.59896 134.609 10.5312C135.776 11.6094 136.359 13.1172 136.359 15.0547C136.359 16.0807 136.234 16.9401 135.984 17.6328C135.781 18.2943 135.482 18.8438 135.086 19.2812L136.414 20.5234L135.156 21.8359L133.766 20.5234C133.344 20.7786 132.979 20.9583 132.672 21.0625ZM132.156 18.9844L130.992 17.875L132.234 16.5781L133.398 17.6875C133.581 17.3125 133.708 16.9844 133.781 16.7031C133.896 16.2812 133.953 15.7891 133.953 15.2266C133.953 13.9349 133.688 12.9375 133.156 12.2344C132.63 11.526 131.859 11.1719 130.844 11.1719C129.891 11.1719 129.13 11.5104 128.562 12.1875C127.995 12.8646 127.711 13.8776 127.711 15.2266C127.711 16.8047 128.117 17.9349 128.93 18.6172C129.456 19.0599 130.086 19.2812 130.82 19.2812C131.096 19.2812 131.362 19.2474 131.617 19.1797C131.758 19.1432 131.938 19.0781 132.156 18.9844ZM145.016 16.5625V9.48438H147.461V16.5625C147.461 17.7865 147.271 18.7396 146.891 19.4219C146.182 20.6719 144.831 21.2969 142.836 21.2969C140.841 21.2969 139.487 20.6719 138.773 19.4219C138.393 18.7396 138.203 17.7865 138.203 16.5625V9.48438H140.648V16.5625C140.648 17.3542 140.742 17.9323 140.93 18.2969C141.221 18.9427 141.857 19.2656 142.836 19.2656C143.81 19.2656 144.443 18.9427 144.734 18.2969C144.922 17.9323 145.016 17.3542 145.016 16.5625ZM156.508 18.6328H152.266L151.469 21H148.953L153.062 9.48438H155.781L159.859 21H157.25L156.508 18.6328ZM155.836 16.6484L154.398 12.1172L152.914 16.6484H155.836ZM170.641 21H168.234L163.531 12.8203V21H161.289V9.48438H163.812L168.398 17.5234V9.48438H170.641V21ZM185.711 9.48438V11.5234H182.266V21H179.844V11.5234H176.383V9.48438H185.711ZM186.938 9.48438H189.328V21H186.938V9.48438ZM186.828 8.33594L188.328 6H190.812L188.438 8.33594H186.828ZM200.891 21H198.484L193.781 12.8203V21H191.539V9.48438H194.062L198.648 17.5234V9.48438H200.891V21ZM210.008 21V15.8594H205.508V21H203.125V9.48438H205.508V13.875H210.008V9.48438H212.398V21H210.008ZM228.469 21H226.062L221.359 12.8203V21H219.117V9.48438H221.641L226.227 17.5234V9.48438H228.469V21ZM237.461 18.6328H233.219L232.422 21H229.906L234.016 9.48438H236.734L240.812 21H238.203L237.461 18.6328ZM236.789 16.6484L235.352 12.1172L233.867 16.6484H236.789ZM237.383 7.73438C236.919 8.11458 236.286 8.30469 235.484 8.30469C234.682 8.30469 234.049 8.11719 233.586 7.74219C233.122 7.36198 232.857 6.77344 232.789 5.97656H233.844C233.917 6.45573 234.167 6.78125 234.594 6.95312C234.833 7.05208 235.13 7.10156 235.484 7.10156C235.839 7.10156 236.135 7.05208 236.375 6.95312C236.802 6.78125 237.052 6.45573 237.125 5.97656H238.18C238.112 6.77344 237.846 7.35938 237.383 7.73438ZM251.594 21H249.188L244.484 12.8203V21H242.242V9.48438H244.766L249.352 17.5234V9.48438H251.594V21ZM260.906 20.7188C260.271 21.1094 259.49 21.3047 258.562 21.3047C257.036 21.3047 255.786 20.776 254.812 19.7188C253.797 18.6562 253.289 17.2031 253.289 15.3594C253.289 13.4948 253.802 12 254.828 10.875C255.854 9.75 257.211 9.1875 258.898 9.1875C260.362 9.1875 261.536 9.5599 262.422 10.3047C263.312 11.0443 263.823 11.9688 263.953 13.0781H261.586C261.404 12.2917 260.958 11.7422 260.25 11.4297C259.854 11.2578 259.414 11.1719 258.93 11.1719C258.003 11.1719 257.24 11.5234 256.641 12.2266C256.047 12.9245 255.75 13.9766 255.75 15.3828C255.75 16.7995 256.073 17.8021 256.719 18.3906C257.365 18.9792 258.099 19.2734 258.922 19.2734C259.729 19.2734 260.391 19.0417 260.906 18.5781C261.422 18.1094 261.74 17.4974 261.859 16.7422H259.195V14.8203H263.992V21H262.398L262.156 19.5625C261.693 20.1094 261.276 20.4948 260.906 20.7188ZM272.953 21H270.711V9.48438H274.211L276.305 18.5391L278.383 9.48438H281.844V21H279.602V13.2109C279.602 12.987 279.604 12.6745 279.609 12.2734C279.615 11.8672 279.617 11.5547 279.617 11.3359L277.438 21H275.102L272.938 11.3359C272.938 11.5547 272.94 11.8672 272.945 12.2734C272.951 12.6745 272.953 12.987 272.953 13.2109V21ZM293.797 11.5156L293.852 11.5234C294.211 11.5599 294.628 11.4609 295.102 11.2266L294.422 10.0547L296.438 8.89062L297.641 10.9766L295.898 11.9844C295.591 12.1615 295.247 12.3073 294.867 12.4219C294.664 12.4792 294.464 12.5104 294.266 12.5156C294.547 13.2969 294.688 14.2005 294.688 15.2266C294.688 17.2943 294.107 18.8776 292.945 19.9766C292.076 20.8724 290.818 21.3203 289.172 21.3203C287.526 21.3203 286.268 20.8724 285.398 19.9766C284.232 18.8776 283.648 17.2943 283.648 15.2266C283.648 13.1172 284.232 11.5339 285.398 10.4766C286.268 9.58073 287.526 9.13281 289.172 9.13281C290.818 9.13281 292.076 9.58073 292.945 10.4766C293.279 10.7786 293.562 11.125 293.797 11.5156ZM286.039 15.2266C286.039 16.5234 286.323 17.5234 286.891 18.2266C287.458 18.9297 288.219 19.2812 289.172 19.2812C290.125 19.2812 290.88 18.9297 291.438 18.2266C292 17.5234 292.281 16.5234 292.281 15.2266C292.281 13.9349 292 12.9375 291.438 12.2344C290.88 11.526 290.125 11.1719 289.172 11.1719C288.219 11.1719 287.458 11.5234 286.891 12.2266C286.323 12.9297 286.039 13.9297 286.039 15.2266ZM287.836 8.15625L289.336 5.82031H291.82L289.445 8.15625H287.836ZM299.031 9.48438H301.422V21H299.031V9.48438ZM312.922 21H308.125V15.8594H307.047V13.8594H308.125V9.5H312.938C313.828 9.5 314.586 9.63542 315.211 9.90625C315.841 10.1719 316.385 10.6224 316.844 11.2578C317.193 11.7422 317.451 12.2943 317.617 12.9141C317.784 13.5339 317.867 14.2188 317.867 14.9688C317.867 16.3542 317.609 17.5521 317.094 18.5625C316.266 20.1875 314.875 21 312.922 21ZM312.234 11.4844H310.461V13.8594H312.883V15.8594H310.461V19H312.125C312.776 19 313.242 18.9583 313.523 18.875C313.987 18.7448 314.372 18.4609 314.68 18.0234C314.961 17.6224 315.154 17.1484 315.258 16.6016C315.367 16.0495 315.422 15.5599 315.422 15.1328C315.422 13.5495 315.031 12.4844 314.25 11.9375C313.812 11.6354 313.141 11.4844 312.234 11.4844ZM328.945 12.4766V16.5625C328.945 17.7865 328.755 18.7396 328.375 19.4219C327.667 20.6719 326.315 21.2969 324.32 21.2969C322.326 21.2969 320.971 20.6719 320.258 19.4219C319.878 18.7396 319.688 17.7865 319.688 16.5625V9.48438H322.133V16.5625C322.133 17.3542 322.227 17.9323 322.414 18.2969C322.706 18.9427 323.341 19.2656 324.32 19.2656C325.294 19.2656 325.927 18.9427 326.219 18.2969C326.406 17.9323 326.5 17.3542 326.5 16.5625V9.48438H328.945V11.5234H328.992C329.352 11.5599 329.768 11.4609 330.242 11.2266L329.562 10.0547L331.578 8.89062L332.781 10.9766L331.039 11.9844C330.732 12.1615 330.388 12.3073 330.008 12.4219C329.648 12.526 329.294 12.5443 328.945 12.4766ZM344.094 11.5156L344.148 11.5234C344.508 11.5599 344.924 11.4609 345.398 11.2266L344.719 10.0547L346.734 8.89062L347.938 10.9766L346.195 11.9844C345.888 12.1615 345.544 12.3073 345.164 12.4219C344.961 12.4792 344.76 12.5104 344.562 12.5156C344.844 13.2969 344.984 14.2005 344.984 15.2266C344.984 17.2943 344.404 18.8776 343.242 19.9766C342.372 20.8724 341.115 21.3203 339.469 21.3203C337.823 21.3203 336.565 20.8724 335.695 19.9766C334.529 18.8776 333.945 17.2943 333.945 15.2266C333.945 13.1172 334.529 11.5339 335.695 10.4766C336.565 9.58073 337.823 9.13281 339.469 9.13281C341.115 9.13281 342.372 9.58073 343.242 10.4766C343.576 10.7786 343.859 11.125 344.094 11.5156ZM336.336 15.2266C336.336 16.5234 336.62 17.5234 337.188 18.2266C337.755 18.9297 338.516 19.2812 339.469 19.2812C340.422 19.2812 341.177 18.9297 341.734 18.2266C342.297 17.5234 342.578 16.5234 342.578 15.2266C342.578 13.9349 342.297 12.9375 341.734 12.2344C341.177 11.526 340.422 11.1719 339.469 11.1719C338.516 11.1719 337.755 11.5234 337.188 12.2266C336.62 12.9297 336.336 13.9297 336.336 15.2266ZM338.68 22.2734H340.711V24.125H338.68V22.2734ZM357.641 20.1406C356.781 20.9271 355.682 21.3203 354.344 21.3203C352.688 21.3203 351.385 20.7891 350.438 19.7266C349.49 18.6589 349.016 17.1953 349.016 15.3359C349.016 13.3255 349.555 11.776 350.633 10.6875C351.57 9.73958 352.763 9.26562 354.211 9.26562C356.148 9.26562 357.565 9.90104 358.461 11.1719C358.956 11.8854 359.221 12.6016 359.258 13.3203H356.852C356.695 12.7682 356.495 12.3516 356.25 12.0703C355.812 11.5703 355.164 11.3203 354.305 11.3203C353.43 11.3203 352.74 11.6745 352.234 12.3828C351.729 13.0859 351.477 14.0833 351.477 15.375C351.477 16.6667 351.742 17.6354 352.273 18.2812C352.81 18.9219 353.49 19.2422 354.312 19.2422C355.156 19.2422 355.799 18.9661 356.242 18.4141C356.487 18.1172 356.69 17.6719 356.852 17.0781H359.234C359.026 18.3333 358.495 19.3542 357.641 20.1406ZM370.422 16.8594H367.977V21H365.586V9.48438H370.602C371.758 9.48438 372.68 9.78125 373.367 10.375C374.055 10.9688 374.398 11.888 374.398 13.1328C374.398 14.4922 374.055 15.4531 373.367 16.0156C372.68 16.5781 371.698 16.8594 370.422 16.8594ZM371.547 14.4609C371.859 14.1849 372.016 13.7474 372.016 13.1484C372.016 12.5495 371.857 12.1224 371.539 11.8672C371.227 11.612 370.786 11.4844 370.219 11.4844H367.977V14.875H370.219C370.786 14.875 371.229 14.737 371.547 14.4609ZM383.07 21V15.8594H378.57V21H376.188V9.48438H378.57V13.875H383.07V9.48438H385.461V21H383.07ZM394.508 18.6328H390.266L389.469 21H386.953L391.062 9.48438H393.781L397.859 21H395.25L394.508 18.6328ZM393.836 16.6484L392.398 12.1172L390.914 16.6484H393.836ZM391.086 8.5625L392.586 6.22656H395.07L392.695 8.5625H391.086ZM407.695 9.48438V11.5234H404.25V21H401.828V11.5234H398.367V9.48438H407.695ZM421.93 9.48438V11.5234H418.484V21H416.062V11.5234H412.602V9.48438H421.93ZM428.234 16.4844H425.75V21H423.398V9.48438H429.047C429.854 9.5 430.474 9.59896 430.906 9.78125C431.344 9.96354 431.714 10.2318 432.016 10.5859C432.266 10.8776 432.464 11.2005 432.609 11.5547C432.755 11.9089 432.828 12.3125 432.828 12.7656C432.828 13.3125 432.69 13.8516 432.414 14.3828C432.138 14.9089 431.682 15.2812 431.047 15.5C431.578 15.7135 431.953 16.0182 432.172 16.4141C432.396 16.8047 432.508 17.4036 432.508 18.2109V18.9844C432.508 19.5104 432.529 19.8672 432.57 20.0547C432.633 20.3516 432.779 20.5703 433.008 20.7109V21H430.359C430.286 20.7448 430.234 20.5391 430.203 20.3828C430.141 20.0599 430.107 19.7292 430.102 19.3906L430.086 18.3203C430.076 17.5859 429.94 17.0964 429.68 16.8516C429.424 16.6068 428.943 16.4844 428.234 16.4844ZM429.695 14.3906C430.174 14.1719 430.414 13.7396 430.414 13.0938C430.414 12.3958 430.182 11.9271 429.719 11.6875C429.458 11.5521 429.068 11.4844 428.547 11.4844H425.75V14.5781H428.477C429.018 14.5781 429.424 14.5156 429.695 14.3906ZM434.719 9.48438H437.109V21H434.719V9.48438ZM447.375 15.9688H441.781V18.9297H448.156V21H439.43V9.48438H447.875V11.5234H441.781V13.9688H447.375V15.9688ZM442.938 6.09375H444.938L446.766 8.42969H444.953L443.938 7.11719L442.914 8.42969H441.102L442.938 6.09375ZM447.602 6.16406C447.471 6.23698 447.307 6.29427 447.109 6.33594L447 6.67969H445.922L445.977 6.08594C446.409 6.05469 446.685 5.96615 446.805 5.82031C446.93 5.67448 446.992 5.51562 446.992 5.34375C446.992 5.25521 446.974 5.17188 446.938 5.09375C446.901 5.01042 446.844 4.9349 446.766 4.86719C446.708 4.82031 446.651 4.78646 446.594 4.76562C446.536 4.73958 446.424 4.72396 446.258 4.71875L445.844 4.71094L445.812 4.09375C445.927 4.07812 446.052 4.0651 446.188 4.05469C446.328 4.04427 446.451 4.03906 446.555 4.03906C446.82 4.03906 447.078 4.08333 447.328 4.17188C447.578 4.25521 447.789 4.41927 447.961 4.66406C448.008 4.73177 448.047 4.82031 448.078 4.92969C448.115 5.03906 448.133 5.15625 448.133 5.28125C448.133 5.38542 448.117 5.49219 448.086 5.60156C448.055 5.71094 448 5.8151 447.922 5.91406C447.844 6.00781 447.737 6.09115 447.602 6.16406ZM459.344 21H456.938L452.234 12.8203V21H449.992V9.48438H452.516L457.102 17.5234V9.48438H459.344V21Z" fill="#303E45"/>
</svg>
