<svg width="1227" height="30" viewBox="0 0 1227 30" fill="none" xmlns="http://www.w3.org/2000/svg">
<path d="M8.14062 21.0625C7.625 21.2344 7.00781 21.3203 6.28906 21.3203C4.78906 21.3203 3.54948 20.8724 2.57031 19.9766C1.38281 18.8984 0.789062 17.3151 0.789062 15.2266C0.789062 13.1224 1.39844 11.5312 2.61719 10.4531C3.61198 9.57292 4.84896 9.13281 6.32812 9.13281C7.81771 9.13281 9.06771 9.59896 10.0781 10.5312C11.2448 11.6094 11.8281 13.1172 11.8281 15.0547C11.8281 16.0807 11.7031 16.9401 11.4531 17.6328C11.25 18.2943 10.9505 18.8438 10.5547 19.2812L11.8828 20.5234L10.625 21.8359L9.23438 20.5234C8.8125 20.7786 8.44792 20.9583 8.14062 21.0625ZM7.625 18.9844L6.46094 17.875L7.70312 16.5781L8.86719 17.6875C9.04948 17.3125 9.17708 16.9844 9.25 16.7031C9.36458 16.2812 9.42188 15.7891 9.42188 15.2266C9.42188 13.9349 9.15625 12.9375 8.625 12.2344C8.09896 11.526 7.32812 11.1719 6.3125 11.1719C5.35938 11.1719 4.59896 11.5104 4.03125 12.1875C3.46354 12.8646 3.17969 13.8776 3.17969 15.2266C3.17969 16.8047 3.58594 17.9349 4.39844 18.6172C4.92448 19.0599 5.55469 19.2812 6.28906 19.2812C6.5651 19.2812 6.83073 19.2474 7.08594 19.1797C7.22656 19.1432 7.40625 19.0781 7.625 18.9844ZM20.4844 16.5625V9.48438H22.9297V16.5625C22.9297 17.7865 22.7396 18.7396 22.3594 19.4219C21.651 20.6719 20.2995 21.2969 18.3047 21.2969C16.3099 21.2969 14.9557 20.6719 14.2422 19.4219C13.862 18.7396 13.6719 17.7865 13.6719 16.5625V9.48438H16.1172V16.5625C16.1172 17.3542 16.2109 17.9323 16.3984 18.2969C16.6901 18.9427 17.3255 19.2656 18.3047 19.2656C19.2786 19.2656 19.9115 18.9427 20.2031 18.2969C20.3906 17.9323 20.4844 17.3542 20.4844 16.5625ZM34.5312 9.48438L30.6797 16.6719V21H28.2734V16.6719L24.2891 9.48438H27.125L29.5156 14.5L31.8047 9.48438H34.5312ZM48.4453 9.48438V11.5234H45V21H42.5781V11.5234H39.1172V9.48438H48.4453ZM54.75 16.4844H52.2656V21H49.9141V9.48438H55.5625C56.3698 9.5 56.9896 9.59896 57.4219 9.78125C57.8594 9.96354 58.2292 10.2318 58.5312 10.5859C58.7812 10.8776 58.9792 11.2005 59.125 11.5547C59.2708 11.9089 59.3438 12.3125 59.3438 12.7656C59.3438 13.3125 59.2057 13.8516 58.9297 14.3828C58.6536 14.9089 58.1979 15.2812 57.5625 15.5C58.0938 15.7135 58.4688 16.0182 58.6875 16.4141C58.9115 16.8047 59.0234 17.4036 59.0234 18.2109V18.9844C59.0234 19.5104 59.0443 19.8672 59.0859 20.0547C59.1484 20.3516 59.2943 20.5703 59.5234 20.7109V21H56.875C56.8021 20.7448 56.75 20.5391 56.7188 20.3828C56.6562 20.0599 56.6224 19.7292 56.6172 19.3906L56.6016 18.3203C56.5911 17.5859 56.4557 17.0964 56.1953 16.8516C55.9401 16.6068 55.4583 16.4844 54.75 16.4844ZM56.2109 14.3906C56.6901 14.1719 56.9297 13.7396 56.9297 13.0938C56.9297 12.3958 56.6979 11.9271 56.2344 11.6875C55.974 11.5521 55.5833 11.4844 55.0625 11.4844H52.2656V14.5781H54.9922C55.5339 14.5781 55.9401 14.5156 56.2109 14.3906ZM61.2344 9.48438H63.625V21H61.2344V9.48438ZM59.8125 6H62.2891L63.7891 8.33594H62.1797L59.8125 6ZM75.1875 21H72.7812L68.0781 12.8203V21H65.8359V9.48438H68.3594L72.9453 17.5234V9.48438H75.1875V21ZM84.3047 21V15.8594H79.8047V21H77.4219V9.48438H79.8047V13.875H84.3047V9.48438H86.6953V21H84.3047ZM101.82 9.48438V11.5234H98.375V21H95.9531V11.5234H92.4922V9.48438H101.82ZM108.328 21.3203C106.682 21.3203 105.424 20.8724 104.555 19.9766C103.388 18.8776 102.805 17.2943 102.805 15.2266C102.805 13.1172 103.388 11.5339 104.555 10.4766C105.424 9.58073 106.682 9.13281 108.328 9.13281C109.974 9.13281 111.232 9.58073 112.102 10.4766C113.263 11.5339 113.844 13.1172 113.844 15.2266C113.844 17.2943 113.263 18.8776 112.102 19.9766C111.232 20.8724 109.974 21.3203 108.328 21.3203ZM110.602 18.2266C111.159 17.5234 111.438 16.5234 111.438 15.2266C111.438 13.9349 111.156 12.9375 110.594 12.2344C110.036 11.526 109.281 11.1719 108.328 11.1719C107.375 11.1719 106.615 11.5234 106.047 12.2266C105.479 12.9297 105.195 13.9297 105.195 15.2266C105.195 16.5234 105.479 17.5234 106.047 18.2266C106.615 18.9297 107.375 19.2812 108.328 19.2812C109.281 19.2812 110.039 18.9297 110.602 18.2266ZM107.344 5.84375H109.344L111.172 8.17969H109.359L108.344 6.86719L107.32 8.17969H105.508L107.344 5.84375ZM111.664 6.44531C111.534 6.51823 111.37 6.57552 111.172 6.61719L111.062 6.96094H109.984L110.039 6.36719C110.471 6.33594 110.747 6.2474 110.867 6.10156C110.992 5.95573 111.055 5.79688 111.055 5.625C111.055 5.53646 111.036 5.45312 111 5.375C110.964 5.29167 110.906 5.21615 110.828 5.14844C110.771 5.10156 110.714 5.06771 110.656 5.04688C110.599 5.02083 110.487 5.00521 110.32 5L109.906 4.99219L109.875 4.375C109.99 4.35938 110.115 4.34635 110.25 4.33594C110.391 4.32552 110.513 4.32031 110.617 4.32031C110.883 4.32031 111.141 4.36458 111.391 4.45312C111.641 4.53646 111.852 4.70052 112.023 4.94531C112.07 5.01302 112.109 5.10156 112.141 5.21094C112.177 5.32031 112.195 5.4375 112.195 5.5625C112.195 5.66667 112.18 5.77344 112.148 5.88281C112.117 5.99219 112.062 6.09635 111.984 6.19531C111.906 6.28906 111.799 6.3724 111.664 6.44531ZM125 21H122.594L117.891 12.8203V21H115.648V9.48438H118.172L122.758 17.5234V9.48438H125V21ZM134.312 20.7188C133.677 21.1094 132.896 21.3047 131.969 21.3047C130.443 21.3047 129.193 20.776 128.219 19.7188C127.203 18.6562 126.695 17.2031 126.695 15.3594C126.695 13.4948 127.208 12 128.234 10.875C129.26 9.75 130.617 9.1875 132.305 9.1875C133.768 9.1875 134.943 9.5599 135.828 10.3047C136.719 11.0443 137.229 11.9688 137.359 13.0781H134.992C134.81 12.2917 134.365 11.7422 133.656 11.4297C133.26 11.2578 132.82 11.1719 132.336 11.1719C131.409 11.1719 130.646 11.5234 130.047 12.2266C129.453 12.9245 129.156 13.9766 129.156 15.3828C129.156 16.7995 129.479 17.8021 130.125 18.3906C130.771 18.9792 131.505 19.2734 132.328 19.2734C133.135 19.2734 133.797 19.0417 134.312 18.5781C134.828 18.1094 135.146 17.4974 135.266 16.7422H132.602V14.8203H137.398V21H135.805L135.562 19.5625C135.099 20.1094 134.682 20.4948 134.312 20.7188ZM151.078 21.0625C150.562 21.2344 149.945 21.3203 149.227 21.3203C147.727 21.3203 146.487 20.8724 145.508 19.9766C144.32 18.8984 143.727 17.3151 143.727 15.2266C143.727 13.1224 144.336 11.5312 145.555 10.4531C146.549 9.57292 147.786 9.13281 149.266 9.13281C150.755 9.13281 152.005 9.59896 153.016 10.5312C154.182 11.6094 154.766 13.1172 154.766 15.0547C154.766 16.0807 154.641 16.9401 154.391 17.6328C154.188 18.2943 153.888 18.8438 153.492 19.2812L154.82 20.5234L153.562 21.8359L152.172 20.5234C151.75 20.7786 151.385 20.9583 151.078 21.0625ZM150.562 18.9844L149.398 17.875L150.641 16.5781L151.805 17.6875C151.987 17.3125 152.115 16.9844 152.188 16.7031C152.302 16.2812 152.359 15.7891 152.359 15.2266C152.359 13.9349 152.094 12.9375 151.562 12.2344C151.036 11.526 150.266 11.1719 149.25 11.1719C148.297 11.1719 147.536 11.5104 146.969 12.1875C146.401 12.8646 146.117 13.8776 146.117 15.2266C146.117 16.8047 146.523 17.9349 147.336 18.6172C147.862 19.0599 148.492 19.2812 149.227 19.2812C149.503 19.2812 149.768 19.2474 150.023 19.1797C150.164 19.1432 150.344 19.0781 150.562 18.9844ZM163.422 16.5625V9.48438H165.867V16.5625C165.867 17.7865 165.677 18.7396 165.297 19.4219C164.589 20.6719 163.237 21.2969 161.242 21.2969C159.247 21.2969 157.893 20.6719 157.18 19.4219C156.799 18.7396 156.609 17.7865 156.609 16.5625V9.48438H159.055V16.5625C159.055 17.3542 159.148 17.9323 159.336 18.2969C159.628 18.9427 160.263 19.2656 161.242 19.2656C162.216 19.2656 162.849 18.9427 163.141 18.2969C163.328 17.9323 163.422 17.3542 163.422 16.5625ZM174.914 18.6328H170.672L169.875 21H167.359L171.469 9.48438H174.188L178.266 21H175.656L174.914 18.6328ZM174.242 16.6484L172.805 12.1172L171.32 16.6484H174.242ZM189.047 21H186.641L181.938 12.8203V21H179.695V9.48438H182.219L186.805 17.5234V9.48438H189.047V21ZM202.672 21.0625C202.156 21.2344 201.539 21.3203 200.82 21.3203C199.32 21.3203 198.081 20.8724 197.102 19.9766C195.914 18.8984 195.32 17.3151 195.32 15.2266C195.32 13.1224 195.93 11.5312 197.148 10.4531C198.143 9.57292 199.38 9.13281 200.859 9.13281C202.349 9.13281 203.599 9.59896 204.609 10.5312C205.776 11.6094 206.359 13.1172 206.359 15.0547C206.359 16.0807 206.234 16.9401 205.984 17.6328C205.781 18.2943 205.482 18.8438 205.086 19.2812L206.414 20.5234L205.156 21.8359L203.766 20.5234C203.344 20.7786 202.979 20.9583 202.672 21.0625ZM202.156 18.9844L200.992 17.875L202.234 16.5781L203.398 17.6875C203.581 17.3125 203.708 16.9844 203.781 16.7031C203.896 16.2812 203.953 15.7891 203.953 15.2266C203.953 13.9349 203.688 12.9375 203.156 12.2344C202.63 11.526 201.859 11.1719 200.844 11.1719C199.891 11.1719 199.13 11.5104 198.562 12.1875C197.995 12.8646 197.711 13.8776 197.711 15.2266C197.711 16.8047 198.117 17.9349 198.93 18.6172C199.456 19.0599 200.086 19.2812 200.82 19.2812C201.096 19.2812 201.362 19.2474 201.617 19.1797C201.758 19.1432 201.938 19.0781 202.156 18.9844ZM215.016 16.5625V9.48438H217.461V16.5625C217.461 17.7865 217.271 18.7396 216.891 19.4219C216.182 20.6719 214.831 21.2969 212.836 21.2969C210.841 21.2969 209.487 20.6719 208.773 19.4219C208.393 18.7396 208.203 17.7865 208.203 16.5625V9.48438H210.648V16.5625C210.648 17.3542 210.742 17.9323 210.93 18.2969C211.221 18.9427 211.857 19.2656 212.836 19.2656C213.81 19.2656 214.443 18.9427 214.734 18.2969C214.922 17.9323 215.016 17.3542 215.016 16.5625ZM226.508 18.6328H222.266L221.469 21H218.953L223.062 9.48438H225.781L229.859 21H227.25L226.508 18.6328ZM225.836 16.6484L224.398 12.1172L222.914 16.6484H225.836ZM223.086 8.5625L224.586 6.22656H227.07L224.695 8.5625H223.086ZM244.148 9.48438V11.5234H240.703V21H238.281V11.5234H234.82V9.48438H244.148ZM250.453 16.4844H247.969V21H245.617V9.48438H251.266C252.073 9.5 252.693 9.59896 253.125 9.78125C253.562 9.96354 253.932 10.2318 254.234 10.5859C254.484 10.8776 254.682 11.2005 254.828 11.5547C254.974 11.9089 255.047 12.3125 255.047 12.7656C255.047 13.3125 254.909 13.8516 254.633 14.3828C254.357 14.9089 253.901 15.2812 253.266 15.5C253.797 15.7135 254.172 16.0182 254.391 16.4141C254.615 16.8047 254.727 17.4036 254.727 18.2109V18.9844C254.727 19.5104 254.747 19.8672 254.789 20.0547C254.852 20.3516 254.997 20.5703 255.227 20.7109V21H252.578C252.505 20.7448 252.453 20.5391 252.422 20.3828C252.359 20.0599 252.326 19.7292 252.32 19.3906L252.305 18.3203C252.294 17.5859 252.159 17.0964 251.898 16.8516C251.643 16.6068 251.161 16.4844 250.453 16.4844ZM251.914 14.3906C252.393 14.1719 252.633 13.7396 252.633 13.0938C252.633 12.3958 252.401 11.9271 251.938 11.6875C251.677 11.5521 251.286 11.4844 250.766 11.4844H247.969V14.5781H250.695C251.237 14.5781 251.643 14.5156 251.914 14.3906ZM256.938 9.48438H259.328V21H256.938V9.48438ZM255.516 6H257.992L259.492 8.33594H257.883L255.516 6ZM270.891 21H268.484L263.781 12.8203V21H261.539V9.48438H264.062L268.648 17.5234V9.48438H270.891V21ZM280.008 21V15.8594H275.508V21H273.125V9.48438H275.508V13.875H280.008V9.48438H282.398V21H280.008ZM297.523 9.48438V11.5234H294.078V21H291.656V11.5234H288.195V9.48438H297.523ZM305.75 16.5625V9.48438H308.195V16.5625C308.195 17.7865 308.005 18.7396 307.625 19.4219C306.917 20.6719 305.565 21.2969 303.57 21.2969C301.576 21.2969 300.221 20.6719 299.508 19.4219C299.128 18.7396 298.938 17.7865 298.938 16.5625V9.48438H301.383V16.5625C301.383 17.3542 301.477 17.9323 301.664 18.2969C301.956 18.9427 302.591 19.2656 303.57 19.2656C304.544 19.2656 305.177 18.9427 305.469 18.2969C305.656 17.9323 305.75 17.3542 305.75 16.5625ZM319.797 9.48438L315.945 16.6719V21H313.539V16.6719L309.555 9.48438H312.391L314.781 14.5L317.07 9.48438H319.797ZM329.188 15.9688H323.594V18.9297H329.969V21H321.242V9.48438H329.688V11.5234H323.594V13.9688H329.188V15.9688ZM324.75 6.09375H326.75L328.578 8.42969H326.766L325.75 7.11719L324.727 8.42969H322.914L324.75 6.09375ZM329.414 6.16406C329.284 6.23698 329.12 6.29427 328.922 6.33594L328.812 6.67969H327.734L327.789 6.08594C328.221 6.05469 328.497 5.96615 328.617 5.82031C328.742 5.67448 328.805 5.51562 328.805 5.34375C328.805 5.25521 328.786 5.17188 328.75 5.09375C328.714 5.01042 328.656 4.9349 328.578 4.86719C328.521 4.82031 328.464 4.78646 328.406 4.76562C328.349 4.73958 328.237 4.72396 328.07 4.71875L327.656 4.71094L327.625 4.09375C327.74 4.07812 327.865 4.0651 328 4.05469C328.141 4.04427 328.263 4.03906 328.367 4.03906C328.633 4.03906 328.891 4.08333 329.141 4.17188C329.391 4.25521 329.602 4.41927 329.773 4.66406C329.82 4.73177 329.859 4.82031 329.891 4.92969C329.927 5.03906 329.945 5.15625 329.945 5.28125C329.945 5.38542 329.93 5.49219 329.898 5.60156C329.867 5.71094 329.812 5.8151 329.734 5.91406C329.656 6.00781 329.549 6.09115 329.414 6.16406ZM341.156 21H338.75L334.047 12.8203V21H331.805V9.48438H334.328L338.914 17.5234V9.48438H341.156V21ZM352.82 21H347.859V9.48438H352.82C353.534 9.49479 354.128 9.57812 354.602 9.73438C355.409 10 356.062 10.487 356.562 11.1953C356.964 11.7682 357.237 12.388 357.383 13.0547C357.529 13.7214 357.602 14.3568 357.602 14.9609C357.602 16.4922 357.294 17.7891 356.68 18.8516C355.846 20.2839 354.56 21 352.82 21ZM354.609 12.4219C354.24 11.7969 353.508 11.4844 352.414 11.4844H350.195V19H352.414C353.549 19 354.341 18.4401 354.789 17.3203C355.034 16.7057 355.156 15.974 355.156 15.125C355.156 13.9531 354.974 13.0521 354.609 12.4219ZM366.234 16.5625V9.48438H368.68V16.5625C368.68 17.7865 368.49 18.7396 368.109 19.4219C367.401 20.6719 366.049 21.2969 364.055 21.2969C362.06 21.2969 360.706 20.6719 359.992 19.4219C359.612 18.7396 359.422 17.7865 359.422 16.5625V9.48438H361.867V16.5625C361.867 17.3542 361.961 17.9323 362.148 18.2969C362.44 18.9427 363.076 19.2656 364.055 19.2656C365.029 19.2656 365.661 18.9427 365.953 18.2969C366.141 17.9323 366.234 17.3542 366.234 16.5625ZM363.031 22H365.062V23.8516H363.031V22ZM380.297 21H377.891L373.188 12.8203V21H370.945V9.48438H373.469L378.055 17.5234V9.48438H380.297V21ZM389.609 20.7188C388.974 21.1094 388.193 21.3047 387.266 21.3047C385.74 21.3047 384.49 20.776 383.516 19.7188C382.5 18.6562 381.992 17.2031 381.992 15.3594C381.992 13.4948 382.505 12 383.531 10.875C384.557 9.75 385.914 9.1875 387.602 9.1875C389.065 9.1875 390.24 9.5599 391.125 10.3047C392.016 11.0443 392.526 11.9688 392.656 13.0781H390.289C390.107 12.2917 389.661 11.7422 388.953 11.4297C388.557 11.2578 388.117 11.1719 387.633 11.1719C386.706 11.1719 385.943 11.5234 385.344 12.2266C384.75 12.9245 384.453 13.9766 384.453 15.3828C384.453 16.7995 384.776 17.8021 385.422 18.3906C386.068 18.9792 386.802 19.2734 387.625 19.2734C388.432 19.2734 389.094 19.0417 389.609 18.5781C390.125 18.1094 390.443 17.4974 390.562 16.7422H387.898V14.8203H392.695V21H391.102L390.859 19.5625C390.396 20.1094 389.979 20.4948 389.609 20.7188Z" fill="#303E45"/>
</svg>
