<svg width="1227" height="30" viewBox="0 0 1227 30" fill="none" xmlns="http://www.w3.org/2000/svg">
<path d="M8.14062 21.0625C7.625 21.2344 7.00781 21.3203 6.28906 21.3203C4.78906 21.3203 3.54948 20.8724 2.57031 19.9766C1.38281 18.8984 0.789062 17.3151 0.789062 15.2266C0.789062 13.1224 1.39844 11.5312 2.61719 10.4531C3.61198 9.57292 4.84896 9.13281 6.32812 9.13281C7.81771 9.13281 9.06771 9.59896 10.0781 10.5312C11.2448 11.6094 11.8281 13.1172 11.8281 15.0547C11.8281 16.0807 11.7031 16.9401 11.4531 17.6328C11.25 18.2943 10.9505 18.8438 10.5547 19.2812L11.8828 20.5234L10.625 21.8359L9.23438 20.5234C8.8125 20.7786 8.44792 20.9583 8.14062 21.0625ZM7.625 18.9844L6.46094 17.875L7.70312 16.5781L8.86719 17.6875C9.04948 17.3125 9.17708 16.9844 9.25 16.7031C9.36458 16.2812 9.42188 15.7891 9.42188 15.2266C9.42188 13.9349 9.15625 12.9375 8.625 12.2344C8.09896 11.526 7.32812 11.1719 6.3125 11.1719C5.35938 11.1719 4.59896 11.5104 4.03125 12.1875C3.46354 12.8646 3.17969 13.8776 3.17969 15.2266C3.17969 16.8047 3.58594 17.9349 4.39844 18.6172C4.92448 19.0599 5.55469 19.2812 6.28906 19.2812C6.5651 19.2812 6.83073 19.2474 7.08594 19.1797C7.22656 19.1432 7.40625 19.0781 7.625 18.9844ZM20.4844 16.5625V9.48438H22.9297V16.5625C22.9297 17.7865 22.7396 18.7396 22.3594 19.4219C21.651 20.6719 20.2995 21.2969 18.3047 21.2969C16.3099 21.2969 14.9557 20.6719 14.2422 19.4219C13.862 18.7396 13.6719 17.7865 13.6719 16.5625V9.48438H16.1172V16.5625C16.1172 17.3542 16.2109 17.9323 16.3984 18.2969C16.6901 18.9427 17.3255 19.2656 18.3047 19.2656C19.2786 19.2656 19.9115 18.9427 20.2031 18.2969C20.3906 17.9323 20.4844 17.3542 20.4844 16.5625ZM34.5312 9.48438L30.6797 16.6719V21H28.2734V16.6719L24.2891 9.48438H27.125L29.5156 14.5L31.8047 9.48438H34.5312ZM48.4453 9.48438V11.5234H45V21H42.5781V11.5234H39.1172V9.48438H48.4453ZM54.75 16.4844H52.2656V21H49.9141V9.48438H55.5625C56.3698 9.5 56.9896 9.59896 57.4219 9.78125C57.8594 9.96354 58.2292 10.2318 58.5312 10.5859C58.7812 10.8776 58.9792 11.2005 59.125 11.5547C59.2708 11.9089 59.3438 12.3125 59.3438 12.7656C59.3438 13.3125 59.2057 13.8516 58.9297 14.3828C58.6536 14.9089 58.1979 15.2812 57.5625 15.5C58.0938 15.7135 58.4688 16.0182 58.6875 16.4141C58.9115 16.8047 59.0234 17.4036 59.0234 18.2109V18.9844C59.0234 19.5104 59.0443 19.8672 59.0859 20.0547C59.1484 20.3516 59.2943 20.5703 59.5234 20.7109V21H56.875C56.8021 20.7448 56.75 20.5391 56.7188 20.3828C56.6562 20.0599 56.6224 19.7292 56.6172 19.3906L56.6016 18.3203C56.5911 17.5859 56.4557 17.0964 56.1953 16.8516C55.9401 16.6068 55.4583 16.4844 54.75 16.4844ZM56.2109 14.3906C56.6901 14.1719 56.9297 13.7396 56.9297 13.0938C56.9297 12.3958 56.6979 11.9271 56.2344 11.6875C55.974 11.5521 55.5833 11.4844 55.0625 11.4844H52.2656V14.5781H54.9922C55.5339 14.5781 55.9401 14.5156 56.2109 14.3906ZM61.2344 9.48438H63.625V21H61.2344V9.48438ZM59.8125 6H62.2891L63.7891 8.33594H62.1797L59.8125 6ZM75.1875 21H72.7812L68.0781 12.8203V21H65.8359V9.48438H68.3594L72.9453 17.5234V9.48438H75.1875V21ZM84.3047 21V15.8594H79.8047V21H77.4219V9.48438H79.8047V13.875H84.3047V9.48438H86.6953V21H84.3047ZM101.82 9.48438V11.5234H98.375V21H95.9531V11.5234H92.4922V9.48438H101.82ZM108.328 21.3203C106.682 21.3203 105.424 20.8724 104.555 19.9766C103.388 18.8776 102.805 17.2943 102.805 15.2266C102.805 13.1172 103.388 11.5339 104.555 10.4766C105.424 9.58073 106.682 9.13281 108.328 9.13281C109.974 9.13281 111.232 9.58073 112.102 10.4766C113.263 11.5339 113.844 13.1172 113.844 15.2266C113.844 17.2943 113.263 18.8776 112.102 19.9766C111.232 20.8724 109.974 21.3203 108.328 21.3203ZM110.602 18.2266C111.159 17.5234 111.438 16.5234 111.438 15.2266C111.438 13.9349 111.156 12.9375 110.594 12.2344C110.036 11.526 109.281 11.1719 108.328 11.1719C107.375 11.1719 106.615 11.5234 106.047 12.2266C105.479 12.9297 105.195 13.9297 105.195 15.2266C105.195 16.5234 105.479 17.5234 106.047 18.2266C106.615 18.9297 107.375 19.2812 108.328 19.2812C109.281 19.2812 110.039 18.9297 110.602 18.2266ZM107.344 5.84375H109.344L111.172 8.17969H109.359L108.344 6.86719L107.32 8.17969H105.508L107.344 5.84375ZM111.664 6.44531C111.534 6.51823 111.37 6.57552 111.172 6.61719L111.062 6.96094H109.984L110.039 6.36719C110.471 6.33594 110.747 6.2474 110.867 6.10156C110.992 5.95573 111.055 5.79688 111.055 5.625C111.055 5.53646 111.036 5.45312 111 5.375C110.964 5.29167 110.906 5.21615 110.828 5.14844C110.771 5.10156 110.714 5.06771 110.656 5.04688C110.599 5.02083 110.487 5.00521 110.32 5L109.906 4.99219L109.875 4.375C109.99 4.35938 110.115 4.34635 110.25 4.33594C110.391 4.32552 110.513 4.32031 110.617 4.32031C110.883 4.32031 111.141 4.36458 111.391 4.45312C111.641 4.53646 111.852 4.70052 112.023 4.94531C112.07 5.01302 112.109 5.10156 112.141 5.21094C112.177 5.32031 112.195 5.4375 112.195 5.5625C112.195 5.66667 112.18 5.77344 112.148 5.88281C112.117 5.99219 112.062 6.09635 111.984 6.19531C111.906 6.28906 111.799 6.3724 111.664 6.44531ZM125 21H122.594L117.891 12.8203V21H115.648V9.48438H118.172L122.758 17.5234V9.48438H125V21ZM134.312 20.7188C133.677 21.1094 132.896 21.3047 131.969 21.3047C130.443 21.3047 129.193 20.776 128.219 19.7188C127.203 18.6562 126.695 17.2031 126.695 15.3594C126.695 13.4948 127.208 12 128.234 10.875C129.26 9.75 130.617 9.1875 132.305 9.1875C133.768 9.1875 134.943 9.5599 135.828 10.3047C136.719 11.0443 137.229 11.9688 137.359 13.0781H134.992C134.81 12.2917 134.365 11.7422 133.656 11.4297C133.26 11.2578 132.82 11.1719 132.336 11.1719C131.409 11.1719 130.646 11.5234 130.047 12.2266C129.453 12.9245 129.156 13.9766 129.156 15.3828C129.156 16.7995 129.479 17.8021 130.125 18.3906C130.771 18.9792 131.505 19.2734 132.328 19.2734C133.135 19.2734 133.797 19.0417 134.312 18.5781C134.828 18.1094 135.146 17.4974 135.266 16.7422H132.602V14.8203H137.398V21H135.805L135.562 19.5625C135.099 20.1094 134.682 20.4948 134.312 20.7188ZM151.078 21.0625C150.562 21.2344 149.945 21.3203 149.227 21.3203C147.727 21.3203 146.487 20.8724 145.508 19.9766C144.32 18.8984 143.727 17.3151 143.727 15.2266C143.727 13.1224 144.336 11.5312 145.555 10.4531C146.549 9.57292 147.786 9.13281 149.266 9.13281C150.755 9.13281 152.005 9.59896 153.016 10.5312C154.182 11.6094 154.766 13.1172 154.766 15.0547C154.766 16.0807 154.641 16.9401 154.391 17.6328C154.188 18.2943 153.888 18.8438 153.492 19.2812L154.82 20.5234L153.562 21.8359L152.172 20.5234C151.75 20.7786 151.385 20.9583 151.078 21.0625ZM150.562 18.9844L149.398 17.875L150.641 16.5781L151.805 17.6875C151.987 17.3125 152.115 16.9844 152.188 16.7031C152.302 16.2812 152.359 15.7891 152.359 15.2266C152.359 13.9349 152.094 12.9375 151.562 12.2344C151.036 11.526 150.266 11.1719 149.25 11.1719C148.297 11.1719 147.536 11.5104 146.969 12.1875C146.401 12.8646 146.117 13.8776 146.117 15.2266C146.117 16.8047 146.523 17.9349 147.336 18.6172C147.862 19.0599 148.492 19.2812 149.227 19.2812C149.503 19.2812 149.768 19.2474 150.023 19.1797C150.164 19.1432 150.344 19.0781 150.562 18.9844ZM163.422 16.5625V9.48438H165.867V16.5625C165.867 17.7865 165.677 18.7396 165.297 19.4219C164.589 20.6719 163.237 21.2969 161.242 21.2969C159.247 21.2969 157.893 20.6719 157.18 19.4219C156.799 18.7396 156.609 17.7865 156.609 16.5625V9.48438H159.055V16.5625C159.055 17.3542 159.148 17.9323 159.336 18.2969C159.628 18.9427 160.263 19.2656 161.242 19.2656C162.216 19.2656 162.849 18.9427 163.141 18.2969C163.328 17.9323 163.422 17.3542 163.422 16.5625ZM174.914 18.6328H170.672L169.875 21H167.359L171.469 9.48438H174.188L178.266 21H175.656L174.914 18.6328ZM174.242 16.6484L172.805 12.1172L171.32 16.6484H174.242ZM189.047 21H186.641L181.938 12.8203V21H179.695V9.48438H182.219L186.805 17.5234V9.48438H189.047V21ZM202.672 21.0625C202.156 21.2344 201.539 21.3203 200.82 21.3203C199.32 21.3203 198.081 20.8724 197.102 19.9766C195.914 18.8984 195.32 17.3151 195.32 15.2266C195.32 13.1224 195.93 11.5312 197.148 10.4531C198.143 9.57292 199.38 9.13281 200.859 9.13281C202.349 9.13281 203.599 9.59896 204.609 10.5312C205.776 11.6094 206.359 13.1172 206.359 15.0547C206.359 16.0807 206.234 16.9401 205.984 17.6328C205.781 18.2943 205.482 18.8438 205.086 19.2812L206.414 20.5234L205.156 21.8359L203.766 20.5234C203.344 20.7786 202.979 20.9583 202.672 21.0625ZM202.156 18.9844L200.992 17.875L202.234 16.5781L203.398 17.6875C203.581 17.3125 203.708 16.9844 203.781 16.7031C203.896 16.2812 203.953 15.7891 203.953 15.2266C203.953 13.9349 203.688 12.9375 203.156 12.2344C202.63 11.526 201.859 11.1719 200.844 11.1719C199.891 11.1719 199.13 11.5104 198.562 12.1875C197.995 12.8646 197.711 13.8776 197.711 15.2266C197.711 16.8047 198.117 17.9349 198.93 18.6172C199.456 19.0599 200.086 19.2812 200.82 19.2812C201.096 19.2812 201.362 19.2474 201.617 19.1797C201.758 19.1432 201.938 19.0781 202.156 18.9844ZM215.016 16.5625V9.48438H217.461V16.5625C217.461 17.7865 217.271 18.7396 216.891 19.4219C216.182 20.6719 214.831 21.2969 212.836 21.2969C210.841 21.2969 209.487 20.6719 208.773 19.4219C208.393 18.7396 208.203 17.7865 208.203 16.5625V9.48438H210.648V16.5625C210.648 17.3542 210.742 17.9323 210.93 18.2969C211.221 18.9427 211.857 19.2656 212.836 19.2656C213.81 19.2656 214.443 18.9427 214.734 18.2969C214.922 17.9323 215.016 17.3542 215.016 16.5625ZM211.516 8.5625L213.016 6.22656H215.5L213.125 8.5625H211.516ZM226.508 18.6328H222.266L221.469 21H218.953L223.062 9.48438H225.781L229.859 21H227.25L226.508 18.6328ZM225.836 16.6484L224.398 12.1172L222.914 16.6484H225.836ZM243.555 9.48438V11.5234H240.109V21H237.688V11.5234H234.227V9.48438H243.555ZM249.859 16.4844H247.375V21H245.023V9.48438H250.672C251.479 9.5 252.099 9.59896 252.531 9.78125C252.969 9.96354 253.339 10.2318 253.641 10.5859C253.891 10.8776 254.089 11.2005 254.234 11.5547C254.38 11.9089 254.453 12.3125 254.453 12.7656C254.453 13.3125 254.315 13.8516 254.039 14.3828C253.763 14.9089 253.307 15.2812 252.672 15.5C253.203 15.7135 253.578 16.0182 253.797 16.4141C254.021 16.8047 254.133 17.4036 254.133 18.2109V18.9844C254.133 19.5104 254.154 19.8672 254.195 20.0547C254.258 20.3516 254.404 20.5703 254.633 20.7109V21H251.984C251.911 20.7448 251.859 20.5391 251.828 20.3828C251.766 20.0599 251.732 19.7292 251.727 19.3906L251.711 18.3203C251.701 17.5859 251.565 17.0964 251.305 16.8516C251.049 16.6068 250.568 16.4844 249.859 16.4844ZM251.32 14.3906C251.799 14.1719 252.039 13.7396 252.039 13.0938C252.039 12.3958 251.807 11.9271 251.344 11.6875C251.083 11.5521 250.693 11.4844 250.172 11.4844H247.375V14.5781H250.102C250.643 14.5781 251.049 14.5156 251.32 14.3906ZM256.344 9.48438H258.734V21H256.344V9.48438ZM254.922 6H257.398L258.898 8.33594H257.289L254.922 6ZM270.297 21H267.891L263.188 12.8203V21H260.945V9.48438H263.469L268.055 17.5234V9.48438H270.297V21ZM279.414 21V15.8594H274.914V21H272.531V9.48438H274.914V13.875H279.414V9.48438H281.805V21H279.414ZM296.93 9.48438V11.5234H293.484V21H291.062V11.5234H287.602V9.48438H296.93ZM305.156 16.5625V9.48438H307.602V16.5625C307.602 17.7865 307.411 18.7396 307.031 19.4219C306.323 20.6719 304.971 21.2969 302.977 21.2969C300.982 21.2969 299.628 20.6719 298.914 19.4219C298.534 18.7396 298.344 17.7865 298.344 16.5625V9.48438H300.789V16.5625C300.789 17.3542 300.883 17.9323 301.07 18.2969C301.362 18.9427 301.997 19.2656 302.977 19.2656C303.951 19.2656 304.583 18.9427 304.875 18.2969C305.062 17.9323 305.156 17.3542 305.156 16.5625ZM319.203 9.48438L315.352 16.6719V21H312.945V16.6719L308.961 9.48438H311.797L314.188 14.5L316.477 9.48438H319.203ZM328.594 15.9688H323V18.9297H329.375V21H320.648V9.48438H329.094V11.5234H323V13.9688H328.594V15.9688ZM324.156 6.09375H326.156L327.984 8.42969H326.172L325.156 7.11719L324.133 8.42969H322.32L324.156 6.09375ZM328.82 6.16406C328.69 6.23698 328.526 6.29427 328.328 6.33594L328.219 6.67969H327.141L327.195 6.08594C327.628 6.05469 327.904 5.96615 328.023 5.82031C328.148 5.67448 328.211 5.51562 328.211 5.34375C328.211 5.25521 328.193 5.17188 328.156 5.09375C328.12 5.01042 328.062 4.9349 327.984 4.86719C327.927 4.82031 327.87 4.78646 327.812 4.76562C327.755 4.73958 327.643 4.72396 327.477 4.71875L327.062 4.71094L327.031 4.09375C327.146 4.07812 327.271 4.0651 327.406 4.05469C327.547 4.04427 327.669 4.03906 327.773 4.03906C328.039 4.03906 328.297 4.08333 328.547 4.17188C328.797 4.25521 329.008 4.41927 329.18 4.66406C329.227 4.73177 329.266 4.82031 329.297 4.92969C329.333 5.03906 329.352 5.15625 329.352 5.28125C329.352 5.38542 329.336 5.49219 329.305 5.60156C329.273 5.71094 329.219 5.8151 329.141 5.91406C329.062 6.00781 328.956 6.09115 328.82 6.16406ZM340.562 21H338.156L333.453 12.8203V21H331.211V9.48438H333.734L338.32 17.5234V9.48438H340.562V21ZM352.227 21H347.266V9.48438H352.227C352.94 9.49479 353.534 9.57812 354.008 9.73438C354.815 10 355.469 10.487 355.969 11.1953C356.37 11.7682 356.643 12.388 356.789 13.0547C356.935 13.7214 357.008 14.3568 357.008 14.9609C357.008 16.4922 356.701 17.7891 356.086 18.8516C355.253 20.2839 353.966 21 352.227 21ZM354.016 12.4219C353.646 11.7969 352.914 11.4844 351.82 11.4844H349.602V19H351.82C352.956 19 353.747 18.4401 354.195 17.3203C354.44 16.7057 354.562 15.974 354.562 15.125C354.562 13.9531 354.38 13.0521 354.016 12.4219ZM365.641 16.5625V9.48438H368.086V16.5625C368.086 17.7865 367.896 18.7396 367.516 19.4219C366.807 20.6719 365.456 21.2969 363.461 21.2969C361.466 21.2969 360.112 20.6719 359.398 19.4219C359.018 18.7396 358.828 17.7865 358.828 16.5625V9.48438H361.273V16.5625C361.273 17.3542 361.367 17.9323 361.555 18.2969C361.846 18.9427 362.482 19.2656 363.461 19.2656C364.435 19.2656 365.068 18.9427 365.359 18.2969C365.547 17.9323 365.641 17.3542 365.641 16.5625ZM362.438 22H364.469V23.8516H362.438V22ZM379.703 21H377.297L372.594 12.8203V21H370.352V9.48438H372.875L377.461 17.5234V9.48438H379.703V21ZM389.016 20.7188C388.38 21.1094 387.599 21.3047 386.672 21.3047C385.146 21.3047 383.896 20.776 382.922 19.7188C381.906 18.6562 381.398 17.2031 381.398 15.3594C381.398 13.4948 381.911 12 382.938 10.875C383.964 9.75 385.32 9.1875 387.008 9.1875C388.471 9.1875 389.646 9.5599 390.531 10.3047C391.422 11.0443 391.932 11.9688 392.062 13.0781H389.695C389.513 12.2917 389.068 11.7422 388.359 11.4297C387.964 11.2578 387.523 11.1719 387.039 11.1719C386.112 11.1719 385.349 11.5234 384.75 12.2266C384.156 12.9245 383.859 13.9766 383.859 15.3828C383.859 16.7995 384.182 17.8021 384.828 18.3906C385.474 18.9792 386.208 19.2734 387.031 19.2734C387.839 19.2734 388.5 19.0417 389.016 18.5781C389.531 18.1094 389.849 17.4974 389.969 16.7422H387.305V14.8203H392.102V21H390.508L390.266 19.5625C389.802 20.1094 389.385 20.4948 389.016 20.7188Z" fill="#303E45"/>
</svg>
