<svg width="1227" height="30" viewBox="0 0 1227 30" fill="none" xmlns="http://www.w3.org/2000/svg">
<path d="M3.42188 21H1.17969V9.48438H4.67969L6.77344 18.5391L8.85156 9.48438H12.3125V21H10.0703V13.2109C10.0703 12.987 10.0729 12.6745 10.0781 12.2734C10.0833 11.8672 10.0859 11.5547 10.0859 11.3359L7.90625 21H5.57031L3.40625 11.3359C3.40625 11.5547 3.40885 11.8672 3.41406 12.2734C3.41927 12.6745 3.42188 12.987 3.42188 13.2109V21ZM19.6406 21.3203C17.9948 21.3203 16.737 20.8724 15.8672 19.9766C14.7005 18.8776 14.1172 17.2943 14.1172 15.2266C14.1172 13.1172 14.7005 11.5339 15.8672 10.4766C16.737 9.58073 17.9948 9.13281 19.6406 9.13281C21.2865 9.13281 22.5443 9.58073 23.4141 10.4766C24.5755 11.5339 25.1562 13.1172 25.1562 15.2266C25.1562 17.2943 24.5755 18.8776 23.4141 19.9766C22.5443 20.8724 21.2865 21.3203 19.6406 21.3203ZM21.9141 18.2266C22.4714 17.5234 22.75 16.5234 22.75 15.2266C22.75 13.9349 22.4688 12.9375 21.9062 12.2344C21.349 11.526 20.5938 11.1719 19.6406 11.1719C18.6875 11.1719 17.9271 11.5234 17.3594 12.2266C16.7917 12.9297 16.5078 13.9297 16.5078 15.2266C16.5078 16.5234 16.7917 17.5234 17.3594 18.2266C17.9271 18.9297 18.6875 19.2812 19.6406 19.2812C20.5938 19.2812 21.3516 18.9297 21.9141 18.2266ZM18.6406 6.02344H20.6406L22.4688 8.35938H20.6562L19.6406 7.04688L18.6172 8.35938H16.8047L18.6406 6.02344ZM18.6172 22.0234H20.6484V23.875H18.6172V22.0234ZM35.3672 9.48438V11.5234H31.9219V21H29.5V11.5234H26.0391V9.48438H35.3672ZM45.4141 19.3359C45.9818 19.3359 46.4427 19.2734 46.7969 19.1484C47.4688 18.9089 47.8047 18.4635 47.8047 17.8125C47.8047 17.4323 47.638 17.138 47.3047 16.9297C46.9714 16.7266 46.4479 16.5469 45.7344 16.3906L44.5156 16.1172C43.3177 15.8464 42.4896 15.5521 42.0312 15.2344C41.2552 14.7031 40.8672 13.8724 40.8672 12.7422C40.8672 11.7109 41.2422 10.8542 41.9922 10.1719C42.7422 9.48958 43.8438 9.14844 45.2969 9.14844C46.5104 9.14844 47.5443 9.47135 48.3984 10.1172C49.2578 10.7578 49.7083 11.6901 49.75 12.9141H47.4375C47.3958 12.2214 47.0938 11.7292 46.5312 11.4375C46.1562 11.2448 45.6901 11.1484 45.1328 11.1484C44.513 11.1484 44.0182 11.2734 43.6484 11.5234C43.2786 11.7734 43.0938 12.1224 43.0938 12.5703C43.0938 12.9818 43.276 13.2891 43.6406 13.4922C43.875 13.6276 44.375 13.7865 45.1406 13.9688L47.125 14.4453C47.9948 14.6536 48.651 14.9323 49.0938 15.2812C49.7812 15.8229 50.125 16.6068 50.125 17.6328C50.125 18.6849 49.7214 19.5599 48.9141 20.2578C48.112 20.9505 46.9766 21.2969 45.5078 21.2969C44.0078 21.2969 42.8281 20.9557 41.9688 20.2734C41.1094 19.5859 40.6797 18.6432 40.6797 17.4453H42.9766C43.0495 17.9714 43.1927 18.3646 43.4062 18.625C43.7969 19.099 44.4661 19.3359 45.4141 19.3359ZM57 21.3203C55.3542 21.3203 54.0964 20.8724 53.2266 19.9766C52.0599 18.8776 51.4766 17.2943 51.4766 15.2266C51.4766 13.1172 52.0599 11.5339 53.2266 10.4766C54.0964 9.58073 55.3542 9.13281 57 9.13281C58.6458 9.13281 59.9036 9.58073 60.7734 10.4766C61.9349 11.5339 62.5156 13.1172 62.5156 15.2266C62.5156 17.2943 61.9349 18.8776 60.7734 19.9766C59.9036 20.8724 58.6458 21.3203 57 21.3203ZM59.2734 18.2266C59.8307 17.5234 60.1094 16.5234 60.1094 15.2266C60.1094 13.9349 59.8281 12.9375 59.2656 12.2344C58.7083 11.526 57.9531 11.1719 57 11.1719C56.0469 11.1719 55.2865 11.5234 54.7188 12.2266C54.151 12.9297 53.8672 13.9297 53.8672 15.2266C53.8672 16.5234 54.151 17.5234 54.7188 18.2266C55.2865 18.9297 56.0469 19.2812 57 19.2812C57.9531 19.2812 58.7109 18.9297 59.2734 18.2266ZM56.1328 6.05469H58.1328L59.9609 8.39062H58.1484L57.1328 7.07812L56.1094 8.39062H54.2969L56.1328 6.05469ZM58.6172 6.9375L60.1172 4.60156H62.6016L60.2266 6.9375H58.6172ZM71.0156 21H68.7734V9.48438H72.2734L74.3672 18.5391L76.4453 9.48438H79.9062V21H77.6641V13.2109C77.6641 12.987 77.6667 12.6745 77.6719 12.2734C77.6771 11.8672 77.6797 11.5547 77.6797 11.3359L75.5 21H73.1641L71 11.3359C71 11.5547 71.0026 11.8672 71.0078 12.2734C71.013 12.6745 71.0156 12.987 71.0156 13.2109V21ZM88.8828 18.6328H84.6406L83.8438 21H81.3281L85.4375 9.48438H88.1562L92.2344 21H89.625L88.8828 18.6328ZM88.2109 16.6484L86.7734 12.1172L85.2891 16.6484H88.2109ZM84.125 6.22656H86.6016L88.1016 8.5625H86.4922L84.125 6.22656ZM103.016 21H100.609L95.9062 12.8203V21H93.6641V9.48438H96.1875L100.773 17.5234V9.48438H103.016V21ZM116.586 21V15.8594H112.086V21H109.703V9.48438H112.086V13.875H116.586V9.48438H118.977V21H116.586ZM121.094 9.48438H123.484V21H121.094V9.48438ZM119.672 6H122.148L123.648 8.33594H122.039L119.672 6ZM135.047 21H132.641L127.938 12.8203V21H125.695V9.48438H128.219L132.805 17.5234V9.48438H135.047V21ZM144.164 21V15.8594H139.664V21H137.281V9.48438H139.664V13.875H144.164V9.48438H146.555V21H144.164ZM155.516 21H153.273V9.48438H156.773L158.867 18.5391L160.945 9.48438H164.406V21H162.164V13.2109C162.164 12.987 162.167 12.6745 162.172 12.2734C162.177 11.8672 162.18 11.5547 162.18 11.3359L160 21H157.664L155.5 11.3359C155.5 11.5547 155.503 11.8672 155.508 12.2734C155.513 12.6745 155.516 12.987 155.516 13.2109V21ZM171.734 21.3203C170.089 21.3203 168.831 20.8724 167.961 19.9766C166.794 18.8776 166.211 17.2943 166.211 15.2266C166.211 13.1172 166.794 11.5339 167.961 10.4766C168.831 9.58073 170.089 9.13281 171.734 9.13281C173.38 9.13281 174.638 9.58073 175.508 10.4766C176.669 11.5339 177.25 13.1172 177.25 15.2266C177.25 17.2943 176.669 18.8776 175.508 19.9766C174.638 20.8724 173.38 21.3203 171.734 21.3203ZM174.008 18.2266C174.565 17.5234 174.844 16.5234 174.844 15.2266C174.844 13.9349 174.562 12.9375 174 12.2344C173.443 11.526 172.688 11.1719 171.734 11.1719C170.781 11.1719 170.021 11.5234 169.453 12.2266C168.885 12.9297 168.602 13.9297 168.602 15.2266C168.602 16.5234 168.885 17.5234 169.453 18.2266C170.021 18.9297 170.781 19.2812 171.734 19.2812C172.688 19.2812 173.445 18.9297 174.008 18.2266ZM187.219 20.1406C186.359 20.9271 185.26 21.3203 183.922 21.3203C182.266 21.3203 180.964 20.7891 180.016 19.7266C179.068 18.6589 178.594 17.1953 178.594 15.3359C178.594 13.3255 179.133 11.776 180.211 10.6875C181.148 9.73958 182.341 9.26562 183.789 9.26562C185.727 9.26562 187.143 9.90104 188.039 11.1719C188.534 11.8854 188.799 12.6016 188.836 13.3203H186.43C186.273 12.7682 186.073 12.3516 185.828 12.0703C185.391 11.5703 184.742 11.3203 183.883 11.3203C183.008 11.3203 182.318 11.6745 181.812 12.3828C181.307 13.0859 181.055 14.0833 181.055 15.375C181.055 16.6667 181.32 17.6354 181.852 18.2812C182.388 18.9219 183.068 19.2422 183.891 19.2422C184.734 19.2422 185.378 18.9661 185.82 18.4141C186.065 18.1172 186.268 17.6719 186.43 17.0781H188.812C188.604 18.3333 188.073 19.3542 187.219 20.1406ZM200.859 21H197.766L194.211 15.9688L193.062 17.1484V21H190.695V9.48438H193.062V14.2266L197.508 9.48438H200.617L195.898 14.2266L200.859 21ZM209.031 16.5625V9.48438H211.477V16.5625C211.477 17.7865 211.286 18.7396 210.906 19.4219C210.198 20.6719 208.846 21.2969 206.852 21.2969C204.857 21.2969 203.503 20.6719 202.789 19.4219C202.409 18.7396 202.219 17.7865 202.219 16.5625V9.48438H204.664V16.5625C204.664 17.3542 204.758 17.9323 204.945 18.2969C205.237 18.9427 205.872 19.2656 206.852 19.2656C207.826 19.2656 208.458 18.9427 208.75 18.2969C208.938 17.9323 209.031 17.3542 209.031 16.5625ZM218.672 16.8594H216.227V21H213.836V9.48438H218.852C220.008 9.48438 220.93 9.78125 221.617 10.375C222.305 10.9688 222.648 11.888 222.648 13.1328C222.648 14.4922 222.305 15.4531 221.617 16.0156C220.93 16.5781 219.948 16.8594 218.672 16.8594ZM219.797 14.4609C220.109 14.1849 220.266 13.7474 220.266 13.1484C220.266 12.5495 220.107 12.1224 219.789 11.8672C219.477 11.612 219.036 11.4844 218.469 11.4844H216.227V14.875H218.469C219.036 14.875 219.479 14.737 219.797 14.4609Z" fill="#303E45"/>
</svg>
