<svg width="1227" height="30" viewBox="0 0 1227 30" fill="none" xmlns="http://www.w3.org/2000/svg">
<g clip-path="url(#clip0_306_129)">
<path d="M424.562 9.52344V10.8906H420.695V21H419.117V10.8906H415.25V9.52344H424.562ZM425.805 9.48438H427.211V13.7656C427.544 13.3438 427.844 13.0469 428.109 12.875C428.562 12.5781 429.128 12.4297 429.805 12.4297C431.018 12.4297 431.841 12.8542 432.273 13.7031C432.508 14.1667 432.625 14.8099 432.625 15.6328V21H431.18V15.7266C431.18 15.112 431.102 14.6615 430.945 14.375C430.69 13.9167 430.211 13.6875 429.508 13.6875C428.924 13.6875 428.396 13.888 427.922 14.2891C427.448 14.6901 427.211 15.4479 427.211 16.5625V21H425.805V9.48438ZM434.711 12.6719H436.141V21H434.711V12.6719ZM434.711 9.52344H436.141V11.1172H434.711V9.52344ZM439.109 18.375C439.151 18.8438 439.268 19.2031 439.461 19.4531C439.815 19.9062 440.43 20.1328 441.305 20.1328C441.826 20.1328 442.284 20.0208 442.68 19.7969C443.076 19.5677 443.273 19.2161 443.273 18.7422C443.273 18.3828 443.115 18.1094 442.797 17.9219C442.594 17.8073 442.193 17.6745 441.594 17.5234L440.477 17.2422C439.763 17.0651 439.237 16.8672 438.898 16.6484C438.294 16.2682 437.992 15.7422 437.992 15.0703C437.992 14.2786 438.276 13.638 438.844 13.1484C439.417 12.6589 440.185 12.4141 441.148 12.4141C442.409 12.4141 443.318 12.7839 443.875 13.5234C444.224 13.9922 444.393 14.4974 444.383 15.0391H443.055C443.029 14.7214 442.917 14.4323 442.719 14.1719C442.396 13.8021 441.836 13.6172 441.039 13.6172C440.508 13.6172 440.104 13.7188 439.828 13.9219C439.557 14.125 439.422 14.3932 439.422 14.7266C439.422 15.0911 439.602 15.3828 439.961 15.6016C440.169 15.7318 440.477 15.8464 440.883 15.9453L441.812 16.1719C442.823 16.4167 443.5 16.6536 443.844 16.8828C444.391 17.2422 444.664 17.8073 444.664 18.5781C444.664 19.3229 444.38 19.9661 443.812 20.5078C443.25 21.0495 442.391 21.3203 441.234 21.3203C439.99 21.3203 439.107 21.0391 438.586 20.4766C438.07 19.9089 437.794 19.2083 437.758 18.375H439.109ZM453.953 12.3906C454.896 12.3906 455.661 12.6198 456.25 13.0781C456.844 13.5365 457.201 14.3255 457.32 15.4453H455.953C455.87 14.9297 455.68 14.5026 455.383 14.1641C455.086 13.8203 454.609 13.6484 453.953 13.6484C453.057 13.6484 452.417 14.0859 452.031 14.9609C451.781 15.5286 451.656 16.2292 451.656 17.0625C451.656 17.901 451.833 18.6068 452.188 19.1797C452.542 19.7526 453.099 20.0391 453.859 20.0391C454.443 20.0391 454.904 19.862 455.242 19.5078C455.586 19.1484 455.823 18.6589 455.953 18.0391H457.32C457.164 19.1484 456.773 19.9609 456.148 20.4766C455.523 20.987 454.724 21.2422 453.75 21.2422C452.656 21.2422 451.784 20.8438 451.133 20.0469C450.482 19.2448 450.156 18.2448 450.156 17.0469C450.156 15.5781 450.513 14.4349 451.227 13.6172C451.94 12.7995 452.849 12.3906 453.953 12.3906ZM462.047 20.0938C462.979 20.0938 463.617 19.7422 463.961 19.0391C464.31 18.3307 464.484 17.5443 464.484 16.6797C464.484 15.8984 464.359 15.263 464.109 14.7734C463.714 14.0026 463.031 13.6172 462.062 13.6172C461.203 13.6172 460.578 13.9453 460.188 14.6016C459.797 15.2578 459.602 16.0495 459.602 16.9766C459.602 17.8672 459.797 18.6094 460.188 19.2031C460.578 19.7969 461.198 20.0938 462.047 20.0938ZM462.102 12.3906C463.18 12.3906 464.091 12.75 464.836 13.4688C465.581 14.1875 465.953 15.2448 465.953 16.6406C465.953 17.9896 465.625 19.1042 464.969 19.9844C464.312 20.8646 463.294 21.3047 461.914 21.3047C460.763 21.3047 459.849 20.9167 459.172 20.1406C458.495 19.3594 458.156 18.3125 458.156 17C458.156 15.5938 458.513 14.474 459.227 13.6406C459.94 12.8073 460.898 12.3906 462.102 12.3906ZM467.633 12.6328H468.969V13.8203C469.365 13.3307 469.784 12.9792 470.227 12.7656C470.669 12.5521 471.161 12.4453 471.703 12.4453C472.891 12.4453 473.693 12.8594 474.109 13.6875C474.339 14.1406 474.453 14.7891 474.453 15.6328V21H473.023V15.7266C473.023 15.2161 472.948 14.8047 472.797 14.4922C472.547 13.9714 472.094 13.7109 471.438 13.7109C471.104 13.7109 470.831 13.7448 470.617 13.8125C470.232 13.9271 469.893 14.1562 469.602 14.5C469.367 14.776 469.214 15.0625 469.141 15.3594C469.073 15.651 469.039 16.0703 469.039 16.6172V21H467.633V12.6328ZM476.82 10.2969H478.242V12.6328H479.578V13.7812H478.242V19.2422C478.242 19.5339 478.341 19.7292 478.539 19.8281C478.648 19.8854 478.831 19.9141 479.086 19.9141C479.154 19.9141 479.227 19.9141 479.305 19.9141C479.383 19.9089 479.474 19.901 479.578 19.8906V21C479.417 21.0469 479.247 21.0807 479.07 21.1016C478.898 21.1224 478.711 21.1328 478.508 21.1328C477.852 21.1328 477.406 20.9661 477.172 20.6328C476.938 20.2943 476.82 19.8568 476.82 19.3203V13.7812H475.688V12.6328H476.82V10.2969ZM484.477 12.4453C485.07 12.4453 485.646 12.5859 486.203 12.8672C486.76 13.1432 487.185 13.5026 487.477 13.9453C487.758 14.3672 487.945 14.8594 488.039 15.4219C488.122 15.8073 488.164 16.4219 488.164 17.2656H482.031C482.057 18.1146 482.258 18.7969 482.633 19.3125C483.008 19.8229 483.589 20.0781 484.375 20.0781C485.109 20.0781 485.695 19.8359 486.133 19.3516C486.383 19.0703 486.56 18.7448 486.664 18.375H488.047C488.01 18.6823 487.888 19.026 487.68 19.4062C487.477 19.7812 487.247 20.0885 486.992 20.3281C486.565 20.7448 486.036 21.026 485.406 21.1719C485.068 21.2552 484.685 21.2969 484.258 21.2969C483.216 21.2969 482.333 20.9193 481.609 20.1641C480.885 19.4036 480.523 18.3411 480.523 16.9766C480.523 15.6328 480.888 14.5417 481.617 13.7031C482.346 12.8646 483.299 12.4453 484.477 12.4453ZM486.719 16.1484C486.661 15.5391 486.529 15.0521 486.32 14.6875C485.935 14.0104 485.292 13.6719 484.391 13.6719C483.745 13.6719 483.203 13.9062 482.766 14.375C482.328 14.8385 482.096 15.4297 482.07 16.1484H486.719ZM489.898 12.6328H491.234V13.8203C491.63 13.3307 492.049 12.9792 492.492 12.7656C492.935 12.5521 493.427 12.4453 493.969 12.4453C495.156 12.4453 495.958 12.8594 496.375 13.6875C496.604 14.1406 496.719 14.7891 496.719 15.6328V21H495.289V15.7266C495.289 15.2161 495.214 14.8047 495.062 14.4922C494.812 13.9714 494.359 13.7109 493.703 13.7109C493.37 13.7109 493.096 13.7448 492.883 13.8125C492.497 13.9271 492.159 14.1562 491.867 14.5C491.633 14.776 491.479 15.0625 491.406 15.3594C491.339 15.651 491.305 16.0703 491.305 16.6172V21H489.898V12.6328ZM499.086 10.2969H500.508V12.6328H501.844V13.7812H500.508V19.2422C500.508 19.5339 500.607 19.7292 500.805 19.8281C500.914 19.8854 501.096 19.9141 501.352 19.9141C501.419 19.9141 501.492 19.9141 501.57 19.9141C501.648 19.9089 501.74 19.901 501.844 19.8906V21C501.682 21.0469 501.513 21.0807 501.336 21.1016C501.164 21.1224 500.977 21.1328 500.773 21.1328C500.117 21.1328 499.672 20.9661 499.438 20.6328C499.203 20.2943 499.086 19.8568 499.086 19.3203V13.7812H497.953V12.6328H499.086V10.2969ZM508.359 12.6328L509.969 19.2266L511.602 12.6328H513.18L514.82 19.1875L516.531 12.6328H517.938L515.508 21H514.047L512.344 14.5234L510.695 21H509.234L506.82 12.6328H508.359ZM519.273 12.6719H520.703V21H519.273V12.6719ZM519.273 9.52344H520.703V11.1172H519.273V9.52344ZM522.875 9.52344H524.281V21H522.875V9.52344ZM526.438 9.52344H527.844V21H526.438V9.52344ZM534.305 9.48438H535.672V13.6484C535.979 13.2474 536.346 12.9427 536.773 12.7344C537.201 12.5208 537.664 12.4141 538.164 12.4141C539.206 12.4141 540.049 12.7734 540.695 13.4922C541.346 14.2057 541.672 15.2604 541.672 16.6562C541.672 17.9792 541.352 19.0781 540.711 19.9531C540.07 20.8281 539.182 21.2656 538.047 21.2656C537.411 21.2656 536.875 21.112 536.438 20.8047C536.177 20.6224 535.898 20.3307 535.602 19.9297V21H534.305V9.48438ZM537.961 20.0234C538.721 20.0234 539.289 19.7214 539.664 19.1172C540.044 18.513 540.234 17.7161 540.234 16.7266C540.234 15.8464 540.044 15.1172 539.664 14.5391C539.289 13.9609 538.734 13.6719 538 13.6719C537.359 13.6719 536.797 13.9089 536.312 14.3828C535.833 14.8568 535.594 15.638 535.594 16.7266C535.594 17.513 535.693 18.151 535.891 18.6406C536.26 19.5625 536.951 20.0234 537.961 20.0234ZM546.805 12.4453C547.398 12.4453 547.974 12.5859 548.531 12.8672C549.089 13.1432 549.513 13.5026 549.805 13.9453C550.086 14.3672 550.273 14.8594 550.367 15.4219C550.451 15.8073 550.492 16.4219 550.492 17.2656H544.359C544.385 18.1146 544.586 18.7969 544.961 19.3125C545.336 19.8229 545.917 20.0781 546.703 20.0781C547.438 20.0781 548.023 19.8359 548.461 19.3516C548.711 19.0703 548.888 18.7448 548.992 18.375H550.375C550.339 18.6823 550.216 19.026 550.008 19.4062C549.805 19.7812 549.576 20.0885 549.32 20.3281C548.893 20.7448 548.365 21.026 547.734 21.1719C547.396 21.2552 547.013 21.2969 546.586 21.2969C545.544 21.2969 544.661 20.9193 543.938 20.1641C543.214 19.4036 542.852 18.3411 542.852 16.9766C542.852 15.6328 543.216 14.5417 543.945 13.7031C544.674 12.8646 545.628 12.4453 546.805 12.4453ZM549.047 16.1484C548.99 15.5391 548.857 15.0521 548.648 14.6875C548.263 14.0104 547.62 13.6719 546.719 13.6719C546.073 13.6719 545.531 13.9062 545.094 14.375C544.656 14.8385 544.424 15.4297 544.398 16.1484H549.047ZM558.086 12.6328V18.1875C558.086 18.6146 558.154 18.9635 558.289 19.2344C558.539 19.7344 559.005 19.9844 559.688 19.9844C560.667 19.9844 561.333 19.5469 561.688 18.6719C561.88 18.2031 561.977 17.5599 561.977 16.7422V12.6328H563.383V21H562.055L562.07 19.7656C561.888 20.0833 561.661 20.3516 561.391 20.5703C560.854 21.0078 560.203 21.2266 559.438 21.2266C558.245 21.2266 557.432 20.8281 557 20.0312C556.766 19.6042 556.648 19.0339 556.648 18.3203V12.6328H558.086ZM569.117 20.0547C569.773 20.0547 570.318 19.7812 570.75 19.2344C571.188 18.6823 571.406 17.8594 571.406 16.7656C571.406 16.099 571.31 15.526 571.117 15.0469C570.753 14.125 570.086 13.6641 569.117 13.6641C568.143 13.6641 567.477 14.151 567.117 15.125C566.924 15.6458 566.828 16.3073 566.828 17.1094C566.828 17.7552 566.924 18.3047 567.117 18.7578C567.482 19.6224 568.148 20.0547 569.117 20.0547ZM565.477 12.6719H566.844V13.7812C567.125 13.401 567.432 13.1068 567.766 12.8984C568.24 12.5859 568.797 12.4297 569.438 12.4297C570.385 12.4297 571.19 12.7943 571.852 13.5234C572.513 14.2474 572.844 15.2839 572.844 16.6328C572.844 18.4557 572.367 19.7578 571.414 20.5391C570.81 21.0339 570.107 21.2812 569.305 21.2812C568.674 21.2812 568.146 21.1432 567.719 20.8672C567.469 20.7109 567.19 20.4427 566.883 20.0625V24.3359H565.477V12.6719ZM575.383 16.9141C575.383 17.8099 575.573 18.5599 575.953 19.1641C576.333 19.7682 576.943 20.0703 577.781 20.0703C578.432 20.0703 578.966 19.7917 579.383 19.2344C579.805 18.6719 580.016 17.8672 580.016 16.8203C580.016 15.763 579.799 14.9818 579.367 14.4766C578.935 13.9661 578.401 13.7109 577.766 13.7109C577.057 13.7109 576.482 13.9818 576.039 14.5234C575.602 15.0651 575.383 15.862 575.383 16.9141ZM577.5 12.4844C578.141 12.4844 578.677 12.6198 579.109 12.8906C579.359 13.0469 579.643 13.3203 579.961 13.7109V9.48438H581.312V21H580.047V19.8359C579.719 20.3516 579.331 20.724 578.883 20.9531C578.435 21.1823 577.922 21.2969 577.344 21.2969C576.411 21.2969 575.604 20.9062 574.922 20.125C574.24 19.3385 573.898 18.2943 573.898 16.9922C573.898 15.7734 574.208 14.7188 574.828 13.8281C575.453 12.9323 576.344 12.4844 577.5 12.4844ZM584.477 18.7734C584.477 19.1797 584.625 19.5 584.922 19.7344C585.219 19.9688 585.57 20.0859 585.977 20.0859C586.471 20.0859 586.951 19.9714 587.414 19.7422C588.195 19.362 588.586 18.7396 588.586 17.875V16.7422C588.414 16.8516 588.193 16.9427 587.922 17.0156C587.651 17.0885 587.385 17.1406 587.125 17.1719L586.273 17.2812C585.763 17.349 585.38 17.4557 585.125 17.6016C584.693 17.8464 584.477 18.237 584.477 18.7734ZM587.883 15.9297C588.206 15.888 588.422 15.7526 588.531 15.5234C588.594 15.3984 588.625 15.2188 588.625 14.9844C588.625 14.5052 588.453 14.1589 588.109 13.9453C587.771 13.7266 587.284 13.6172 586.648 13.6172C585.914 13.6172 585.393 13.8151 585.086 14.2109C584.914 14.4297 584.802 14.7552 584.75 15.1875H583.438C583.464 14.1562 583.797 13.4401 584.438 13.0391C585.083 12.6328 585.831 12.4297 586.68 12.4297C587.664 12.4297 588.464 12.6172 589.078 12.9922C589.688 13.3672 589.992 13.9505 589.992 14.7422V19.5625C589.992 19.7083 590.021 19.8255 590.078 19.9141C590.141 20.0026 590.268 20.0469 590.461 20.0469C590.523 20.0469 590.594 20.0443 590.672 20.0391C590.75 20.0286 590.833 20.0156 590.922 20V21.0391C590.703 21.1016 590.536 21.1406 590.422 21.1562C590.307 21.1719 590.151 21.1797 589.953 21.1797C589.469 21.1797 589.117 21.0078 588.898 20.6641C588.784 20.4818 588.703 20.224 588.656 19.8906C588.37 20.2656 587.958 20.5911 587.422 20.8672C586.885 21.1432 586.294 21.2812 585.648 21.2812C584.872 21.2812 584.237 21.0469 583.742 20.5781C583.253 20.1042 583.008 19.513 583.008 18.8047C583.008 18.0286 583.25 17.4271 583.734 17C584.219 16.5729 584.854 16.3099 585.641 16.2109L587.883 15.9297ZM592.586 10.2969H594.008V12.6328H595.344V13.7812H594.008V19.2422C594.008 19.5339 594.107 19.7292 594.305 19.8281C594.414 19.8854 594.596 19.9141 594.852 19.9141C594.919 19.9141 594.992 19.9141 595.07 19.9141C595.148 19.9089 595.24 19.901 595.344 19.8906V21C595.182 21.0469 595.013 21.0807 594.836 21.1016C594.664 21.1224 594.477 21.1328 594.273 21.1328C593.617 21.1328 593.172 20.9661 592.938 20.6328C592.703 20.2943 592.586 19.8568 592.586 19.3203V13.7812H591.453V12.6328H592.586V10.2969ZM600.242 12.4453C600.836 12.4453 601.411 12.5859 601.969 12.8672C602.526 13.1432 602.951 13.5026 603.242 13.9453C603.523 14.3672 603.711 14.8594 603.805 15.4219C603.888 15.8073 603.93 16.4219 603.93 17.2656H597.797C597.823 18.1146 598.023 18.7969 598.398 19.3125C598.773 19.8229 599.354 20.0781 600.141 20.0781C600.875 20.0781 601.461 19.8359 601.898 19.3516C602.148 19.0703 602.326 18.7448 602.43 18.375H603.812C603.776 18.6823 603.654 19.026 603.445 19.4062C603.242 19.7812 603.013 20.0885 602.758 20.3281C602.331 20.7448 601.802 21.026 601.172 21.1719C600.833 21.2552 600.451 21.2969 600.023 21.2969C598.982 21.2969 598.099 20.9193 597.375 20.1641C596.651 19.4036 596.289 18.3411 596.289 16.9766C596.289 15.6328 596.654 14.5417 597.383 13.7031C598.112 12.8646 599.065 12.4453 600.242 12.4453ZM602.484 16.1484C602.427 15.5391 602.294 15.0521 602.086 14.6875C601.701 14.0104 601.057 13.6719 600.156 13.6719C599.51 13.6719 598.969 13.9062 598.531 14.375C598.094 14.8385 597.862 15.4297 597.836 16.1484H602.484ZM606.555 16.9141C606.555 17.8099 606.745 18.5599 607.125 19.1641C607.505 19.7682 608.115 20.0703 608.953 20.0703C609.604 20.0703 610.138 19.7917 610.555 19.2344C610.977 18.6719 611.188 17.8672 611.188 16.8203C611.188 15.763 610.971 14.9818 610.539 14.4766C610.107 13.9661 609.573 13.7109 608.938 13.7109C608.229 13.7109 607.654 13.9818 607.211 14.5234C606.773 15.0651 606.555 15.862 606.555 16.9141ZM608.672 12.4844C609.312 12.4844 609.849 12.6198 610.281 12.8906C610.531 13.0469 610.815 13.3203 611.133 13.7109V9.48438H612.484V21H611.219V19.8359C610.891 20.3516 610.503 20.724 610.055 20.9531C609.607 21.1823 609.094 21.2969 608.516 21.2969C607.583 21.2969 606.776 20.9062 606.094 20.125C605.411 19.3385 605.07 18.2943 605.07 16.9922C605.07 15.7734 605.38 14.7188 606 13.8281C606.625 12.9323 607.516 12.4844 608.672 12.4844ZM619.859 18.375C619.901 18.8438 620.018 19.2031 620.211 19.4531C620.565 19.9062 621.18 20.1328 622.055 20.1328C622.576 20.1328 623.034 20.0208 623.43 19.7969C623.826 19.5677 624.023 19.2161 624.023 18.7422C624.023 18.3828 623.865 18.1094 623.547 17.9219C623.344 17.8073 622.943 17.6745 622.344 17.5234L621.227 17.2422C620.513 17.0651 619.987 16.8672 619.648 16.6484C619.044 16.2682 618.742 15.7422 618.742 15.0703C618.742 14.2786 619.026 13.638 619.594 13.1484C620.167 12.6589 620.935 12.4141 621.898 12.4141C623.159 12.4141 624.068 12.7839 624.625 13.5234C624.974 13.9922 625.143 14.4974 625.133 15.0391H623.805C623.779 14.7214 623.667 14.4323 623.469 14.1719C623.146 13.8021 622.586 13.6172 621.789 13.6172C621.258 13.6172 620.854 13.7188 620.578 13.9219C620.307 14.125 620.172 14.3932 620.172 14.7266C620.172 15.0911 620.352 15.3828 620.711 15.6016C620.919 15.7318 621.227 15.8464 621.633 15.9453L622.562 16.1719C623.573 16.4167 624.25 16.6536 624.594 16.8828C625.141 17.2422 625.414 17.8073 625.414 18.5781C625.414 19.3229 625.13 19.9661 624.562 20.5078C624 21.0495 623.141 21.3203 621.984 21.3203C620.74 21.3203 619.857 21.0391 619.336 20.4766C618.82 19.9089 618.544 19.2083 618.508 18.375H619.859ZM630.344 20.0938C631.276 20.0938 631.914 19.7422 632.258 19.0391C632.607 18.3307 632.781 17.5443 632.781 16.6797C632.781 15.8984 632.656 15.263 632.406 14.7734C632.01 14.0026 631.328 13.6172 630.359 13.6172C629.5 13.6172 628.875 13.9453 628.484 14.6016C628.094 15.2578 627.898 16.0495 627.898 16.9766C627.898 17.8672 628.094 18.6094 628.484 19.2031C628.875 19.7969 629.495 20.0938 630.344 20.0938ZM630.398 12.3906C631.477 12.3906 632.388 12.75 633.133 13.4688C633.878 14.1875 634.25 15.2448 634.25 16.6406C634.25 17.9896 633.922 19.1042 633.266 19.9844C632.609 20.8646 631.591 21.3047 630.211 21.3047C629.06 21.3047 628.146 20.9167 627.469 20.1406C626.792 19.3594 626.453 18.3125 626.453 17C626.453 15.5938 626.81 14.474 627.523 13.6406C628.237 12.8073 629.195 12.3906 630.398 12.3906ZM639.25 20.0938C640.182 20.0938 640.82 19.7422 641.164 19.0391C641.513 18.3307 641.688 17.5443 641.688 16.6797C641.688 15.8984 641.562 15.263 641.312 14.7734C640.917 14.0026 640.234 13.6172 639.266 13.6172C638.406 13.6172 637.781 13.9453 637.391 14.6016C637 15.2578 636.805 16.0495 636.805 16.9766C636.805 17.8672 637 18.6094 637.391 19.2031C637.781 19.7969 638.401 20.0938 639.25 20.0938ZM639.305 12.3906C640.383 12.3906 641.294 12.75 642.039 13.4688C642.784 14.1875 643.156 15.2448 643.156 16.6406C643.156 17.9896 642.828 19.1042 642.172 19.9844C641.516 20.8646 640.497 21.3047 639.117 21.3047C637.966 21.3047 637.052 20.9167 636.375 20.1406C635.698 19.3594 635.359 18.3125 635.359 17C635.359 15.5938 635.716 14.474 636.43 13.6406C637.143 12.8073 638.102 12.3906 639.305 12.3906ZM644.836 12.6328H646.172V13.8203C646.568 13.3307 646.987 12.9792 647.43 12.7656C647.872 12.5521 648.365 12.4453 648.906 12.4453C650.094 12.4453 650.896 12.8594 651.312 13.6875C651.542 14.1406 651.656 14.7891 651.656 15.6328V21H650.227V15.7266C650.227 15.2161 650.151 14.8047 650 14.4922C649.75 13.9714 649.297 13.7109 648.641 13.7109C648.307 13.7109 648.034 13.7448 647.82 13.8125C647.435 13.9271 647.096 14.1562 646.805 14.5C646.57 14.776 646.417 15.0625 646.344 15.3594C646.276 15.651 646.242 16.0703 646.242 16.6172V21H644.836V12.6328ZM654.078 19.2969H655.711V21H654.078V19.2969ZM667.672 9.21094C669.125 9.21094 670.253 9.59375 671.055 10.3594C671.857 11.125 672.302 11.9948 672.391 12.9688H670.875C670.703 12.2292 670.359 11.6432 669.844 11.2109C669.333 10.7786 668.615 10.5625 667.688 10.5625C666.557 10.5625 665.643 10.9609 664.945 11.7578C664.253 12.5495 663.906 13.7656 663.906 15.4062C663.906 16.75 664.219 17.8411 664.844 18.6797C665.474 19.513 666.411 19.9297 667.656 19.9297C668.802 19.9297 669.674 19.4896 670.273 18.6094C670.591 18.1458 670.828 17.5365 670.984 16.7812H672.5C672.365 17.9896 671.917 19.0026 671.156 19.8203C670.245 20.8047 669.016 21.2969 667.469 21.2969C666.135 21.2969 665.016 20.8932 664.109 20.0859C662.917 19.0182 662.32 17.3698 662.32 15.1406C662.32 13.4479 662.768 12.0599 663.664 10.9766C664.633 9.79948 665.969 9.21094 667.672 9.21094ZM677.531 20.0938C678.464 20.0938 679.102 19.7422 679.445 19.0391C679.794 18.3307 679.969 17.5443 679.969 16.6797C679.969 15.8984 679.844 15.263 679.594 14.7734C679.198 14.0026 678.516 13.6172 677.547 13.6172C676.688 13.6172 676.062 13.9453 675.672 14.6016C675.281 15.2578 675.086 16.0495 675.086 16.9766C675.086 17.8672 675.281 18.6094 675.672 19.2031C676.062 19.7969 676.682 20.0938 677.531 20.0938ZM677.586 12.3906C678.664 12.3906 679.576 12.75 680.32 13.4688C681.065 14.1875 681.438 15.2448 681.438 16.6406C681.438 17.9896 681.109 19.1042 680.453 19.9844C679.797 20.8646 678.779 21.3047 677.398 21.3047C676.247 21.3047 675.333 20.9167 674.656 20.1406C673.979 19.3594 673.641 18.3125 673.641 17C673.641 15.5938 673.997 14.474 674.711 13.6406C675.424 12.8073 676.383 12.3906 677.586 12.3906ZM683.117 12.6328H684.453V13.8203C684.849 13.3307 685.268 12.9792 685.711 12.7656C686.154 12.5521 686.646 12.4453 687.188 12.4453C688.375 12.4453 689.177 12.8594 689.594 13.6875C689.823 14.1406 689.938 14.7891 689.938 15.6328V21H688.508V15.7266C688.508 15.2161 688.432 14.8047 688.281 14.4922C688.031 13.9714 687.578 13.7109 686.922 13.7109C686.589 13.7109 686.315 13.7448 686.102 13.8125C685.716 13.9271 685.378 14.1562 685.086 14.5C684.852 14.776 684.698 15.0625 684.625 15.3594C684.557 15.651 684.523 16.0703 684.523 16.6172V21H683.117V12.6328ZM692.305 10.2969H693.727V12.6328H695.062V13.7812H693.727V19.2422C693.727 19.5339 693.826 19.7292 694.023 19.8281C694.133 19.8854 694.315 19.9141 694.57 19.9141C694.638 19.9141 694.711 19.9141 694.789 19.9141C694.867 19.9089 694.958 19.901 695.062 19.8906V21C694.901 21.0469 694.732 21.0807 694.555 21.1016C694.383 21.1224 694.195 21.1328 693.992 21.1328C693.336 21.1328 692.891 20.9661 692.656 20.6328C692.422 20.2943 692.305 19.8568 692.305 19.3203V13.7812H691.172V12.6328H692.305V10.2969ZM697.555 18.7734C697.555 19.1797 697.703 19.5 698 19.7344C698.297 19.9688 698.648 20.0859 699.055 20.0859C699.549 20.0859 700.029 19.9714 700.492 19.7422C701.273 19.362 701.664 18.7396 701.664 17.875V16.7422C701.492 16.8516 701.271 16.9427 701 17.0156C700.729 17.0885 700.464 17.1406 700.203 17.1719L699.352 17.2812C698.841 17.349 698.458 17.4557 698.203 17.6016C697.771 17.8464 697.555 18.237 697.555 18.7734ZM700.961 15.9297C701.284 15.888 701.5 15.7526 701.609 15.5234C701.672 15.3984 701.703 15.2188 701.703 14.9844C701.703 14.5052 701.531 14.1589 701.188 13.9453C700.849 13.7266 700.362 13.6172 699.727 13.6172C698.992 13.6172 698.471 13.8151 698.164 14.2109C697.992 14.4297 697.88 14.7552 697.828 15.1875H696.516C696.542 14.1562 696.875 13.4401 697.516 13.0391C698.161 12.6328 698.909 12.4297 699.758 12.4297C700.742 12.4297 701.542 12.6172 702.156 12.9922C702.766 13.3672 703.07 13.9505 703.07 14.7422V19.5625C703.07 19.7083 703.099 19.8255 703.156 19.9141C703.219 20.0026 703.346 20.0469 703.539 20.0469C703.602 20.0469 703.672 20.0443 703.75 20.0391C703.828 20.0286 703.911 20.0156 704 20V21.0391C703.781 21.1016 703.615 21.1406 703.5 21.1562C703.385 21.1719 703.229 21.1797 703.031 21.1797C702.547 21.1797 702.195 21.0078 701.977 20.6641C701.862 20.4818 701.781 20.224 701.734 19.8906C701.448 20.2656 701.036 20.5911 700.5 20.8672C699.964 21.1432 699.372 21.2812 698.727 21.2812C697.951 21.2812 697.315 21.0469 696.82 20.5781C696.331 20.1042 696.086 19.513 696.086 18.8047C696.086 18.0286 696.328 17.4271 696.812 17C697.297 16.5729 697.932 16.3099 698.719 16.2109L700.961 15.9297ZM708.609 12.3906C709.552 12.3906 710.318 12.6198 710.906 13.0781C711.5 13.5365 711.857 14.3255 711.977 15.4453H710.609C710.526 14.9297 710.336 14.5026 710.039 14.1641C709.742 13.8203 709.266 13.6484 708.609 13.6484C707.714 13.6484 707.073 14.0859 706.688 14.9609C706.438 15.5286 706.312 16.2292 706.312 17.0625C706.312 17.901 706.49 18.6068 706.844 19.1797C707.198 19.7526 707.755 20.0391 708.516 20.0391C709.099 20.0391 709.56 19.862 709.898 19.5078C710.242 19.1484 710.479 18.6589 710.609 18.0391H711.977C711.82 19.1484 711.43 19.9609 710.805 20.4766C710.18 20.987 709.38 21.2422 708.406 21.2422C707.312 21.2422 706.44 20.8438 705.789 20.0469C705.138 19.2448 704.812 18.2448 704.812 17.0469C704.812 15.5781 705.169 14.4349 705.883 13.6172C706.596 12.7995 707.505 12.3906 708.609 12.3906ZM713.664 10.2969H715.086V12.6328H716.422V13.7812H715.086V19.2422C715.086 19.5339 715.185 19.7292 715.383 19.8281C715.492 19.8854 715.674 19.9141 715.93 19.9141C715.997 19.9141 716.07 19.9141 716.148 19.9141C716.227 19.9089 716.318 19.901 716.422 19.8906V21C716.26 21.0469 716.091 21.0807 715.914 21.1016C715.742 21.1224 715.555 21.1328 715.352 21.1328C714.695 21.1328 714.25 20.9661 714.016 20.6328C713.781 20.2943 713.664 19.8568 713.664 19.3203V13.7812H712.531V12.6328H713.664V10.2969ZM722.289 12.6328H723.68V13.8203C724.013 13.4089 724.315 13.1094 724.586 12.9219C725.049 12.6042 725.576 12.4453 726.164 12.4453C726.831 12.4453 727.367 12.6094 727.773 12.9375C728.003 13.125 728.211 13.401 728.398 13.7656C728.711 13.3177 729.078 12.987 729.5 12.7734C729.922 12.5547 730.396 12.4453 730.922 12.4453C732.047 12.4453 732.812 12.8516 733.219 13.6641C733.438 14.1016 733.547 14.6901 733.547 15.4297V21H732.086V15.1875C732.086 14.6302 731.945 14.2474 731.664 14.0391C731.388 13.8307 731.049 13.7266 730.648 13.7266C730.096 13.7266 729.62 13.9115 729.219 14.2812C728.823 14.651 728.625 15.2682 728.625 16.1328V21H727.195V15.5391C727.195 14.9714 727.128 14.5573 726.992 14.2969C726.779 13.9062 726.38 13.7109 725.797 13.7109C725.266 13.7109 724.781 13.9167 724.344 14.3281C723.911 14.7396 723.695 15.4844 723.695 16.5625V21H722.289V12.6328ZM739.102 12.4453C739.695 12.4453 740.271 12.5859 740.828 12.8672C741.385 13.1432 741.81 13.5026 742.102 13.9453C742.383 14.3672 742.57 14.8594 742.664 15.4219C742.747 15.8073 742.789 16.4219 742.789 17.2656H736.656C736.682 18.1146 736.883 18.7969 737.258 19.3125C737.633 19.8229 738.214 20.0781 739 20.0781C739.734 20.0781 740.32 19.8359 740.758 19.3516C741.008 19.0703 741.185 18.7448 741.289 18.375H742.672C742.635 18.6823 742.513 19.026 742.305 19.4062C742.102 19.7812 741.872 20.0885 741.617 20.3281C741.19 20.7448 740.661 21.026 740.031 21.1719C739.693 21.2552 739.31 21.2969 738.883 21.2969C737.841 21.2969 736.958 20.9193 736.234 20.1641C735.51 19.4036 735.148 18.3411 735.148 16.9766C735.148 15.6328 735.513 14.5417 736.242 13.7031C736.971 12.8646 737.924 12.4453 739.102 12.4453ZM741.344 16.1484C741.286 15.5391 741.154 15.0521 740.945 14.6875C740.56 14.0104 739.917 13.6719 739.016 13.6719C738.37 13.6719 737.828 13.9062 737.391 14.375C736.953 14.8385 736.721 15.4297 736.695 16.1484H741.344ZM749.328 11.3594C749.349 10.776 749.451 10.349 749.633 10.0781C749.961 9.59896 750.594 9.35938 751.531 9.35938C751.62 9.35938 751.711 9.36198 751.805 9.36719C751.898 9.3724 752.005 9.38021 752.125 9.39062V10.6719C751.979 10.6615 751.872 10.6562 751.805 10.6562C751.742 10.651 751.682 10.6484 751.625 10.6484C751.198 10.6484 750.943 10.7604 750.859 10.9844C750.776 11.2031 750.734 11.7656 750.734 12.6719H752.125V13.7812H750.719V21H749.328V13.7812H748.164V12.6719H749.328V11.3594ZM756.75 20.0938C757.682 20.0938 758.32 19.7422 758.664 19.0391C759.013 18.3307 759.188 17.5443 759.188 16.6797C759.188 15.8984 759.062 15.263 758.812 14.7734C758.417 14.0026 757.734 13.6172 756.766 13.6172C755.906 13.6172 755.281 13.9453 754.891 14.6016C754.5 15.2578 754.305 16.0495 754.305 16.9766C754.305 17.8672 754.5 18.6094 754.891 19.2031C755.281 19.7969 755.901 20.0938 756.75 20.0938ZM756.805 12.3906C757.883 12.3906 758.794 12.75 759.539 13.4688C760.284 14.1875 760.656 15.2448 760.656 16.6406C760.656 17.9896 760.328 19.1042 759.672 19.9844C759.016 20.8646 757.997 21.3047 756.617 21.3047C755.466 21.3047 754.552 20.9167 753.875 20.1406C753.198 19.3594 752.859 18.3125 752.859 17C752.859 15.5938 753.216 14.474 753.93 13.6406C754.643 12.8073 755.602 12.3906 756.805 12.3906ZM762.375 12.6328H763.711V14.0781C763.82 13.7969 764.089 13.4557 764.516 13.0547C764.943 12.6484 765.435 12.4453 765.992 12.4453C766.018 12.4453 766.062 12.4479 766.125 12.4531C766.188 12.4583 766.294 12.4688 766.445 12.4844V13.9688C766.362 13.9531 766.284 13.9427 766.211 13.9375C766.143 13.9323 766.068 13.9297 765.984 13.9297C765.276 13.9297 764.732 14.1589 764.352 14.6172C763.971 15.0703 763.781 15.5938 763.781 16.1875V21H762.375V12.6328ZM772.117 12.6328H773.508V13.8203C773.841 13.4089 774.143 13.1094 774.414 12.9219C774.878 12.6042 775.404 12.4453 775.992 12.4453C776.659 12.4453 777.195 12.6094 777.602 12.9375C777.831 13.125 778.039 13.401 778.227 13.7656C778.539 13.3177 778.906 12.987 779.328 12.7734C779.75 12.5547 780.224 12.4453 780.75 12.4453C781.875 12.4453 782.641 12.8516 783.047 13.6641C783.266 14.1016 783.375 14.6901 783.375 15.4297V21H781.914V15.1875C781.914 14.6302 781.773 14.2474 781.492 14.0391C781.216 13.8307 780.878 13.7266 780.477 13.7266C779.924 13.7266 779.448 13.9115 779.047 14.2812C778.651 14.651 778.453 15.2682 778.453 16.1328V21H777.023V15.5391C777.023 14.9714 776.956 14.5573 776.82 14.2969C776.607 13.9062 776.208 13.7109 775.625 13.7109C775.094 13.7109 774.609 13.9167 774.172 14.3281C773.74 14.7396 773.523 15.4844 773.523 16.5625V21H772.117V12.6328ZM788.766 20.0938C789.698 20.0938 790.336 19.7422 790.68 19.0391C791.029 18.3307 791.203 17.5443 791.203 16.6797C791.203 15.8984 791.078 15.263 790.828 14.7734C790.432 14.0026 789.75 13.6172 788.781 13.6172C787.922 13.6172 787.297 13.9453 786.906 14.6016C786.516 15.2578 786.32 16.0495 786.32 16.9766C786.32 17.8672 786.516 18.6094 786.906 19.2031C787.297 19.7969 787.917 20.0938 788.766 20.0938ZM788.82 12.3906C789.898 12.3906 790.81 12.75 791.555 13.4688C792.299 14.1875 792.672 15.2448 792.672 16.6406C792.672 17.9896 792.344 19.1042 791.688 19.9844C791.031 20.8646 790.013 21.3047 788.633 21.3047C787.482 21.3047 786.568 20.9167 785.891 20.1406C785.214 19.3594 784.875 18.3125 784.875 17C784.875 15.5938 785.232 14.474 785.945 13.6406C786.659 12.8073 787.617 12.3906 788.82 12.3906ZM794.391 12.6328H795.727V14.0781C795.836 13.7969 796.104 13.4557 796.531 13.0547C796.958 12.6484 797.451 12.4453 798.008 12.4453C798.034 12.4453 798.078 12.4479 798.141 12.4531C798.203 12.4583 798.31 12.4688 798.461 12.4844V13.9688C798.378 13.9531 798.299 13.9427 798.227 13.9375C798.159 13.9323 798.083 13.9297 798 13.9297C797.292 13.9297 796.747 14.1589 796.367 14.6172C795.987 15.0703 795.797 15.5938 795.797 16.1875V21H794.391V12.6328ZM803.164 12.4453C803.758 12.4453 804.333 12.5859 804.891 12.8672C805.448 13.1432 805.872 13.5026 806.164 13.9453C806.445 14.3672 806.633 14.8594 806.727 15.4219C806.81 15.8073 806.852 16.4219 806.852 17.2656H800.719C800.745 18.1146 800.945 18.7969 801.32 19.3125C801.695 19.8229 802.276 20.0781 803.062 20.0781C803.797 20.0781 804.383 19.8359 804.82 19.3516C805.07 19.0703 805.247 18.7448 805.352 18.375H806.734C806.698 18.6823 806.576 19.026 806.367 19.4062C806.164 19.7812 805.935 20.0885 805.68 20.3281C805.253 20.7448 804.724 21.026 804.094 21.1719C803.755 21.2552 803.372 21.2969 802.945 21.2969C801.904 21.2969 801.021 20.9193 800.297 20.1641C799.573 19.4036 799.211 18.3411 799.211 16.9766C799.211 15.6328 799.576 14.5417 800.305 13.7031C801.034 12.8646 801.987 12.4453 803.164 12.4453ZM805.406 16.1484C805.349 15.5391 805.216 15.0521 805.008 14.6875C804.622 14.0104 803.979 13.6719 803.078 13.6719C802.432 13.6719 801.891 13.9062 801.453 14.375C801.016 14.8385 800.784 15.4297 800.758 16.1484H805.406ZM808.922 19.2969H810.555V21H808.922V19.2969Z" fill="black"/>
</g>
<defs>
<clipPath id="clip0_306_129">
<rect width="1227" height="30" fill="white"/>
</clipPath>
</defs>
</svg>
