<svg width="100" height="198" viewBox="0 0 100 198" fill="none" xmlns="http://www.w3.org/2000/svg">
<circle cx="50" cy="115" r="20" fill="url(#paint0_linear_48_8)"/>
<path d="M49.7 121.24C48.9667 121.24 48.2533 121.12 47.56 120.88C46.8667 120.627 46.3067 120.247 45.88 119.74L47.02 118.08L47.14 117.92L47.3 118.02C47.3267 118.127 47.3533 118.233 47.38 118.34C47.42 118.447 47.52 118.58 47.68 118.74C47.92 118.953 48.2 119.127 48.52 119.26C48.8533 119.38 49.2133 119.44 49.6 119.44C50.0267 119.44 50.3867 119.36 50.68 119.2C50.9733 119.027 51.1933 118.793 51.34 118.5C51.5 118.193 51.58 117.847 51.58 117.46C51.58 117.047 51.5067 116.7 51.36 116.42C51.2267 116.127 51.02 115.9 50.74 115.74C50.4733 115.58 50.1333 115.473 49.72 115.42C49.32 115.367 48.8467 115.373 48.3 115.44V113.68C48.8867 113.693 49.3733 113.653 49.76 113.56C50.1467 113.467 50.4533 113.333 50.68 113.16C50.9067 112.987 51.0667 112.787 51.16 112.56C51.2533 112.32 51.3 112.073 51.3 111.82C51.3 111.567 51.26 111.347 51.18 111.16C51.1 110.96 50.9867 110.793 50.84 110.66C50.7067 110.513 50.5333 110.407 50.32 110.34C50.12 110.26 49.8933 110.22 49.64 110.22C49.3733 110.22 49.1067 110.253 48.84 110.32C48.5867 110.387 48.34 110.493 48.1 110.64C47.8733 110.773 47.66 110.953 47.46 111.18L46.16 109.86C46.64 109.327 47.1933 108.947 47.82 108.72C48.46 108.48 49.0933 108.36 49.72 108.36C50.4533 108.36 51.1 108.5 51.66 108.78C52.2333 109.06 52.68 109.44 53 109.92C53.32 110.4 53.48 110.953 53.48 111.58C53.48 112.033 53.3867 112.447 53.2 112.82C53.0267 113.193 52.7867 113.513 52.48 113.78C52.1867 114.033 51.8733 114.233 51.54 114.38C51.9267 114.513 52.2933 114.713 52.64 114.98C53 115.247 53.2867 115.593 53.5 116.02C53.7267 116.433 53.84 116.94 53.84 117.54C53.84 118.22 53.6733 118.84 53.34 119.4C53.0067 119.96 52.5333 120.407 51.92 120.74C51.3067 121.073 50.5667 121.24 49.7 121.24Z" fill="white"/>
<line x1="50.5" x2="50.5" y2="95" stroke="url(#paint1_linear_48_8)"/>
<path d="M23.4091 178.364C23.4091 180.902 22.928 183.061 21.9659 184.841C21.0114 186.621 19.7083 187.981 18.0568 188.92C16.4129 189.852 14.5644 190.318 12.5114 190.318C10.4432 190.318 8.58712 189.848 6.94318 188.909C5.29924 187.97 4 186.61 3.04545 184.83C2.09091 183.049 1.61364 180.894 1.61364 178.364C1.61364 175.826 2.09091 173.667 3.04545 171.886C4 170.106 5.29924 168.75 6.94318 167.818C8.58712 166.879 10.4432 166.409 12.5114 166.409C14.5644 166.409 16.4129 166.879 18.0568 167.818C19.7083 168.75 21.0114 170.106 21.9659 171.886C22.928 173.667 23.4091 175.826 23.4091 178.364ZM18.4205 178.364C18.4205 176.72 18.1742 175.333 17.6818 174.205C17.197 173.076 16.5114 172.22 15.625 171.636C14.7386 171.053 13.7008 170.761 12.5114 170.761C11.322 170.761 10.2841 171.053 9.39773 171.636C8.51136 172.22 7.82197 173.076 7.32955 174.205C6.8447 175.333 6.60227 176.72 6.60227 178.364C6.60227 180.008 6.8447 181.394 7.32955 182.523C7.82197 183.652 8.51136 184.508 9.39773 185.091C10.2841 185.674 11.322 185.966 12.5114 185.966C13.7008 185.966 14.7386 185.674 15.625 185.091C16.5114 184.508 17.197 183.652 17.6818 182.523C18.1742 181.394 18.4205 180.008 18.4205 178.364ZM34.6472 172.545V176.182H24.1358V172.545H34.6472ZM26.5222 168.364H31.3631V184.636C31.3631 185.083 31.4312 185.432 31.5676 185.682C31.704 185.924 31.8934 186.095 32.1358 186.193C32.3858 186.292 32.6737 186.341 32.9994 186.341C33.2267 186.341 33.454 186.322 33.6812 186.284C33.9085 186.239 34.0828 186.205 34.204 186.182L34.9653 189.784C34.7229 189.86 34.382 189.947 33.9426 190.045C33.5032 190.152 32.9691 190.216 32.3403 190.239C31.1737 190.284 30.1509 190.129 29.2722 189.773C28.4009 189.417 27.7229 188.864 27.2381 188.114C26.7532 187.364 26.5146 186.417 26.5222 185.273V168.364ZM41.4165 179.909V190H36.5756V166.727H41.2801V175.625H41.4847C41.8786 174.595 42.515 173.788 43.3937 173.205C44.2725 172.614 45.3748 172.318 46.7006 172.318C47.9127 172.318 48.9695 172.583 49.871 173.114C50.7801 173.636 51.4847 174.39 51.9847 175.375C52.4922 176.352 52.7422 177.523 52.7347 178.886V190H47.8937V179.75C47.9013 178.674 47.6286 177.837 47.0756 177.239C46.5301 176.64 45.765 176.341 44.7801 176.341C44.121 176.341 43.5377 176.481 43.0301 176.761C42.5301 177.042 42.1362 177.451 41.8483 177.989C41.568 178.519 41.4241 179.159 41.4165 179.909ZM62.8989 190.341C61.1034 190.341 59.558 189.977 58.2625 189.25C56.9746 188.515 55.9822 187.477 55.2852 186.136C54.5883 184.788 54.2398 183.193 54.2398 181.352C54.2398 179.557 54.5883 177.981 55.2852 176.625C55.9822 175.269 56.9633 174.212 58.2284 173.455C59.5011 172.697 60.9936 172.318 62.7057 172.318C63.8572 172.318 64.9292 172.504 65.9216 172.875C66.9216 173.239 67.7928 173.788 68.5352 174.523C69.2852 175.258 69.8686 176.182 70.2852 177.295C70.7019 178.402 70.9102 179.697 70.9102 181.182V182.511H56.1716V179.511H66.3534C66.3534 178.814 66.2019 178.197 65.8989 177.659C65.5958 177.121 65.1754 176.701 64.6375 176.398C64.1072 176.087 63.4898 175.932 62.7852 175.932C62.0504 175.932 61.3989 176.102 60.8307 176.443C60.2701 176.777 59.8307 177.227 59.5125 177.795C59.1943 178.356 59.0314 178.981 59.0239 179.67V182.523C59.0239 183.386 59.183 184.133 59.5011 184.761C59.8269 185.39 60.2852 185.875 60.8761 186.216C61.467 186.557 62.1678 186.727 62.9784 186.727C63.5163 186.727 64.0087 186.652 64.4557 186.5C64.9027 186.348 65.2852 186.121 65.6034 185.818C65.9216 185.515 66.164 185.144 66.3307 184.705L70.808 185C70.5807 186.076 70.1148 187.015 69.4102 187.818C68.7133 188.614 67.8117 189.235 66.7057 189.682C65.6072 190.121 64.3383 190.341 62.8989 190.341ZM72.4693 190V172.545H77.1625V175.591H77.3443C77.6625 174.508 78.1966 173.689 78.9466 173.136C79.6966 172.576 80.5602 172.295 81.5375 172.295C81.7799 172.295 82.0413 172.311 82.3216 172.341C82.6019 172.371 82.8481 172.413 83.0602 172.466V176.761C82.833 176.693 82.5186 176.633 82.117 176.58C81.7155 176.527 81.3481 176.5 81.0148 176.5C80.3027 176.5 79.6663 176.655 79.1057 176.966C78.5527 177.269 78.1133 177.693 77.7875 178.239C77.4693 178.784 77.3102 179.413 77.3102 180.125V190H72.4693ZM98.4858 177.523L94.054 177.795C93.9782 177.417 93.8153 177.076 93.5653 176.773C93.3153 176.462 92.9858 176.216 92.5767 176.034C92.1752 175.845 91.6941 175.75 91.1335 175.75C90.3835 175.75 89.7509 175.909 89.2358 176.227C88.7206 176.538 88.4631 176.955 88.4631 177.477C88.4631 177.894 88.6297 178.246 88.9631 178.534C89.2964 178.822 89.8684 179.053 90.679 179.227L93.8381 179.864C95.535 180.212 96.8002 180.773 97.6335 181.545C98.4669 182.318 98.8835 183.333 98.8835 184.591C98.8835 185.735 98.5464 186.739 97.8722 187.602C97.2055 188.466 96.2888 189.14 95.1222 189.625C93.9631 190.102 92.6259 190.341 91.1108 190.341C88.8002 190.341 86.9593 189.86 85.5881 188.898C84.2244 187.928 83.4252 186.61 83.1903 184.943L87.9517 184.693C88.0956 185.398 88.4441 185.936 88.9972 186.307C89.5502 186.67 90.2585 186.852 91.1222 186.852C91.9706 186.852 92.6525 186.689 93.1676 186.364C93.6903 186.03 93.9555 185.602 93.9631 185.08C93.9555 184.64 93.7699 184.28 93.4062 184C93.0426 183.712 92.482 183.492 91.7244 183.341L88.7017 182.739C86.9972 182.398 85.7282 181.807 84.8949 180.966C84.0691 180.125 83.6562 179.053 83.6562 177.75C83.6562 176.629 83.9593 175.663 84.5653 174.852C85.179 174.042 86.0388 173.417 87.1449 172.977C88.2585 172.538 89.5616 172.318 91.054 172.318C93.2585 172.318 94.9934 172.784 96.2585 173.716C97.5313 174.648 98.2737 175.917 98.4858 177.523Z" fill="url(#paint2_linear_48_8)"/>
<defs>
<linearGradient id="paint0_linear_48_8" x1="29.0476" y1="115" x2="70" y2="115" gradientUnits="userSpaceOnUse">
<stop offset="0.0104167" stop-color="#7928CA"/>
<stop offset="0.260417" stop-color="#7928CA"/>
<stop offset="0.484375" stop-color="#7928CA"/>
<stop offset="0.911458" stop-color="#FF0080"/>
</linearGradient>
<linearGradient id="paint1_linear_48_8" x1="50.0001" y1="95" x2="50" y2="0" gradientUnits="userSpaceOnUse">
<stop offset="0.203125" stop-color="#7928CA"/>
<stop offset="0.46875" stop-color="#FF0080"/>
<stop offset="0.979167" stop-color="#FF0080" stop-opacity="0"/>
</linearGradient>
<linearGradient id="paint2_linear_48_8" x1="-6.38761e-07" y1="179" x2="97.5207" y2="179" gradientUnits="userSpaceOnUse">
<stop offset="0.0520833" stop-color="#7928CA"/>
<stop offset="1" stop-color="#FF0080"/>
</linearGradient>
</defs>
</svg>
