<svg width="121" height="198" viewBox="0 0 121 198" fill="none" xmlns="http://www.w3.org/2000/svg">
<circle cx="60" cy="115" r="20" fill="url(#paint0_linear_41_64)"/>
<path d="M59.16 121V111L56.9 111.8L56.42 110.3L59.74 108.54H61.42V121H59.16Z" fill="white"/>
<line x1="60.5" x2="60.5" y2="95" stroke="url(#paint1_linear_41_64)"/>
<path d="M2.32273 190V166.727H11.5045C13.2697 166.727 14.7735 167.064 16.0159 167.739C17.2583 168.405 18.2053 169.333 18.8568 170.523C19.5159 171.705 19.8455 173.068 19.8455 174.614C19.8455 176.159 19.5121 177.523 18.8455 178.705C18.1788 179.886 17.2129 180.807 15.9477 181.466C14.6902 182.125 13.1674 182.455 11.3795 182.455H5.52727V178.511H10.5841C11.5311 178.511 12.3114 178.348 12.925 178.023C13.5462 177.689 14.0083 177.231 14.3114 176.648C14.622 176.057 14.7773 175.379 14.7773 174.614C14.7773 173.841 14.622 173.167 14.3114 172.591C14.0083 172.008 13.5462 171.557 12.925 171.239C12.3038 170.913 11.5159 170.75 10.5614 170.75H7.24318V190H2.32273ZM21.3506 190V172.545H26.0437V175.591H26.2256C26.5437 174.508 27.0778 173.689 27.8278 173.136C28.5778 172.576 29.4415 172.295 30.4187 172.295C30.6612 172.295 30.9225 172.311 31.2028 172.341C31.4831 172.371 31.7294 172.413 31.9415 172.466V176.761C31.7142 176.693 31.3998 176.633 30.9983 176.58C30.5968 176.527 30.2294 176.5 29.896 176.5C29.1839 176.5 28.5475 176.655 27.9869 176.966C27.4339 177.269 26.9945 177.693 26.6687 178.239C26.3506 178.784 26.1915 179.413 26.1915 180.125V190H21.3506ZM39.9182 190.341C38.153 190.341 36.6265 189.966 35.3386 189.216C34.0583 188.458 33.0697 187.405 32.3727 186.057C31.6758 184.701 31.3273 183.129 31.3273 181.341C31.3273 179.538 31.6758 177.962 32.3727 176.614C33.0697 175.258 34.0583 174.205 35.3386 173.455C36.6265 172.697 38.153 172.318 39.9182 172.318C41.6833 172.318 43.2061 172.697 44.4864 173.455C45.7742 174.205 46.7667 175.258 47.4636 176.614C48.1606 177.962 48.5091 179.538 48.5091 181.341C48.5091 183.129 48.1606 184.701 47.4636 186.057C46.7667 187.405 45.7742 188.458 44.4864 189.216C43.2061 189.966 41.6833 190.341 39.9182 190.341ZM39.9409 186.591C40.7439 186.591 41.4144 186.364 41.9523 185.909C42.4902 185.447 42.8955 184.818 43.1682 184.023C43.4485 183.227 43.5886 182.322 43.5886 181.307C43.5886 180.292 43.4485 179.386 43.1682 178.591C42.8955 177.795 42.4902 177.167 41.9523 176.705C41.4144 176.242 40.7439 176.011 39.9409 176.011C39.1303 176.011 38.4485 176.242 37.8955 176.705C37.35 177.167 36.9371 177.795 36.6568 178.591C36.3841 179.386 36.2477 180.292 36.2477 181.307C36.2477 182.322 36.3841 183.227 36.6568 184.023C36.9371 184.818 37.35 185.447 37.8955 185.909C38.4485 186.364 39.1303 186.591 39.9409 186.591ZM50.1477 190V166.727H54.9886V175.477H55.1364C55.3485 175.008 55.6553 174.53 56.0568 174.045C56.4659 173.553 56.9962 173.144 57.6477 172.818C58.3068 172.485 59.125 172.318 60.1023 172.318C61.375 172.318 62.5492 172.652 63.625 173.318C64.7008 173.977 65.5606 174.973 66.2045 176.307C66.8485 177.633 67.1705 179.295 67.1705 181.295C67.1705 183.242 66.8561 184.886 66.2273 186.227C65.6061 187.561 64.7576 188.572 63.6818 189.261C62.6136 189.943 61.4167 190.284 60.0909 190.284C59.1515 190.284 58.3523 190.129 57.6932 189.818C57.0417 189.508 56.5076 189.117 56.0909 188.648C55.6742 188.17 55.3561 187.689 55.1364 187.205H54.9205V190H50.1477ZM54.8864 181.273C54.8864 182.311 55.0303 183.216 55.3182 183.989C55.6061 184.761 56.0227 185.364 56.5682 185.795C57.1136 186.22 57.7765 186.432 58.5568 186.432C59.3447 186.432 60.0114 186.216 60.5568 185.784C61.1023 185.345 61.5152 184.739 61.7955 183.966C62.0833 183.186 62.2273 182.288 62.2273 181.273C62.2273 180.265 62.0871 179.379 61.8068 178.614C61.5265 177.848 61.1136 177.25 60.5682 176.818C60.0227 176.386 59.3523 176.17 58.5568 176.17C57.7689 176.17 57.1023 176.379 56.5568 176.795C56.0189 177.212 55.6061 177.803 55.3182 178.568C55.0303 179.333 54.8864 180.235 54.8864 181.273ZM73.6415 166.727V190H68.8006V166.727H73.6415ZM83.8739 190.341C82.0784 190.341 80.533 189.977 79.2375 189.25C77.9496 188.515 76.9572 187.477 76.2602 186.136C75.5633 184.788 75.2148 183.193 75.2148 181.352C75.2148 179.557 75.5633 177.981 76.2602 176.625C76.9572 175.269 77.9383 174.212 79.2034 173.455C80.4761 172.697 81.9686 172.318 83.6807 172.318C84.8322 172.318 85.9042 172.504 86.8966 172.875C87.8966 173.239 88.7678 173.788 89.5102 174.523C90.2602 175.258 90.8436 176.182 91.2602 177.295C91.6769 178.402 91.8852 179.697 91.8852 181.182V182.511H77.1466V179.511H87.3284C87.3284 178.814 87.1769 178.197 86.8739 177.659C86.5708 177.121 86.1504 176.701 85.6125 176.398C85.0822 176.087 84.4648 175.932 83.7602 175.932C83.0254 175.932 82.3739 176.102 81.8057 176.443C81.2451 176.777 80.8057 177.227 80.4875 177.795C80.1693 178.356 80.0064 178.981 79.9989 179.67V182.523C79.9989 183.386 80.158 184.133 80.4761 184.761C80.8019 185.39 81.2602 185.875 81.8511 186.216C82.442 186.557 83.1428 186.727 83.9534 186.727C84.4913 186.727 84.9837 186.652 85.4307 186.5C85.8777 186.348 86.2602 186.121 86.5784 185.818C86.8966 185.515 87.139 185.144 87.3057 184.705L91.783 185C91.5557 186.076 91.0898 187.015 90.3852 187.818C89.6883 188.614 88.7867 189.235 87.6807 189.682C86.5822 190.121 85.3133 190.341 83.8739 190.341ZM93.4443 190V172.545H98.058V175.625H98.2625C98.6261 174.602 99.2322 173.795 100.081 173.205C100.929 172.614 101.944 172.318 103.126 172.318C104.323 172.318 105.342 172.617 106.183 173.216C107.024 173.807 107.584 174.61 107.865 175.625H108.047C108.403 174.625 109.047 173.826 109.978 173.227C110.918 172.621 112.028 172.318 113.308 172.318C114.937 172.318 116.259 172.837 117.274 173.875C118.297 174.905 118.808 176.367 118.808 178.261V190H113.978V179.216C113.978 178.246 113.721 177.519 113.206 177.034C112.691 176.549 112.047 176.307 111.274 176.307C110.395 176.307 109.709 176.587 109.217 177.148C108.725 177.701 108.478 178.432 108.478 179.341V190H103.785V179.114C103.785 178.258 103.539 177.576 103.047 177.068C102.562 176.561 101.922 176.307 101.126 176.307C100.588 176.307 100.103 176.443 99.6716 176.716C99.2473 176.981 98.9102 177.356 98.6602 177.841C98.4102 178.318 98.2852 178.879 98.2852 179.523V190H93.4443Z" fill="url(#paint2_linear_41_64)"/>
<defs>
<linearGradient id="paint0_linear_41_64" x1="39.0476" y1="115" x2="80" y2="115" gradientUnits="userSpaceOnUse">
<stop stop-color="#FF0F32"/>
<stop offset="0.53125" stop-color="#FF651B"/>
<stop offset="0.911458" stop-color="#FEC600"/>
</linearGradient>
<linearGradient id="paint1_linear_41_64" x1="60.0001" y1="95" x2="60" y2="0" gradientUnits="userSpaceOnUse">
<stop offset="0.130208" stop-color="#FF681A"/>
<stop offset="0.46875" stop-color="#FEC601"/>
<stop offset="0.979167" stop-color="#FEC601" stop-opacity="0"/>
</linearGradient>
<linearGradient id="paint2_linear_41_64" x1="-7.72901e-07" y1="179" x2="118" y2="179" gradientUnits="userSpaceOnUse">
<stop offset="0.294555" stop-color="#FF4D4D"/>
<stop offset="1" stop-color="#F9CB28"/>
</linearGradient>
</defs>
</svg>
