<svg width="16" height="20" viewBox="0 0 16 20" fill="none" xmlns="http://www.w3.org/2000/svg">
<path fill-rule="evenodd" clip-rule="evenodd" d="M2 0H14C15.1046 0 16 0.89543 16 2V12.76C15.9993 13.5554 15.6828 14.3179 15.12 14.88L10.88 19.12C10.3179 19.6828 9.55538 19.9993 8.76 20H2C0.89543 20 0 19.1046 0 18V2C0 0.89543 0.89543 0 2 0ZM14 12V2H2V18H8V13C8 12.4477 8.44771 12 9 12H14ZM4.5 6H11.5C11.7761 6 12 5.77614 12 5.5V4.5C12 4.22386 11.7761 4 11.5 4H4.5C4.22386 4 4 4.22386 4 4.5V5.5C4 5.77614 4.22386 6 4.5 6ZM8.5 10H4.5C4.22386 10 4 9.77614 4 9.5V8.5C4 8.22386 4.22386 8 4.5 8H8.5C8.77614 8 9 8.22386 9 8.5V9.5C9 9.77614 8.77614 10 8.5 10Z" fill="#1D1D1B"/>
</svg>
