<svg width="1227" height="110" viewBox="0 0 1227 110" fill="none" xmlns="http://www.w3.org/2000/svg">
<g clip-path="url(#clip0_243_95)">
<path d="M3.42188 101H1.17969V89.4844H4.67969L6.77344 98.5391L8.85156 89.4844H12.3125V101H10.0703V93.2109C10.0703 92.987 10.0729 92.6745 10.0781 92.2734C10.0833 91.8672 10.0859 91.5547 10.0859 91.3359L7.90625 101H5.57031L3.40625 91.3359C3.40625 91.5547 3.40885 91.8672 3.41406 92.2734C3.41927 92.6745 3.42188 92.987 3.42188 93.2109V101ZM19.6406 101.32C17.9948 101.32 16.737 100.872 15.8672 99.9766C14.7005 98.8776 14.1172 97.2943 14.1172 95.2266C14.1172 93.1172 14.7005 91.5339 15.8672 90.4766C16.737 89.5807 17.9948 89.1328 19.6406 89.1328C21.2865 89.1328 22.5443 89.5807 23.4141 90.4766C24.5755 91.5339 25.1562 93.1172 25.1562 95.2266C25.1562 97.2943 24.5755 98.8776 23.4141 99.9766C22.5443 100.872 21.2865 101.32 19.6406 101.32ZM21.9141 98.2266C22.4714 97.5234 22.75 96.5234 22.75 95.2266C22.75 93.9349 22.4688 92.9375 21.9062 92.2344C21.349 91.526 20.5938 91.1719 19.6406 91.1719C18.6875 91.1719 17.9271 91.5234 17.3594 92.2266C16.7917 92.9297 16.5078 93.9297 16.5078 95.2266C16.5078 96.5234 16.7917 97.5234 17.3594 98.2266C17.9271 98.9297 18.6875 99.2812 19.6406 99.2812C20.5938 99.2812 21.3516 98.9297 21.9141 98.2266ZM18.6406 85.875H20.6406L22.4688 88.2109H20.6562L19.6406 86.8984L18.6172 88.2109H16.8047L18.6406 85.875ZM38.3203 101V95.8594H33.8203V101H31.4375V89.4844H33.8203V93.875H38.3203V89.4844H40.7109V101H38.3203ZM42.8281 89.4844H45.2188V101H42.8281V89.4844ZM41.4062 86H43.8828L45.3828 88.3359H43.7734L41.4062 86ZM56.7812 101H54.375L49.6719 92.8203V101H47.4297V89.4844H49.9531L54.5391 97.5234V89.4844H56.7812V101ZM65.8984 101V95.8594H61.3984V101H59.0156V89.4844H61.3984V93.875H65.8984V89.4844H68.2891V101H65.8984ZM83.4141 89.4844V91.5234H79.9688V101H77.5469V91.5234H74.0859V89.4844H83.4141ZM84.6406 89.4844H87.0312V101H84.6406V89.4844ZM84.5312 88.3359L86.0312 86H88.5156L86.1406 88.3359H84.5312ZM97.4062 100.141C96.5469 100.927 95.4479 101.32 94.1094 101.32C92.4531 101.32 91.151 100.789 90.2031 99.7266C89.2552 98.6589 88.7812 97.1953 88.7812 95.3359C88.7812 93.3255 89.3203 91.776 90.3984 90.6875C91.3359 89.7396 92.5286 89.2656 93.9766 89.2656C95.9141 89.2656 97.3307 89.901 98.2266 91.1719C98.7214 91.8854 98.987 92.6016 99.0234 93.3203H96.6172C96.4609 92.7682 96.2604 92.3516 96.0156 92.0703C95.5781 91.5703 94.9297 91.3203 94.0703 91.3203C93.1953 91.3203 92.5052 91.6745 92 92.3828C91.4948 93.0859 91.2422 94.0833 91.2422 95.375C91.2422 96.6667 91.5078 97.6354 92.0391 98.2812C92.5755 98.9219 93.2552 99.2422 94.0781 99.2422C94.9219 99.2422 95.5651 98.9661 96.0078 98.4141C96.2526 98.1172 96.4557 97.6719 96.6172 97.0781H99C98.7917 98.3333 98.2604 99.3542 97.4062 100.141ZM107.711 101V95.8594H103.211V101H100.828V89.4844H103.211V93.875H107.711V89.4844H110.102V101H107.711ZM123.727 101V95.8594H119.227V101H116.844V89.4844H119.227V93.875H123.727V89.4844H126.117V101H123.727ZM138.141 91.5156L138.195 91.5234C138.555 91.5599 138.971 91.4609 139.445 91.2266L138.766 90.0547L140.781 88.8906L141.984 90.9766L140.242 91.9844C139.935 92.1615 139.591 92.3073 139.211 92.4219C139.008 92.4792 138.807 92.5104 138.609 92.5156C138.891 93.2969 139.031 94.2005 139.031 95.2266C139.031 97.2943 138.451 98.8776 137.289 99.9766C136.419 100.872 135.161 101.32 133.516 101.32C131.87 101.32 130.612 100.872 129.742 99.9766C128.576 98.8776 127.992 97.2943 127.992 95.2266C127.992 93.1172 128.576 91.5339 129.742 90.4766C130.612 89.5807 131.87 89.1328 133.516 89.1328C135.161 89.1328 136.419 89.5807 137.289 90.4766C137.622 90.7786 137.906 91.125 138.141 91.5156ZM130.383 95.2266C130.383 96.5234 130.667 97.5234 131.234 98.2266C131.802 98.9297 132.562 99.2812 133.516 99.2812C134.469 99.2812 135.224 98.9297 135.781 98.2266C136.344 97.5234 136.625 96.5234 136.625 95.2266C136.625 93.9349 136.344 92.9375 135.781 92.2344C135.224 91.526 134.469 91.1719 133.516 91.1719C132.562 91.1719 131.802 91.5234 131.234 92.2266C130.667 92.9297 130.383 93.9297 130.383 95.2266ZM132.727 102.273H134.758V104.125H132.727V102.273ZM148.453 96.8594H146.008V101H143.617V89.4844H148.633C149.789 89.4844 150.711 89.7812 151.398 90.375C152.086 90.9688 152.43 91.888 152.43 93.1328C152.43 94.4922 152.086 95.4531 151.398 96.0156C150.711 96.5781 149.729 96.8594 148.453 96.8594ZM149.578 94.4609C149.891 94.1849 150.047 93.7474 150.047 93.1484C150.047 92.5495 149.888 92.1224 149.57 91.8672C149.258 91.612 148.818 91.4844 148.25 91.4844H146.008V94.875H148.25C148.818 94.875 149.26 94.737 149.578 94.4609ZM165.469 100.719C164.833 101.109 164.052 101.305 163.125 101.305C161.599 101.305 160.349 100.776 159.375 99.7188C158.359 98.6562 157.852 97.2031 157.852 95.3594C157.852 93.4948 158.365 92 159.391 90.875C160.417 89.75 161.773 89.1875 163.461 89.1875C164.924 89.1875 166.099 89.5599 166.984 90.3047C167.875 91.0443 168.385 91.9688 168.516 93.0781H166.148C165.966 92.2917 165.521 91.7422 164.812 91.4297C164.417 91.2578 163.977 91.1719 163.492 91.1719C162.565 91.1719 161.802 91.5234 161.203 92.2266C160.609 92.9245 160.312 93.9766 160.312 95.3828C160.312 96.7995 160.635 97.8021 161.281 98.3906C161.927 98.9792 162.661 99.2734 163.484 99.2734C164.292 99.2734 164.953 99.0417 165.469 98.5781C165.984 98.1094 166.302 97.4974 166.422 96.7422H163.758V94.8203H168.555V101H166.961L166.719 99.5625C166.255 100.109 165.839 100.495 165.469 100.719ZM170.672 89.4844H173.062V101H170.672V89.4844ZM184.57 92.4766V96.5625C184.57 97.7865 184.38 98.7396 184 99.4219C183.292 100.672 181.94 101.297 179.945 101.297C177.951 101.297 176.596 100.672 175.883 99.4219C175.503 98.7396 175.312 97.7865 175.312 96.5625V89.4844H177.758V96.5625C177.758 97.3542 177.852 97.9323 178.039 98.2969C178.331 98.9427 178.966 99.2656 179.945 99.2656C180.919 99.2656 181.552 98.9427 181.844 98.2969C182.031 97.9323 182.125 97.3542 182.125 96.5625V89.4844H184.57V91.5234H184.617C184.977 91.5599 185.393 91.4609 185.867 91.2266L185.188 90.0547L187.203 88.8906L188.406 90.9766L186.664 91.9844C186.357 92.1615 186.013 92.3073 185.633 92.4219C185.273 92.526 184.919 92.5443 184.57 92.4766ZM181.266 87.8594C181.104 87.8594 180.875 87.8203 180.578 87.7422C180.406 87.7005 180.242 87.6536 180.086 87.6016L179.453 87.3906C179.365 87.3594 179.279 87.3385 179.195 87.3281C179.112 87.3125 179.029 87.3047 178.945 87.3047C178.747 87.3047 178.586 87.362 178.461 87.4766C178.336 87.5964 178.247 87.7604 178.195 87.9688H177.18C177.294 87.4323 177.443 87.026 177.625 86.75C177.958 86.2552 178.453 86.0078 179.109 86.0078C179.25 86.0078 179.388 86.0234 179.523 86.0547C179.659 86.0859 179.773 86.1198 179.867 86.1562L180.602 86.4297C180.82 86.5026 180.964 86.5495 181.031 86.5703C181.099 86.5911 181.174 86.6016 181.258 86.6016C181.508 86.6016 181.682 86.5365 181.781 86.4062C181.885 86.2708 181.961 86.112 182.008 85.9297H183.047C182.953 86.4766 182.766 86.9349 182.484 87.3047C182.208 87.6745 181.802 87.8594 181.266 87.8594ZM196.742 98.6328H192.5L191.703 101H189.188L193.297 89.4844H196.016L200.094 101H197.484L196.742 98.6328ZM196.07 96.6484L194.633 92.1172L193.148 96.6484H196.07ZM209.602 99.3359C210.169 99.3359 210.63 99.2734 210.984 99.1484C211.656 98.9089 211.992 98.4635 211.992 97.8125C211.992 97.4323 211.826 97.138 211.492 96.9297C211.159 96.7266 210.635 96.5469 209.922 96.3906L208.703 96.1172C207.505 95.8464 206.677 95.5521 206.219 95.2344C205.443 94.7031 205.055 93.8724 205.055 92.7422C205.055 91.7109 205.43 90.8542 206.18 90.1719C206.93 89.4896 208.031 89.1484 209.484 89.1484C210.698 89.1484 211.732 89.4714 212.586 90.1172C213.445 90.7578 213.896 91.6901 213.938 92.9141H211.625C211.583 92.2214 211.281 91.7292 210.719 91.4375C210.344 91.2448 209.878 91.1484 209.32 91.1484C208.701 91.1484 208.206 91.2734 207.836 91.5234C207.466 91.7734 207.281 92.1224 207.281 92.5703C207.281 92.9818 207.464 93.2891 207.828 93.4922C208.062 93.6276 208.562 93.7865 209.328 93.9688L211.312 94.4453C212.182 94.6536 212.839 94.9323 213.281 95.2812C213.969 95.8229 214.312 96.6068 214.312 97.6328C214.312 98.6849 213.909 99.5599 213.102 100.258C212.299 100.951 211.164 101.297 209.695 101.297C208.195 101.297 207.016 100.956 206.156 100.273C205.297 99.5859 204.867 98.6432 204.867 97.4453H207.164C207.237 97.9714 207.38 98.3646 207.594 98.625C207.984 99.099 208.654 99.3359 209.602 99.3359ZM222.836 98.6328H218.594L217.797 101H215.281L219.391 89.4844H222.109L226.188 101H223.578L222.836 98.6328ZM222.164 96.6484L220.727 92.1172L219.242 96.6484H222.164ZM232.547 96.8594H230.102V101H227.711V89.4844H232.727C233.883 89.4844 234.805 89.7812 235.492 90.375C236.18 90.9688 236.523 91.888 236.523 93.1328C236.523 94.4922 236.18 95.4531 235.492 96.0156C234.805 96.5781 233.823 96.8594 232.547 96.8594ZM233.672 94.4609C233.984 94.1849 234.141 93.7474 234.141 93.1484C234.141 92.5495 233.982 92.1224 233.664 91.8672C233.352 91.612 232.911 91.4844 232.344 91.4844H230.102V94.875H232.344C232.911 94.875 233.354 94.737 233.672 94.4609ZM241.648 95.4844H246.133V97.5938H241.648V95.4844ZM256.461 99.3359C257.029 99.3359 257.49 99.2734 257.844 99.1484C258.516 98.9089 258.852 98.4635 258.852 97.8125C258.852 97.4323 258.685 97.138 258.352 96.9297C258.018 96.7266 257.495 96.5469 256.781 96.3906L255.562 96.1172C254.365 95.8464 253.536 95.5521 253.078 95.2344C252.302 94.7031 251.914 93.8724 251.914 92.7422C251.914 91.7109 252.289 90.8542 253.039 90.1719C253.789 89.4896 254.891 89.1484 256.344 89.1484C257.557 89.1484 258.591 89.4714 259.445 90.1172C260.305 90.7578 260.755 91.6901 260.797 92.9141H258.484C258.443 92.2214 258.141 91.7292 257.578 91.4375C257.203 91.2448 256.737 91.1484 256.18 91.1484C255.56 91.1484 255.065 91.2734 254.695 91.5234C254.326 91.7734 254.141 92.1224 254.141 92.5703C254.141 92.9818 254.323 93.2891 254.688 93.4922C254.922 93.6276 255.422 93.7865 256.188 93.9688L258.172 94.4453C259.042 94.6536 259.698 94.9323 260.141 95.2812C260.828 95.8229 261.172 96.6068 261.172 97.6328C261.172 98.6849 260.768 99.5599 259.961 100.258C259.159 100.951 258.023 101.297 256.555 101.297C255.055 101.297 253.875 100.956 253.016 100.273C252.156 99.5859 251.727 98.6432 251.727 97.4453H254.023C254.096 97.9714 254.24 98.3646 254.453 98.625C254.844 99.099 255.513 99.3359 256.461 99.3359ZM267.844 96.8594H265.398V101H263.008V89.4844H268.023C269.18 89.4844 270.102 89.7812 270.789 90.375C271.477 90.9688 271.82 91.888 271.82 93.1328C271.82 94.4922 271.477 95.4531 270.789 96.0156C270.102 96.5781 269.12 96.8594 267.844 96.8594ZM268.969 94.4609C269.281 94.1849 269.438 93.7474 269.438 93.1484C269.438 92.5495 269.279 92.1224 268.961 91.8672C268.648 91.612 268.208 91.4844 267.641 91.4844H265.398V94.875H267.641C268.208 94.875 268.651 94.737 268.969 94.4609ZM278.516 96.4844H276.031V101H273.68V89.4844H279.328C280.135 89.5 280.755 89.599 281.188 89.7812C281.625 89.9635 281.995 90.2318 282.297 90.5859C282.547 90.8776 282.745 91.2005 282.891 91.5547C283.036 91.9089 283.109 92.3125 283.109 92.7656C283.109 93.3125 282.971 93.8516 282.695 94.3828C282.419 94.9089 281.964 95.2812 281.328 95.5C281.859 95.7135 282.234 96.0182 282.453 96.4141C282.677 96.8047 282.789 97.4036 282.789 98.2109V98.9844C282.789 99.5104 282.81 99.8672 282.852 100.055C282.914 100.352 283.06 100.57 283.289 100.711V101H280.641C280.568 100.745 280.516 100.539 280.484 100.383C280.422 100.06 280.388 99.7292 280.383 99.3906L280.367 98.3203C280.357 97.5859 280.221 97.0964 279.961 96.8516C279.706 96.6068 279.224 96.4844 278.516 96.4844ZM279.977 94.3906C280.456 94.1719 280.695 93.7396 280.695 93.0938C280.695 92.3958 280.464 91.9271 280 91.6875C279.74 91.5521 279.349 91.4844 278.828 91.4844H276.031V94.5781H278.758C279.299 94.5781 279.706 94.5156 279.977 94.3906ZM290.281 101.32C288.635 101.32 287.378 100.872 286.508 99.9766C285.341 98.8776 284.758 97.2943 284.758 95.2266C284.758 93.1172 285.341 91.5339 286.508 90.4766C287.378 89.5807 288.635 89.1328 290.281 89.1328C291.927 89.1328 293.185 89.5807 294.055 90.4766C295.216 91.5339 295.797 93.1172 295.797 95.2266C295.797 97.2943 295.216 98.8776 294.055 99.9766C293.185 100.872 291.927 101.32 290.281 101.32ZM292.555 98.2266C293.112 97.5234 293.391 96.5234 293.391 95.2266C293.391 93.9349 293.109 92.9375 292.547 92.2344C291.99 91.526 291.234 91.1719 290.281 91.1719C289.328 91.1719 288.568 91.5234 288 92.2266C287.432 92.9297 287.148 93.9297 287.148 95.2266C287.148 96.5234 287.432 97.5234 288 98.2266C288.568 98.9297 289.328 99.2812 290.281 99.2812C291.234 99.2812 291.992 98.9297 292.555 98.2266ZM301.242 95.4844H305.727V97.5938H301.242V95.4844ZM316.055 99.3359C316.622 99.3359 317.083 99.2734 317.438 99.1484C318.109 98.9089 318.445 98.4635 318.445 97.8125C318.445 97.4323 318.279 97.138 317.945 96.9297C317.612 96.7266 317.089 96.5469 316.375 96.3906L315.156 96.1172C313.958 95.8464 313.13 95.5521 312.672 95.2344C311.896 94.7031 311.508 93.8724 311.508 92.7422C311.508 91.7109 311.883 90.8542 312.633 90.1719C313.383 89.4896 314.484 89.1484 315.938 89.1484C317.151 89.1484 318.185 89.4714 319.039 90.1172C319.898 90.7578 320.349 91.6901 320.391 92.9141H318.078C318.036 92.2214 317.734 91.7292 317.172 91.4375C316.797 91.2448 316.331 91.1484 315.773 91.1484C315.154 91.1484 314.659 91.2734 314.289 91.5234C313.919 91.7734 313.734 92.1224 313.734 92.5703C313.734 92.9818 313.917 93.2891 314.281 93.4922C314.516 93.6276 315.016 93.7865 315.781 93.9688L317.766 94.4453C318.635 94.6536 319.292 94.9323 319.734 95.2812C320.422 95.8229 320.766 96.6068 320.766 97.6328C320.766 98.6849 320.362 99.5599 319.555 100.258C318.753 100.951 317.617 101.297 316.148 101.297C314.648 101.297 313.469 100.956 312.609 100.273C311.75 99.5859 311.32 98.6432 311.32 97.4453H313.617C313.69 97.9714 313.833 98.3646 314.047 98.625C314.438 99.099 315.107 99.3359 316.055 99.3359ZM327.508 101H322.547V89.4844H327.508C328.221 89.4948 328.815 89.5781 329.289 89.7344C330.096 90 330.75 90.487 331.25 91.1953C331.651 91.7682 331.924 92.388 332.07 93.0547C332.216 93.7214 332.289 94.3568 332.289 94.9609C332.289 96.4922 331.982 97.7891 331.367 98.8516C330.534 100.284 329.247 101 327.508 101ZM329.297 92.4219C328.927 91.7969 328.195 91.4844 327.102 91.4844H324.883V99H327.102C328.237 99 329.029 98.4401 329.477 97.3203C329.721 96.7057 329.844 95.974 329.844 95.125C329.844 93.9531 329.661 93.0521 329.297 92.4219ZM342.742 99.3359C343.31 99.3359 343.771 99.2734 344.125 99.1484C344.797 98.9089 345.133 98.4635 345.133 97.8125C345.133 97.4323 344.966 97.138 344.633 96.9297C344.299 96.7266 343.776 96.5469 343.062 96.3906L341.844 96.1172C340.646 95.8464 339.818 95.5521 339.359 95.2344C338.583 94.7031 338.195 93.8724 338.195 92.7422C338.195 91.7109 338.57 90.8542 339.32 90.1719C340.07 89.4896 341.172 89.1484 342.625 89.1484C343.839 89.1484 344.872 89.4714 345.727 90.1172C346.586 90.7578 347.036 91.6901 347.078 92.9141H344.766C344.724 92.2214 344.422 91.7292 343.859 91.4375C343.484 91.2448 343.018 91.1484 342.461 91.1484C341.841 91.1484 341.346 91.2734 340.977 91.5234C340.607 91.7734 340.422 92.1224 340.422 92.5703C340.422 92.9818 340.604 93.2891 340.969 93.4922C341.203 93.6276 341.703 93.7865 342.469 93.9688L344.453 94.4453C345.323 94.6536 345.979 94.9323 346.422 95.2812C347.109 95.8229 347.453 96.6068 347.453 97.6328C347.453 98.6849 347.049 99.5599 346.242 100.258C345.44 100.951 344.305 101.297 342.836 101.297C341.336 101.297 340.156 100.956 339.297 100.273C338.438 99.5859 338.008 98.6432 338.008 97.4453H340.305C340.378 97.9714 340.521 98.3646 340.734 98.625C341.125 99.099 341.794 99.3359 342.742 99.3359ZM357.25 95.9688H351.656V98.9297H358.031V101H349.305V89.4844H357.75V91.5234H351.656V93.9688H357.25V95.9688ZM364.797 96.4844H362.312V101H359.961V89.4844H365.609C366.417 89.5 367.036 89.599 367.469 89.7812C367.906 89.9635 368.276 90.2318 368.578 90.5859C368.828 90.8776 369.026 91.2005 369.172 91.5547C369.318 91.9089 369.391 92.3125 369.391 92.7656C369.391 93.3125 369.253 93.8516 368.977 94.3828C368.701 94.9089 368.245 95.2812 367.609 95.5C368.141 95.7135 368.516 96.0182 368.734 96.4141C368.958 96.8047 369.07 97.4036 369.07 98.2109V98.9844C369.07 99.5104 369.091 99.8672 369.133 100.055C369.195 100.352 369.341 100.57 369.57 100.711V101H366.922C366.849 100.745 366.797 100.539 366.766 100.383C366.703 100.06 366.669 99.7292 366.664 99.3906L366.648 98.3203C366.638 97.5859 366.503 97.0964 366.242 96.8516C365.987 96.6068 365.505 96.4844 364.797 96.4844ZM366.258 94.3906C366.737 94.1719 366.977 93.7396 366.977 93.0938C366.977 92.3958 366.745 91.9271 366.281 91.6875C366.021 91.5521 365.63 91.4844 365.109 91.4844H362.312V94.5781H365.039C365.581 94.5781 365.987 94.5156 366.258 94.3906ZM370.336 89.4844H372.906L375.406 98.2266L377.93 89.4844H380.43L376.5 101H374.227L370.336 89.4844ZM381.672 89.4844H384.062V101H381.672V89.4844ZM394.438 100.141C393.578 100.927 392.479 101.32 391.141 101.32C389.484 101.32 388.182 100.789 387.234 99.7266C386.286 98.6589 385.812 97.1953 385.812 95.3359C385.812 93.3255 386.352 91.776 387.43 90.6875C388.367 89.7396 389.56 89.2656 391.008 89.2656C392.945 89.2656 394.362 89.901 395.258 91.1719C395.753 91.8854 396.018 92.6016 396.055 93.3203H393.648C393.492 92.7682 393.292 92.3516 393.047 92.0703C392.609 91.5703 391.961 91.3203 391.102 91.3203C390.227 91.3203 389.536 91.6745 389.031 92.3828C388.526 93.0859 388.273 94.0833 388.273 95.375C388.273 96.6667 388.539 97.6354 389.07 98.2812C389.607 98.9219 390.286 99.2422 391.109 99.2422C391.953 99.2422 392.596 98.9661 393.039 98.4141C393.284 98.1172 393.487 97.6719 393.648 97.0781H396.031C395.823 98.3333 395.292 99.3542 394.438 100.141ZM405.891 95.9688H400.297V98.9297H406.672V101H397.945V89.4844H406.391V91.5234H400.297V93.9688H405.891V95.9688ZM412.727 99.3359C413.294 99.3359 413.755 99.2734 414.109 99.1484C414.781 98.9089 415.117 98.4635 415.117 97.8125C415.117 97.4323 414.951 97.138 414.617 96.9297C414.284 96.7266 413.76 96.5469 413.047 96.3906L411.828 96.1172C410.63 95.8464 409.802 95.5521 409.344 95.2344C408.568 94.7031 408.18 93.8724 408.18 92.7422C408.18 91.7109 408.555 90.8542 409.305 90.1719C410.055 89.4896 411.156 89.1484 412.609 89.1484C413.823 89.1484 414.857 89.4714 415.711 90.1172C416.57 90.7578 417.021 91.6901 417.062 92.9141H414.75C414.708 92.2214 414.406 91.7292 413.844 91.4375C413.469 91.2448 413.003 91.1484 412.445 91.1484C411.826 91.1484 411.331 91.2734 410.961 91.5234C410.591 91.7734 410.406 92.1224 410.406 92.5703C410.406 92.9818 410.589 93.2891 410.953 93.4922C411.188 93.6276 411.688 93.7865 412.453 93.9688L414.438 94.4453C415.307 94.6536 415.964 94.9323 416.406 95.2812C417.094 95.8229 417.438 96.6068 417.438 97.6328C417.438 98.6849 417.034 99.5599 416.227 100.258C415.424 100.951 414.289 101.297 412.82 101.297C411.32 101.297 410.141 100.956 409.281 100.273C408.422 99.5859 407.992 98.6432 407.992 97.4453H410.289C410.362 97.9714 410.505 98.3646 410.719 98.625C411.109 99.099 411.779 99.3359 412.727 99.3359Z" fill="#303E45"/>
<path d="M15.5205 46.2158C17.1527 46.2158 18.4779 46.0361 19.4961 45.6768C21.4277 44.988 22.3936 43.7077 22.3936 41.8359C22.3936 40.7428 21.9144 39.8968 20.9561 39.2979C19.9977 38.7139 18.4928 38.1973 16.4414 37.748L12.9375 36.9619C9.49349 36.1833 7.11263 35.3372 5.79492 34.4238C3.5638 32.8965 2.44824 30.5081 2.44824 27.2588C2.44824 24.2939 3.52637 21.8307 5.68262 19.8691C7.83887 17.9076 11.0059 16.9268 15.1836 16.9268C18.6725 16.9268 21.6449 17.8551 24.1006 19.7119C26.5713 21.5537 27.8665 24.234 27.9863 27.7529H21.3379C21.2181 25.7614 20.3496 24.3464 18.7324 23.5078C17.6543 22.9538 16.3141 22.6768 14.7119 22.6768C12.93 22.6768 11.5075 23.0361 10.4443 23.7549C9.38118 24.4736 8.84961 25.4769 8.84961 26.7646C8.84961 27.9476 9.3737 28.8311 10.4219 29.415C11.0957 29.8044 12.5332 30.2611 14.7344 30.7852L20.4395 32.1553C22.9401 32.7542 24.8268 33.5553 26.0996 34.5586C28.0762 36.1159 29.0645 38.3695 29.0645 41.3193C29.0645 44.3441 27.904 46.8597 25.583 48.8662C23.277 50.8577 20.0127 51.8535 15.79 51.8535C11.4775 51.8535 8.08594 50.8727 5.61523 48.9111C3.14453 46.9346 1.90918 44.2243 1.90918 40.7803H8.5127C8.72233 42.2926 9.13411 43.4232 9.74805 44.1719C10.8711 45.5345 12.7952 46.2158 15.5205 46.2158ZM48.8301 51.9209C44.0983 51.9209 40.4821 50.6331 37.9814 48.0576C34.6273 44.8981 32.9502 40.346 32.9502 34.4014C32.9502 28.3369 34.6273 23.7848 37.9814 20.7451C40.4821 18.1696 44.0983 16.8818 48.8301 16.8818C53.5618 16.8818 57.1781 18.1696 59.6787 20.7451C63.0179 23.7848 64.6875 28.3369 64.6875 34.4014C64.6875 40.346 63.0179 44.8981 59.6787 48.0576C57.1781 50.6331 53.5618 51.9209 48.8301 51.9209ZM55.3662 43.0264C56.9684 41.0049 57.7695 38.1299 57.7695 34.4014C57.7695 30.6878 56.9609 27.8203 55.3438 25.7988C53.7415 23.7624 51.5703 22.7441 48.8301 22.7441C46.0898 22.7441 43.9036 23.7549 42.2715 25.7764C40.6393 27.7979 39.8232 30.6729 39.8232 34.4014C39.8232 38.1299 40.6393 41.0049 42.2715 43.0264C43.9036 45.0479 46.0898 46.0586 48.8301 46.0586C51.5703 46.0586 53.749 45.0479 55.3662 43.0264ZM76.3223 51H69.876V17.8926H79.9385L85.958 43.9248L91.9326 17.8926H101.883V51H95.4365V28.6064C95.4365 27.9626 95.444 27.0641 95.459 25.9111C95.474 24.7432 95.4814 23.8447 95.4814 23.2158L89.2148 51H82.499L76.2773 23.2158C76.2773 23.8447 76.2848 24.7432 76.2998 25.9111C76.3148 27.0641 76.3223 27.9626 76.3223 28.6064V51ZM131.352 36.5352H115.27V45.0479H133.598V51H108.509V17.8926H132.789V23.7549H115.27V30.7852H131.352V36.5352ZM166.436 51.9209C161.704 51.9209 158.088 50.6331 155.587 48.0576C152.233 44.8981 150.556 40.346 150.556 34.4014C150.556 28.3369 152.233 23.7848 155.587 20.7451C158.088 18.1696 161.704 16.8818 166.436 16.8818C171.167 16.8818 174.784 18.1696 177.284 20.7451C180.623 23.7848 182.293 28.3369 182.293 34.4014C182.293 40.346 180.623 44.8981 177.284 48.0576C174.784 50.6331 171.167 51.9209 166.436 51.9209ZM172.972 43.0264C174.574 41.0049 175.375 38.1299 175.375 34.4014C175.375 30.6878 174.566 27.8203 172.949 25.7988C171.347 23.7624 169.176 22.7441 166.436 22.7441C163.695 22.7441 161.509 23.7549 159.877 25.7764C158.245 27.7979 157.429 30.6729 157.429 34.4014C157.429 38.1299 158.245 41.0049 159.877 43.0264C161.509 45.0479 163.695 46.0586 166.436 46.0586C169.176 46.0586 171.354 45.0479 172.972 43.0264ZM207.18 38.2422V17.8926H214.21V38.2422C214.21 41.7611 213.663 44.5013 212.57 46.4629C210.534 50.0566 206.648 51.8535 200.913 51.8535C195.178 51.8535 191.285 50.0566 189.233 46.4629C188.14 44.5013 187.594 41.7611 187.594 38.2422V17.8926H194.624V38.2422C194.624 40.5182 194.894 42.1803 195.433 43.2285C196.271 45.0853 198.098 46.0137 200.913 46.0137C203.713 46.0137 205.533 45.0853 206.371 43.2285C206.91 42.1803 207.18 40.5182 207.18 38.2422ZM244.892 17.8926V23.7549H234.986V51H228.023V23.7549H218.073V17.8926H244.892ZM263.018 39.0957H255.987V51H249.114V17.8926H263.534C266.858 17.8926 269.509 18.7461 271.485 20.4531C273.462 22.1602 274.45 24.8031 274.45 28.3818C274.45 32.29 273.462 35.0527 271.485 36.6699C269.509 38.2871 266.686 39.0957 263.018 39.0957ZM266.252 32.2002C267.15 31.4066 267.6 30.1488 267.6 28.4268C267.6 26.7048 267.143 25.4769 266.229 24.7432C265.331 24.0094 264.066 23.6426 262.434 23.6426H255.987V33.3906H262.434C264.066 33.3906 265.339 32.9938 266.252 32.2002ZM299.225 38.2422V17.8926H306.255V38.2422C306.255 41.7611 305.708 44.5013 304.615 46.4629C302.579 50.0566 298.693 51.8535 292.958 51.8535C287.223 51.8535 283.33 50.0566 281.278 46.4629C280.185 44.5013 279.639 41.7611 279.639 38.2422V17.8926H286.669V38.2422C286.669 40.5182 286.938 42.1803 287.478 43.2285C288.316 45.0853 290.143 46.0137 292.958 46.0137C295.758 46.0137 297.577 45.0853 298.416 43.2285C298.955 42.1803 299.225 40.5182 299.225 38.2422ZM336.937 17.8926V23.7549H327.031V51H320.068V23.7549H310.118V17.8926H336.937Z" fill="#F5F5F5"/>
<path d="M15.5205 46.2158C17.1527 46.2158 18.4779 46.0361 19.4961 45.6768C21.4277 44.988 22.3936 43.7077 22.3936 41.8359C22.3936 40.7428 21.9144 39.8968 20.9561 39.2979C19.9977 38.7139 18.4928 38.1973 16.4414 37.748L12.9375 36.9619C9.49349 36.1833 7.11263 35.3372 5.79492 34.4238C3.5638 32.8965 2.44824 30.5081 2.44824 27.2588C2.44824 24.2939 3.52637 21.8307 5.68262 19.8691C7.83887 17.9076 11.0059 16.9268 15.1836 16.9268C18.6725 16.9268 21.6449 17.8551 24.1006 19.7119C26.5713 21.5537 27.8665 24.234 27.9863 27.7529H21.3379C21.2181 25.7614 20.3496 24.3464 18.7324 23.5078C17.6543 22.9538 16.3141 22.6768 14.7119 22.6768C12.93 22.6768 11.5075 23.0361 10.4443 23.7549C9.38118 24.4736 8.84961 25.4769 8.84961 26.7646C8.84961 27.9476 9.3737 28.8311 10.4219 29.415C11.0957 29.8044 12.5332 30.2611 14.7344 30.7852L20.4395 32.1553C22.9401 32.7542 24.8268 33.5553 26.0996 34.5586C28.0762 36.1159 29.0645 38.3695 29.0645 41.3193C29.0645 44.3441 27.904 46.8597 25.583 48.8662C23.277 50.8577 20.0127 51.8535 15.79 51.8535C11.4775 51.8535 8.08594 50.8727 5.61523 48.9111C3.14453 46.9346 1.90918 44.2243 1.90918 40.7803H8.5127C8.72233 42.2926 9.13411 43.4232 9.74805 44.1719C10.8711 45.5345 12.7952 46.2158 15.5205 46.2158ZM48.8301 51.9209C44.0983 51.9209 40.4821 50.6331 37.9814 48.0576C34.6273 44.8981 32.9502 40.346 32.9502 34.4014C32.9502 28.3369 34.6273 23.7848 37.9814 20.7451C40.4821 18.1696 44.0983 16.8818 48.8301 16.8818C53.5618 16.8818 57.1781 18.1696 59.6787 20.7451C63.0179 23.7848 64.6875 28.3369 64.6875 34.4014C64.6875 40.346 63.0179 44.8981 59.6787 48.0576C57.1781 50.6331 53.5618 51.9209 48.8301 51.9209ZM55.3662 43.0264C56.9684 41.0049 57.7695 38.1299 57.7695 34.4014C57.7695 30.6878 56.9609 27.8203 55.3438 25.7988C53.7415 23.7624 51.5703 22.7441 48.8301 22.7441C46.0898 22.7441 43.9036 23.7549 42.2715 25.7764C40.6393 27.7979 39.8232 30.6729 39.8232 34.4014C39.8232 38.1299 40.6393 41.0049 42.2715 43.0264C43.9036 45.0479 46.0898 46.0586 48.8301 46.0586C51.5703 46.0586 53.749 45.0479 55.3662 43.0264ZM76.3223 51H69.876V17.8926H79.9385L85.958 43.9248L91.9326 17.8926H101.883V51H95.4365V28.6064C95.4365 27.9626 95.444 27.0641 95.459 25.9111C95.474 24.7432 95.4814 23.8447 95.4814 23.2158L89.2148 51H82.499L76.2773 23.2158C76.2773 23.8447 76.2848 24.7432 76.2998 25.9111C76.3148 27.0641 76.3223 27.9626 76.3223 28.6064V51ZM131.352 36.5352H115.27V45.0479H133.598V51H108.509V17.8926H132.789V23.7549H115.27V30.7852H131.352V36.5352ZM166.436 51.9209C161.704 51.9209 158.088 50.6331 155.587 48.0576C152.233 44.8981 150.556 40.346 150.556 34.4014C150.556 28.3369 152.233 23.7848 155.587 20.7451C158.088 18.1696 161.704 16.8818 166.436 16.8818C171.167 16.8818 174.784 18.1696 177.284 20.7451C180.623 23.7848 182.293 28.3369 182.293 34.4014C182.293 40.346 180.623 44.8981 177.284 48.0576C174.784 50.6331 171.167 51.9209 166.436 51.9209ZM172.972 43.0264C174.574 41.0049 175.375 38.1299 175.375 34.4014C175.375 30.6878 174.566 27.8203 172.949 25.7988C171.347 23.7624 169.176 22.7441 166.436 22.7441C163.695 22.7441 161.509 23.7549 159.877 25.7764C158.245 27.7979 157.429 30.6729 157.429 34.4014C157.429 38.1299 158.245 41.0049 159.877 43.0264C161.509 45.0479 163.695 46.0586 166.436 46.0586C169.176 46.0586 171.354 45.0479 172.972 43.0264ZM207.18 38.2422V17.8926H214.21V38.2422C214.21 41.7611 213.663 44.5013 212.57 46.4629C210.534 50.0566 206.648 51.8535 200.913 51.8535C195.178 51.8535 191.285 50.0566 189.233 46.4629C188.14 44.5013 187.594 41.7611 187.594 38.2422V17.8926H194.624V38.2422C194.624 40.5182 194.894 42.1803 195.433 43.2285C196.271 45.0853 198.098 46.0137 200.913 46.0137C203.713 46.0137 205.533 45.0853 206.371 43.2285C206.91 42.1803 207.18 40.5182 207.18 38.2422ZM244.892 17.8926V23.7549H234.986V51H228.023V23.7549H218.073V17.8926H244.892ZM263.018 39.0957H255.987V51H249.114V17.8926H263.534C266.858 17.8926 269.509 18.7461 271.485 20.4531C273.462 22.1602 274.45 24.8031 274.45 28.3818C274.45 32.29 273.462 35.0527 271.485 36.6699C269.509 38.2871 266.686 39.0957 263.018 39.0957ZM266.252 32.2002C267.15 31.4066 267.6 30.1488 267.6 28.4268C267.6 26.7048 267.143 25.4769 266.229 24.7432C265.331 24.0094 264.066 23.6426 262.434 23.6426H255.987V33.3906H262.434C264.066 33.3906 265.339 32.9938 266.252 32.2002ZM299.225 38.2422V17.8926H306.255V38.2422C306.255 41.7611 305.708 44.5013 304.615 46.4629C302.579 50.0566 298.693 51.8535 292.958 51.8535C287.223 51.8535 283.33 50.0566 281.278 46.4629C280.185 44.5013 279.639 41.7611 279.639 38.2422V17.8926H286.669V38.2422C286.669 40.5182 286.938 42.1803 287.478 43.2285C288.316 45.0853 290.143 46.0137 292.958 46.0137C295.758 46.0137 297.577 45.0853 298.416 43.2285C298.955 42.1803 299.225 40.5182 299.225 38.2422ZM336.937 17.8926V23.7549H327.031V51H320.068V23.7549H310.118V17.8926H336.937Z" fill="#FE0A00"/>
</g>
<defs>
<clipPath id="clip0_243_95">
<rect width="1227" height="110" fill="white"/>
</clipPath>
</defs>
</svg>
