<svg width="1227" height="30" viewBox="0 0 1227 30" fill="none" xmlns="http://www.w3.org/2000/svg">
<path d="M9.58594 9.48438V11.5234H6.14062V21H3.71875V11.5234H0.257812V9.48438H9.58594ZM17.7422 18.6328H13.5L12.7031 21H10.1875L14.2969 9.48438H17.0156L21.0938 21H18.4844L17.7422 18.6328ZM17.0703 16.6484L15.6328 12.1172L14.1484 16.6484H17.0703ZM12.9844 6.22656H15.4609L16.9609 8.5625H15.3516L12.9844 6.22656ZM22.375 9.48438H24.7656V21H22.375V9.48438ZM31.4688 9.48438H33.875V18.9297H39.5781V21H31.4688V9.48438ZM41.0625 9.48438H43.4531V21H41.0625V9.48438ZM53.7188 15.9688H48.125V18.9297H54.5V21H45.7734V9.48438H54.2188V11.5234H48.125V13.9688H53.7188V15.9688ZM49.1797 6.08594H51.1797L53.0078 8.42188H51.1953L50.1797 7.10938L49.1562 8.42188H47.3438L49.1797 6.08594ZM49.1172 21.7031H51.1484V23.5547H49.1172V21.7031ZM63.1875 16.5625V9.48438H65.6328V16.5625C65.6328 17.7865 65.4427 18.7396 65.0625 19.4219C64.3542 20.6719 63.0026 21.2969 61.0078 21.2969C59.013 21.2969 57.6589 20.6719 56.9453 19.4219C56.5651 18.7396 56.375 17.7865 56.375 16.5625V9.48438H58.8203V16.5625C58.8203 17.3542 58.9141 17.9323 59.1016 18.2969C59.3932 18.9427 60.0286 19.2656 61.0078 19.2656C61.9818 19.2656 62.6146 18.9427 62.9062 18.2969C63.0938 17.9323 63.1875 17.3542 63.1875 16.5625ZM80.7578 9.48438V11.5234H77.3125V21H74.8906V11.5234H71.4297V9.48438H80.7578ZM87.0625 16.4844H84.5781V21H82.2266V9.48438H87.875C88.6823 9.5 89.3021 9.59896 89.7344 9.78125C90.1719 9.96354 90.5417 10.2318 90.8438 10.5859C91.0938 10.8776 91.2917 11.2005 91.4375 11.5547C91.5833 11.9089 91.6562 12.3125 91.6562 12.7656C91.6562 13.3125 91.5182 13.8516 91.2422 14.3828C90.9661 14.9089 90.5104 15.2812 89.875 15.5C90.4062 15.7135 90.7812 16.0182 91 16.4141C91.224 16.8047 91.3359 17.4036 91.3359 18.2109V18.9844C91.3359 19.5104 91.3568 19.8672 91.3984 20.0547C91.4609 20.3516 91.6068 20.5703 91.8359 20.7109V21H89.1875C89.1146 20.7448 89.0625 20.5391 89.0312 20.3828C88.9688 20.0599 88.9349 19.7292 88.9297 19.3906L88.9141 18.3203C88.9036 17.5859 88.7682 17.0964 88.5078 16.8516C88.2526 16.6068 87.7708 16.4844 87.0625 16.4844ZM88.5234 14.3906C89.0026 14.1719 89.2422 13.7396 89.2422 13.0938C89.2422 12.3958 89.0104 11.9271 88.5469 11.6875C88.2865 11.5521 87.8958 11.4844 87.375 11.4844H84.5781V14.5781H87.3047C87.8464 14.5781 88.2526 14.5156 88.5234 14.3906ZM93.5469 9.48438H95.9375V21H93.5469V9.48438ZM92.125 6H94.6016L96.1016 8.33594H94.4922L92.125 6ZM107.5 21H105.094L100.391 12.8203V21H98.1484V9.48438H100.672L105.258 17.5234V9.48438H107.5V21ZM116.617 21V15.8594H112.117V21H109.734V9.48438H112.117V13.875H116.617V9.48438H119.008V21H116.617ZM131.023 21H125.805V9.48438H131.398C132.81 9.50521 133.81 9.91406 134.398 10.7109C134.753 11.2005 134.93 11.7865 134.93 12.4688C134.93 13.1719 134.753 13.737 134.398 14.1641C134.201 14.4036 133.909 14.6224 133.523 14.8203C134.112 15.0339 134.555 15.3724 134.852 15.8359C135.154 16.2995 135.305 16.862 135.305 17.5234C135.305 18.2057 135.133 18.8177 134.789 19.3594C134.57 19.7188 134.297 20.0208 133.969 20.2656C133.599 20.5469 133.161 20.7396 132.656 20.8438C132.156 20.9479 131.612 21 131.023 21ZM130.969 15.9297H128.102V19H130.93C131.435 19 131.828 18.9323 132.109 18.7969C132.62 18.5469 132.875 18.0677 132.875 17.3594C132.875 16.7604 132.628 16.349 132.133 16.125C131.857 16 131.469 15.9349 130.969 15.9297ZM132.164 13.7344C132.477 13.5469 132.633 13.2109 132.633 12.7266C132.633 12.1901 132.424 11.8359 132.008 11.6641C131.648 11.5443 131.19 11.4844 130.633 11.4844H128.102V14.0234H130.93C131.435 14.0234 131.846 13.9271 132.164 13.7344ZM144.07 18.6328H139.828L139.031 21H136.516L140.625 9.48438H143.344L147.422 21H144.812L144.07 18.6328ZM143.398 16.6484L141.961 12.1172L140.477 16.6484H143.398ZM139.312 6.22656H141.789L143.289 8.5625H141.68L139.312 6.22656ZM158.188 9.48438L154.336 16.6719V21H151.93V16.6719L147.945 9.48438H150.781L153.172 14.5L155.461 9.48438H158.188ZM170.797 20.7188C170.161 21.1094 169.38 21.3047 168.453 21.3047C166.927 21.3047 165.677 20.776 164.703 19.7188C163.688 18.6562 163.18 17.2031 163.18 15.3594C163.18 13.4948 163.693 12 164.719 10.875C165.745 9.75 167.102 9.1875 168.789 9.1875C170.253 9.1875 171.427 9.5599 172.312 10.3047C173.203 11.0443 173.714 11.9688 173.844 13.0781H171.477C171.294 12.2917 170.849 11.7422 170.141 11.4297C169.745 11.2578 169.305 11.1719 168.82 11.1719C167.893 11.1719 167.13 11.5234 166.531 12.2266C165.938 12.9245 165.641 13.9766 165.641 15.3828C165.641 16.7995 165.964 17.8021 166.609 18.3906C167.255 18.9792 167.99 19.2734 168.812 19.2734C169.62 19.2734 170.281 19.0417 170.797 18.5781C171.312 18.1094 171.63 17.4974 171.75 16.7422H169.086V14.8203H173.883V21H172.289L172.047 19.5625C171.583 20.1094 171.167 20.4948 170.797 20.7188ZM176 9.48438H178.391V21H176V9.48438ZM187.383 18.6328H183.141L182.344 21H179.828L183.938 9.48438H186.656L190.734 21H188.125L187.383 18.6328ZM186.711 16.6484L185.273 12.1172L183.789 16.6484H186.711ZM186.312 8.17188C186.182 8.24479 186.018 8.30208 185.82 8.34375L185.711 8.6875H184.633L184.688 8.09375C185.12 8.0625 185.396 7.97396 185.516 7.82812C185.641 7.68229 185.703 7.52344 185.703 7.35156C185.703 7.26302 185.685 7.17969 185.648 7.10156C185.612 7.01823 185.555 6.94271 185.477 6.875C185.419 6.82812 185.362 6.79427 185.305 6.77344C185.247 6.7474 185.135 6.73177 184.969 6.72656L184.555 6.71875L184.523 6.10156C184.638 6.08594 184.763 6.07292 184.898 6.0625C185.039 6.05208 185.161 6.04688 185.266 6.04688C185.531 6.04688 185.789 6.09115 186.039 6.17969C186.289 6.26302 186.5 6.42708 186.672 6.67188C186.719 6.73958 186.758 6.82812 186.789 6.9375C186.826 7.04688 186.844 7.16406 186.844 7.28906C186.844 7.39323 186.828 7.5 186.797 7.60938C186.766 7.71875 186.711 7.82292 186.633 7.92188C186.555 8.01562 186.448 8.09896 186.312 8.17188ZM192.016 9.48438H194.406V21H192.016V9.48438ZM206 16.8594H203.555V21H201.164V9.48438H206.18C207.336 9.48438 208.258 9.78125 208.945 10.375C209.633 10.9688 209.977 11.888 209.977 13.1328C209.977 14.4922 209.633 15.4531 208.945 16.0156C208.258 16.5781 207.276 16.8594 206 16.8594ZM207.125 14.4609C207.438 14.1849 207.594 13.7474 207.594 13.1484C207.594 12.5495 207.435 12.1224 207.117 11.8672C206.805 11.612 206.365 11.4844 205.797 11.4844H203.555V14.875H205.797C206.365 14.875 206.807 14.737 207.125 14.4609ZM218.648 21V15.8594H214.148V21H211.766V9.48438H214.148V13.875H218.648V9.48438H221.039V21H218.648ZM230.086 18.6328H225.844L225.047 21H222.531L226.641 9.48438H229.359L233.438 21H230.828L230.086 18.6328ZM229.414 16.6484L227.977 12.1172L226.492 16.6484H229.414ZM226.664 8.5625L228.164 6.22656H230.648L228.273 8.5625H226.664ZM239.797 16.8594H237.352V21H234.961V9.48438H239.977C241.133 9.48438 242.055 9.78125 242.742 10.375C243.43 10.9688 243.773 11.888 243.773 13.1328C243.773 14.4922 243.43 15.4531 242.742 16.0156C242.055 16.5781 241.073 16.8594 239.797 16.8594ZM240.922 14.4609C241.234 14.1849 241.391 13.7474 241.391 13.1484C241.391 12.5495 241.232 12.1224 240.914 11.8672C240.602 11.612 240.161 11.4844 239.594 11.4844H237.352V14.875H239.594C240.161 14.875 240.604 14.737 240.922 14.4609ZM252.016 24.2266L251.461 23.4688C251.102 23.0104 250.719 22.3281 250.312 21.4219C249.589 19.8021 249.227 18.2083 249.227 16.6406C249.227 15.2135 249.531 13.7969 250.141 12.3906C250.552 11.4323 251.154 10.401 251.945 9.29688H253.625L253.148 10.1719C252.492 11.375 252.036 12.6354 251.781 13.9531C251.615 14.8177 251.531 15.7604 251.531 16.7812C251.531 18.375 251.763 19.8411 252.227 21.1797C252.497 21.9714 252.977 22.987 253.664 24.2266H252.016ZM264.328 21H259.531V15.8594H258.453V13.8594H259.531V9.5H264.344C265.234 9.5 265.992 9.63542 266.617 9.90625C267.247 10.1719 267.792 10.6224 268.25 11.2578C268.599 11.7422 268.857 12.2943 269.023 12.9141C269.19 13.5339 269.273 14.2188 269.273 14.9688C269.273 16.3542 269.016 17.5521 268.5 18.5625C267.672 20.1875 266.281 21 264.328 21ZM263.641 11.4844H261.867V13.8594H264.289V15.8594H261.867V19H263.531C264.182 19 264.648 18.9583 264.93 18.875C265.393 18.7448 265.779 18.4609 266.086 18.0234C266.367 17.6224 266.56 17.1484 266.664 16.6016C266.773 16.0495 266.828 15.5599 266.828 15.1328C266.828 13.5495 266.438 12.4844 265.656 11.9375C265.219 11.6354 264.547 11.4844 263.641 11.4844ZM279.109 15.9688H273.516V18.9297H279.891V21H271.164V9.48438H279.609V11.5234H273.516V13.9688H279.109V15.9688ZM274.57 6.3125H276.57L278.398 8.64844H276.586L275.57 7.33594L274.547 8.64844H272.734L274.57 6.3125ZM277.102 7.00781L278.602 4.67188H281.086L278.711 7.00781H277.102ZM291.328 21H288.922L284.219 12.8203V21H281.977V9.48438H284.5L289.086 17.5234V9.48438H291.328V21ZM308.234 21H305.141L301.586 15.9688L300.438 17.1484V21H298.07V9.48438H300.438V14.2266L304.883 9.48438H307.992L303.273 14.2266L308.234 21ZM316.461 21V15.8594H311.961V21H309.578V9.48438H311.961V13.875H316.461V9.48438H318.852V21H316.461ZM327.898 18.6328H323.656L322.859 21H320.344L324.453 9.48438H327.172L331.25 21H328.641L327.898 18.6328ZM327.227 16.6484L325.789 12.1172L324.305 16.6484H327.227ZM324.477 8.5625L325.977 6.22656H328.461L326.086 8.5625H324.477ZM340.844 20.1406C339.984 20.9271 338.885 21.3203 337.547 21.3203C335.891 21.3203 334.589 20.7891 333.641 19.7266C332.693 18.6589 332.219 17.1953 332.219 15.3359C332.219 13.3255 332.758 11.776 333.836 10.6875C334.773 9.73958 335.966 9.26562 337.414 9.26562C339.352 9.26562 340.768 9.90104 341.664 11.1719C342.159 11.8854 342.424 12.6016 342.461 13.3203H340.055C339.898 12.7682 339.698 12.3516 339.453 12.0703C339.016 11.5703 338.367 11.3203 337.508 11.3203C336.633 11.3203 335.943 11.6745 335.438 12.3828C334.932 13.0859 334.68 14.0833 334.68 15.375C334.68 16.6667 334.945 17.6354 335.477 18.2812C336.013 18.9219 336.693 19.2422 337.516 19.2422C338.359 19.2422 339.003 18.9661 339.445 18.4141C339.69 18.1172 339.893 17.6719 340.055 17.0781H342.438C342.229 18.3333 341.698 19.3542 340.844 20.1406ZM351.148 21V15.8594H346.648V21H344.266V9.48438H346.648V13.875H351.148V9.48438H353.539V21H351.148ZM367.164 21V15.8594H362.664V21H360.281V9.48438H362.664V13.875H367.164V9.48438H369.555V21H367.164ZM378.602 18.6328H374.359L373.562 21H371.047L375.156 9.48438H377.875L381.953 21H379.344L378.602 18.6328ZM377.93 16.6484L376.492 12.1172L375.008 16.6484H377.93ZM373.844 6.22656H376.32L377.82 8.5625H376.211L373.844 6.22656ZM392.734 21H390.328L385.625 12.8203V21H383.383V9.48438H385.906L390.492 17.5234V9.48438H392.734V21ZM402.047 20.7188C401.411 21.1094 400.63 21.3047 399.703 21.3047C398.177 21.3047 396.927 20.776 395.953 19.7188C394.938 18.6562 394.43 17.2031 394.43 15.3594C394.43 13.4948 394.943 12 395.969 10.875C396.995 9.75 398.352 9.1875 400.039 9.1875C401.503 9.1875 402.677 9.5599 403.562 10.3047C404.453 11.0443 404.964 11.9688 405.094 13.0781H402.727C402.544 12.2917 402.099 11.7422 401.391 11.4297C400.995 11.2578 400.555 11.1719 400.07 11.1719C399.143 11.1719 398.38 11.5234 397.781 12.2266C397.188 12.9245 396.891 13.9766 396.891 15.3828C396.891 16.7995 397.214 17.8021 397.859 18.3906C398.505 18.9792 399.24 19.2734 400.062 19.2734C400.87 19.2734 401.531 19.0417 402.047 18.5781C402.562 18.1094 402.88 17.4974 403 16.7422H400.336V14.8203H405.133V21H403.539L403.297 19.5625C402.833 20.1094 402.417 20.4948 402.047 20.7188ZM408.586 23.4688L408.031 24.2266H406.383C407.07 22.987 407.549 21.9714 407.82 21.1797C408.284 19.8411 408.516 18.375 408.516 16.7812C408.516 15.7604 408.432 14.8177 408.266 13.9531C408.01 12.6354 407.555 11.375 406.898 10.1719L406.422 9.29688H408.102C408.893 10.401 409.495 11.4323 409.906 12.3906C410.516 13.7969 410.82 15.2135 410.82 16.6406C410.82 18.2083 410.458 19.8021 409.734 21.4219C409.328 22.3281 408.945 23.0104 408.586 23.4688Z" fill="#303E45"/>
</svg>
