<svg width="1227" height="30" viewBox="0 0 1227 30" fill="none" xmlns="http://www.w3.org/2000/svg">
<path d="M6.17969 21H1.21875V9.48438H6.17969C6.89323 9.49479 7.48698 9.57812 7.96094 9.73438C8.76823 10 9.42188 10.487 9.92188 11.1953C10.3229 11.7682 10.5964 12.388 10.7422 13.0547C10.888 13.7214 10.9609 14.3568 10.9609 14.9609C10.9609 16.4922 10.6536 17.7891 10.0391 18.8516C9.20573 20.2839 7.91927 21 6.17969 21ZM7.96875 12.4219C7.59896 11.7969 6.86719 11.4844 5.77344 11.4844H3.55469V19H5.77344C6.90885 19 7.70052 18.4401 8.14844 17.3203C8.39323 16.7057 8.51562 15.974 8.51562 15.125C8.51562 13.9531 8.33333 13.0521 7.96875 12.4219ZM20.7969 15.9688H15.2031V18.9297H21.5781V21H12.8516V9.48438H21.2969V11.5234H15.2031V13.9688H20.7969V15.9688ZM25.6562 21H23.4141V9.48438H26.9141L29.0078 18.5391L31.0859 9.48438H34.5469V21H32.3047V13.2109C32.3047 12.987 32.3073 12.6745 32.3125 12.2734C32.3177 11.8672 32.3203 11.5547 32.3203 11.3359L30.1406 21H27.8047L25.6406 11.3359C25.6406 11.5547 25.6432 11.8672 25.6484 12.2734C25.6536 12.6745 25.6562 12.987 25.6562 13.2109V21ZM41.875 21.3203C40.2292 21.3203 38.9714 20.8724 38.1016 19.9766C36.9349 18.8776 36.3516 17.2943 36.3516 15.2266C36.3516 13.1172 36.9349 11.5339 38.1016 10.4766C38.9714 9.58073 40.2292 9.13281 41.875 9.13281C43.5208 9.13281 44.7786 9.58073 45.6484 10.4766C46.8099 11.5339 47.3906 13.1172 47.3906 15.2266C47.3906 17.2943 46.8099 18.8776 45.6484 19.9766C44.7786 20.8724 43.5208 21.3203 41.875 21.3203ZM44.1484 18.2266C44.7057 17.5234 44.9844 16.5234 44.9844 15.2266C44.9844 13.9349 44.7031 12.9375 44.1406 12.2344C43.5833 11.526 42.8281 11.1719 41.875 11.1719C40.9219 11.1719 40.1615 11.5234 39.5938 12.2266C39.026 12.9297 38.7422 13.9297 38.7422 15.2266C38.7422 16.5234 39.026 17.5234 39.5938 18.2266C40.1615 18.9297 40.9219 19.2812 41.875 19.2812C42.8281 19.2812 43.5859 18.9297 44.1484 18.2266ZM57.8672 19.3359C58.4349 19.3359 58.8958 19.2734 59.25 19.1484C59.9219 18.9089 60.2578 18.4635 60.2578 17.8125C60.2578 17.4323 60.0911 17.138 59.7578 16.9297C59.4245 16.7266 58.901 16.5469 58.1875 16.3906L56.9688 16.1172C55.7708 15.8464 54.9427 15.5521 54.4844 15.2344C53.7083 14.7031 53.3203 13.8724 53.3203 12.7422C53.3203 11.7109 53.6953 10.8542 54.4453 10.1719C55.1953 9.48958 56.2969 9.14844 57.75 9.14844C58.9635 9.14844 59.9974 9.47135 60.8516 10.1172C61.7109 10.7578 62.1615 11.6901 62.2031 12.9141H59.8906C59.849 12.2214 59.5469 11.7292 58.9844 11.4375C58.6094 11.2448 58.1432 11.1484 57.5859 11.1484C56.9661 11.1484 56.4714 11.2734 56.1016 11.5234C55.7318 11.7734 55.5469 12.1224 55.5469 12.5703C55.5469 12.9818 55.7292 13.2891 56.0938 13.4922C56.3281 13.6276 56.8281 13.7865 57.5938 13.9688L59.5781 14.4453C60.4479 14.6536 61.1042 14.9323 61.5469 15.2812C62.2344 15.8229 62.5781 16.6068 62.5781 17.6328C62.5781 18.6849 62.1745 19.5599 61.3672 20.2578C60.5651 20.9505 59.4297 21.2969 57.9609 21.2969C56.4609 21.2969 55.2812 20.9557 54.4219 20.2734C53.5625 19.5859 53.1328 18.6432 53.1328 17.4453H55.4297C55.5026 17.9714 55.6458 18.3646 55.8594 18.625C56.25 19.099 56.9193 19.3359 57.8672 19.3359ZM71.1016 18.6328H66.8594L66.0625 21H63.5469L67.6562 9.48438H70.375L74.4531 21H71.8438L71.1016 18.6328ZM70.4297 16.6484L68.9922 12.1172L67.5078 16.6484H70.4297ZM78.125 21H75.8828V9.48438H79.3828L81.4766 18.5391L83.5547 9.48438H87.0156V21H84.7734V13.2109C84.7734 12.987 84.776 12.6745 84.7812 12.2734C84.7865 11.8672 84.7891 11.5547 84.7891 11.3359L82.6094 21H80.2734L78.1094 11.3359C78.1094 11.5547 78.112 11.8672 78.1172 12.2734C78.1224 12.6745 78.125 12.987 78.125 13.2109V21ZM94.1406 16.8594H91.6953V21H89.3047V9.48438H94.3203C95.4766 9.48438 96.3984 9.78125 97.0859 10.375C97.7734 10.9688 98.1172 11.888 98.1172 13.1328C98.1172 14.4922 97.7734 15.4531 97.0859 16.0156C96.3984 16.5781 95.4167 16.8594 94.1406 16.8594ZM95.2656 14.4609C95.5781 14.1849 95.7344 13.7474 95.7344 13.1484C95.7344 12.5495 95.5755 12.1224 95.2578 11.8672C94.9453 11.612 94.5052 11.4844 93.9375 11.4844H91.6953V14.875H93.9375C94.5052 14.875 94.9479 14.737 95.2656 14.4609ZM99.9219 9.48438H102.328V18.9297H108.031V21H99.9219V9.48438ZM117.719 15.9688H112.125V18.9297H118.5V21H109.773V9.48438H118.219V11.5234H112.125V13.9688H117.719V15.9688ZM129.008 19.3359C129.576 19.3359 130.036 19.2734 130.391 19.1484C131.062 18.9089 131.398 18.4635 131.398 17.8125C131.398 17.4323 131.232 17.138 130.898 16.9297C130.565 16.7266 130.042 16.5469 129.328 16.3906L128.109 16.1172C126.911 15.8464 126.083 15.5521 125.625 15.2344C124.849 14.7031 124.461 13.8724 124.461 12.7422C124.461 11.7109 124.836 10.8542 125.586 10.1719C126.336 9.48958 127.438 9.14844 128.891 9.14844C130.104 9.14844 131.138 9.47135 131.992 10.1172C132.852 10.7578 133.302 11.6901 133.344 12.9141H131.031C130.99 12.2214 130.688 11.7292 130.125 11.4375C129.75 11.2448 129.284 11.1484 128.727 11.1484C128.107 11.1484 127.612 11.2734 127.242 11.5234C126.872 11.7734 126.688 12.1224 126.688 12.5703C126.688 12.9818 126.87 13.2891 127.234 13.4922C127.469 13.6276 127.969 13.7865 128.734 13.9688L130.719 14.4453C131.589 14.6536 132.245 14.9323 132.688 15.2812C133.375 15.8229 133.719 16.6068 133.719 17.6328C133.719 18.6849 133.315 19.5599 132.508 20.2578C131.706 20.9505 130.57 21.2969 129.102 21.2969C127.602 21.2969 126.422 20.9557 125.562 20.2734C124.703 19.5859 124.273 18.6432 124.273 17.4453H126.57C126.643 17.9714 126.786 18.3646 127 18.625C127.391 19.099 128.06 19.3359 129.008 19.3359ZM140.594 21.3203C138.948 21.3203 137.69 20.8724 136.82 19.9766C135.654 18.8776 135.07 17.2943 135.07 15.2266C135.07 13.1172 135.654 11.5339 136.82 10.4766C137.69 9.58073 138.948 9.13281 140.594 9.13281C142.24 9.13281 143.497 9.58073 144.367 10.4766C145.529 11.5339 146.109 13.1172 146.109 15.2266C146.109 17.2943 145.529 18.8776 144.367 19.9766C143.497 20.8724 142.24 21.3203 140.594 21.3203ZM142.867 18.2266C143.424 17.5234 143.703 16.5234 143.703 15.2266C143.703 13.9349 143.422 12.9375 142.859 12.2344C142.302 11.526 141.547 11.1719 140.594 11.1719C139.641 11.1719 138.88 11.5234 138.312 12.2266C137.745 12.9297 137.461 13.9297 137.461 15.2266C137.461 16.5234 137.745 17.5234 138.312 18.2266C138.88 18.9297 139.641 19.2812 140.594 19.2812C141.547 19.2812 142.305 18.9297 142.867 18.2266ZM147.953 9.48438H150.359V18.9297H156.062V21H147.953V9.48438ZM164.547 16.5625V9.48438H166.992V16.5625C166.992 17.7865 166.802 18.7396 166.422 19.4219C165.714 20.6719 164.362 21.2969 162.367 21.2969C160.372 21.2969 159.018 20.6719 158.305 19.4219C157.924 18.7396 157.734 17.7865 157.734 16.5625V9.48438H160.18V16.5625C160.18 17.3542 160.273 17.9323 160.461 18.2969C160.753 18.9427 161.388 19.2656 162.367 19.2656C163.341 19.2656 163.974 18.9427 164.266 18.2969C164.453 17.9323 164.547 17.3542 164.547 16.5625ZM177.664 9.48438V11.5234H174.219V21H171.797V11.5234H168.336V9.48438H177.664ZM178.891 9.48438H181.281V21H178.891V9.48438ZM188.625 21.3203C186.979 21.3203 185.721 20.8724 184.852 19.9766C183.685 18.8776 183.102 17.2943 183.102 15.2266C183.102 13.1172 183.685 11.5339 184.852 10.4766C185.721 9.58073 186.979 9.13281 188.625 9.13281C190.271 9.13281 191.529 9.58073 192.398 10.4766C193.56 11.5339 194.141 13.1172 194.141 15.2266C194.141 17.2943 193.56 18.8776 192.398 19.9766C191.529 20.8724 190.271 21.3203 188.625 21.3203ZM190.898 18.2266C191.456 17.5234 191.734 16.5234 191.734 15.2266C191.734 13.9349 191.453 12.9375 190.891 12.2344C190.333 11.526 189.578 11.1719 188.625 11.1719C187.672 11.1719 186.911 11.5234 186.344 12.2266C185.776 12.9297 185.492 13.9297 185.492 15.2266C185.492 16.5234 185.776 17.5234 186.344 18.2266C186.911 18.9297 187.672 19.2812 188.625 19.2812C189.578 19.2812 190.336 18.9297 190.898 18.2266ZM205.297 21H202.891L198.188 12.8203V21H195.945V9.48438H198.469L203.055 17.5234V9.48438H205.297V21ZM214.266 24.2266L213.711 23.4688C213.352 23.0104 212.969 22.3281 212.562 21.4219C211.839 19.8021 211.477 18.2083 211.477 16.6406C211.477 15.2135 211.781 13.7969 212.391 12.3906C212.802 11.4323 213.404 10.401 214.195 9.29688H215.875L215.398 10.1719C214.742 11.375 214.286 12.6354 214.031 13.9531C213.865 14.8177 213.781 15.7604 213.781 16.7812C213.781 18.375 214.013 19.8411 214.477 21.1797C214.747 21.9714 215.227 22.987 215.914 24.2266H214.266ZM222.219 16.8594H219.773V21H217.383V9.48438H222.398C223.555 9.48438 224.477 9.78125 225.164 10.375C225.852 10.9688 226.195 11.888 226.195 13.1328C226.195 14.4922 225.852 15.4531 225.164 16.0156C224.477 16.5781 223.495 16.8594 222.219 16.8594ZM223.344 14.4609C223.656 14.1849 223.812 13.7474 223.812 13.1484C223.812 12.5495 223.654 12.1224 223.336 11.8672C223.023 11.612 222.583 11.4844 222.016 11.4844H219.773V14.875H222.016C222.583 14.875 223.026 14.737 223.344 14.4609ZM232.891 16.4844H230.406V21H228.055V9.48438H233.703C234.51 9.5 235.13 9.59896 235.562 9.78125C236 9.96354 236.37 10.2318 236.672 10.5859C236.922 10.8776 237.12 11.2005 237.266 11.5547C237.411 11.9089 237.484 12.3125 237.484 12.7656C237.484 13.3125 237.346 13.8516 237.07 14.3828C236.794 14.9089 236.339 15.2812 235.703 15.5C236.234 15.7135 236.609 16.0182 236.828 16.4141C237.052 16.8047 237.164 17.4036 237.164 18.2109V18.9844C237.164 19.5104 237.185 19.8672 237.227 20.0547C237.289 20.3516 237.435 20.5703 237.664 20.7109V21H235.016C234.943 20.7448 234.891 20.5391 234.859 20.3828C234.797 20.0599 234.763 19.7292 234.758 19.3906L234.742 18.3203C234.732 17.5859 234.596 17.0964 234.336 16.8516C234.081 16.6068 233.599 16.4844 232.891 16.4844ZM234.352 14.3906C234.831 14.1719 235.07 13.7396 235.07 13.0938C235.07 12.3958 234.839 11.9271 234.375 11.6875C234.115 11.5521 233.724 11.4844 233.203 11.4844H230.406V14.5781H233.133C233.674 14.5781 234.081 14.5156 234.352 14.3906ZM244.656 21.3203C243.01 21.3203 241.753 20.8724 240.883 19.9766C239.716 18.8776 239.133 17.2943 239.133 15.2266C239.133 13.1172 239.716 11.5339 240.883 10.4766C241.753 9.58073 243.01 9.13281 244.656 9.13281C246.302 9.13281 247.56 9.58073 248.43 10.4766C249.591 11.5339 250.172 13.1172 250.172 15.2266C250.172 17.2943 249.591 18.8776 248.43 19.9766C247.56 20.8724 246.302 21.3203 244.656 21.3203ZM246.93 18.2266C247.487 17.5234 247.766 16.5234 247.766 15.2266C247.766 13.9349 247.484 12.9375 246.922 12.2344C246.365 11.526 245.609 11.1719 244.656 11.1719C243.703 11.1719 242.943 11.5234 242.375 12.2266C241.807 12.9297 241.523 13.9297 241.523 15.2266C241.523 16.5234 241.807 17.5234 242.375 18.2266C242.943 18.9297 243.703 19.2812 244.656 19.2812C245.609 19.2812 246.367 18.9297 246.93 18.2266ZM260.383 9.48438V11.5234H256.938V21H254.516V11.5234H251.055V9.48438H260.383ZM266.609 21.3203C264.964 21.3203 263.706 20.8724 262.836 19.9766C261.669 18.8776 261.086 17.2943 261.086 15.2266C261.086 13.1172 261.669 11.5339 262.836 10.4766C263.706 9.58073 264.964 9.13281 266.609 9.13281C268.255 9.13281 269.513 9.58073 270.383 10.4766C271.544 11.5339 272.125 13.1172 272.125 15.2266C272.125 17.2943 271.544 18.8776 270.383 19.9766C269.513 20.8724 268.255 21.3203 266.609 21.3203ZM268.883 18.2266C269.44 17.5234 269.719 16.5234 269.719 15.2266C269.719 13.9349 269.438 12.9375 268.875 12.2344C268.318 11.526 267.562 11.1719 266.609 11.1719C265.656 11.1719 264.896 11.5234 264.328 12.2266C263.76 12.9297 263.477 13.9297 263.477 15.2266C263.477 16.5234 263.76 17.5234 264.328 18.2266C264.896 18.9297 265.656 19.2812 266.609 19.2812C267.562 19.2812 268.32 18.9297 268.883 18.2266ZM282.336 9.48438V11.5234H278.891V21H276.469V11.5234H273.008V9.48438H282.336ZM293.047 9.48438L289.195 16.6719V21H286.789V16.6719L282.805 9.48438H285.641L288.031 14.5L290.32 9.48438H293.047ZM299.312 16.8594H296.867V21H294.477V9.48438H299.492C300.648 9.48438 301.57 9.78125 302.258 10.375C302.945 10.9688 303.289 11.888 303.289 13.1328C303.289 14.4922 302.945 15.4531 302.258 16.0156C301.57 16.5781 300.589 16.8594 299.312 16.8594ZM300.438 14.4609C300.75 14.1849 300.906 13.7474 300.906 13.1484C300.906 12.5495 300.747 12.1224 300.43 11.8672C300.117 11.612 299.677 11.4844 299.109 11.4844H296.867V14.875H299.109C299.677 14.875 300.12 14.737 300.438 14.4609ZM313.109 15.9688H307.516V18.9297H313.891V21H305.164V9.48438H313.609V11.5234H307.516V13.9688H313.109V15.9688ZM316.914 23.4688L316.359 24.2266H314.711C315.398 22.987 315.878 21.9714 316.148 21.1797C316.612 19.8411 316.844 18.375 316.844 16.7812C316.844 15.7604 316.76 14.8177 316.594 13.9531C316.339 12.6354 315.883 11.375 315.227 10.1719L314.75 9.29688H316.43C317.221 10.401 317.823 11.4323 318.234 12.3906C318.844 13.7969 319.148 15.2135 319.148 16.6406C319.148 18.2083 318.786 19.8021 318.062 21.4219C317.656 22.3281 317.273 23.0104 316.914 23.4688Z" fill="#303E45"/>
</svg>
