<svg width="119" height="198" viewBox="0 0 119 198" fill="none" xmlns="http://www.w3.org/2000/svg">
<circle cx="59" cy="115" r="20" fill="url(#paint0_linear_44_2)"/>
<path d="M55.14 119.32C55.9133 118.573 56.6 117.913 57.2 117.34C57.8 116.753 58.32 116.227 58.76 115.76C59.2133 115.28 59.5867 114.833 59.88 114.42C60.1867 114.007 60.4133 113.607 60.56 113.22C60.7067 112.82 60.78 112.4 60.78 111.96C60.78 111.667 60.74 111.413 60.66 111.2C60.5933 110.987 60.48 110.813 60.32 110.68C60.1733 110.533 59.9867 110.427 59.76 110.36C59.5467 110.28 59.3 110.24 59.02 110.24C58.74 110.24 58.4733 110.273 58.22 110.34C57.98 110.407 57.7467 110.507 57.52 110.64C57.3067 110.773 57.1067 110.953 56.92 111.18C56.8 111.353 56.72 111.493 56.68 111.6C56.6533 111.693 56.6467 111.793 56.66 111.9L56.54 112.04L56.4 111.94L54.84 110.74C55.1467 110.22 55.5133 109.787 55.94 109.44C56.38 109.093 56.86 108.827 57.38 108.64C57.9133 108.453 58.4667 108.36 59.04 108.36C59.76 108.36 60.4133 108.507 61 108.8C61.5867 109.093 62.0533 109.513 62.4 110.06C62.7467 110.593 62.92 111.227 62.92 111.96C62.92 112.48 62.84 112.973 62.68 113.44C62.5333 113.893 62.32 114.34 62.04 114.78C61.7733 115.207 61.44 115.647 61.04 116.1C60.64 116.553 60.1933 117.033 59.7 117.54C59.2067 118.033 58.6733 118.573 58.1 119.16H62.04C62.2667 119.16 62.4267 119.147 62.52 119.12C62.6133 119.093 62.7 119.04 62.78 118.96H62.96V119.16V121H55.14V119.32Z" fill="white"/>
<line x1="59.5" x2="59.5" y2="95" stroke="url(#paint1_linear_44_2)"/>
<path d="M14.7946 173.42C14.7037 172.504 14.3135 171.792 13.6241 171.284C12.9348 170.777 11.9991 170.523 10.8173 170.523C10.0143 170.523 9.33627 170.636 8.78324 170.864C8.23021 171.083 7.80596 171.39 7.51051 171.784C7.22263 172.178 7.07869 172.625 7.07869 173.125C7.06354 173.542 7.15066 173.905 7.34006 174.216C7.53703 174.527 7.80596 174.795 8.14687 175.023C8.48778 175.242 8.88172 175.436 9.32869 175.602C9.77566 175.761 10.2529 175.898 10.7605 176.011L12.8514 176.511C13.8666 176.739 14.7984 177.042 15.6469 177.42C16.4954 177.799 17.2302 178.265 17.8514 178.818C18.4726 179.371 18.9537 180.023 19.2946 180.773C19.6431 181.523 19.8211 182.383 19.8287 183.352C19.8211 184.777 19.4575 186.011 18.7378 187.057C18.0257 188.095 16.9954 188.902 15.6469 189.477C14.306 190.045 12.6885 190.33 10.7946 190.33C8.91581 190.33 7.27945 190.042 5.88551 189.466C4.49915 188.89 3.41581 188.038 2.63551 186.909C1.86278 185.773 1.45748 184.367 1.4196 182.693H6.18096C6.23399 183.473 6.45748 184.125 6.85142 184.648C7.25293 185.163 7.78703 185.553 8.45369 185.818C9.12793 186.076 9.8893 186.205 10.7378 186.205C11.5711 186.205 12.2946 186.083 12.9082 185.841C13.5294 185.598 14.0105 185.261 14.3514 184.83C14.6923 184.398 14.8628 183.902 14.8628 183.341C14.8628 182.818 14.7075 182.379 14.3969 182.023C14.0938 181.667 13.6469 181.364 13.056 181.114C12.4726 180.864 11.7567 180.636 10.9082 180.432L8.37415 179.795C6.41203 179.318 4.86278 178.572 3.72642 177.557C2.59006 176.542 2.02566 175.174 2.03324 173.455C2.02566 172.045 2.40066 170.814 3.15824 169.761C3.92339 168.708 4.97263 167.886 6.30596 167.295C7.6393 166.705 9.15445 166.409 10.8514 166.409C12.5787 166.409 14.0863 166.705 15.3741 167.295C16.6696 167.886 17.6772 168.708 18.3969 169.761C19.1166 170.814 19.4878 172.034 19.5105 173.42H14.7946ZM29.3338 190.341C27.5687 190.341 26.0421 189.966 24.7543 189.216C23.474 188.458 22.4853 187.405 21.7884 186.057C21.0914 184.701 20.7429 183.129 20.7429 181.341C20.7429 179.538 21.0914 177.962 21.7884 176.614C22.4853 175.258 23.474 174.205 24.7543 173.455C26.0421 172.697 27.5687 172.318 29.3338 172.318C31.099 172.318 32.6217 172.697 33.902 173.455C35.1899 174.205 36.1823 175.258 36.8793 176.614C37.5762 177.962 37.9247 179.538 37.9247 181.341C37.9247 183.129 37.5762 184.701 36.8793 186.057C36.1823 187.405 35.1899 188.458 33.902 189.216C32.6217 189.966 31.099 190.341 29.3338 190.341ZM29.3565 186.591C30.1596 186.591 30.83 186.364 31.3679 185.909C31.9058 185.447 32.3111 184.818 32.5838 184.023C32.8641 183.227 33.0043 182.322 33.0043 181.307C33.0043 180.292 32.8641 179.386 32.5838 178.591C32.3111 177.795 31.9058 177.167 31.3679 176.705C30.83 176.242 30.1596 176.011 29.3565 176.011C28.5459 176.011 27.8641 176.242 27.3111 176.705C26.7656 177.167 26.3527 177.795 26.0724 178.591C25.7997 179.386 25.6634 180.292 25.6634 181.307C25.6634 182.322 25.7997 183.227 26.0724 184.023C26.3527 184.818 26.7656 185.447 27.3111 185.909C27.8641 186.364 28.5459 186.591 29.3565 186.591ZM44.3134 166.727V190H39.4724V166.727H44.3134ZM57.7844 182.568V172.545H62.6253V190H57.9776V186.83H57.7957C57.4018 187.852 56.7465 188.674 55.8298 189.295C54.9207 189.917 53.8109 190.227 52.5003 190.227C51.3336 190.227 50.3071 189.962 49.4207 189.432C48.5344 188.902 47.8412 188.148 47.3412 187.17C46.8488 186.193 46.5988 185.023 46.5912 183.659V172.545H51.4321V182.795C51.4397 183.826 51.7162 184.64 52.2616 185.239C52.8071 185.837 53.5382 186.136 54.4548 186.136C55.0382 186.136 55.5836 186.004 56.0912 185.739C56.5988 185.466 57.0079 185.064 57.3185 184.534C57.6366 184.004 57.792 183.348 57.7844 182.568ZM74.1815 172.545V176.182H63.6702V172.545H74.1815ZM66.0565 168.364H70.8974V184.636C70.8974 185.083 70.9656 185.432 71.102 185.682C71.2383 185.924 71.4277 186.095 71.6702 186.193C71.9202 186.292 72.208 186.341 72.5338 186.341C72.7611 186.341 72.9883 186.322 73.2156 186.284C73.4429 186.239 73.6171 186.205 73.7383 186.182L74.4997 189.784C74.2573 189.86 73.9164 189.947 73.477 190.045C73.0376 190.152 72.5035 190.216 71.8747 190.239C70.708 190.284 69.6853 190.129 68.8065 189.773C67.9353 189.417 67.2573 188.864 66.7724 188.114C66.2876 187.364 66.049 186.417 66.0565 185.273V168.364ZM75.7349 190V172.545H80.5759V190H75.7349ZM78.1668 170.295C77.4471 170.295 76.8296 170.057 76.3145 169.58C75.8069 169.095 75.5531 168.515 75.5531 167.841C75.5531 167.174 75.8069 166.602 76.3145 166.125C76.8296 165.64 77.4471 165.398 78.1668 165.398C78.8865 165.398 79.5001 165.64 80.0077 166.125C80.5228 166.602 80.7804 167.174 80.7804 167.841C80.7804 168.515 80.5228 169.095 80.0077 169.58C79.5001 170.057 78.8865 170.295 78.1668 170.295ZM90.7401 190.341C88.9749 190.341 87.4484 189.966 86.1605 189.216C84.8802 188.458 83.8916 187.405 83.1946 186.057C82.4976 184.701 82.1491 183.129 82.1491 181.341C82.1491 179.538 82.4976 177.962 83.1946 176.614C83.8916 175.258 84.8802 174.205 86.1605 173.455C87.4484 172.697 88.9749 172.318 90.7401 172.318C92.5052 172.318 94.0279 172.697 95.3082 173.455C96.5961 174.205 97.5885 175.258 98.2855 176.614C98.9825 177.962 99.331 179.538 99.331 181.341C99.331 183.129 98.9825 184.701 98.2855 186.057C97.5885 187.405 96.5961 188.458 95.3082 189.216C94.0279 189.966 92.5052 190.341 90.7401 190.341ZM90.7628 186.591C91.5658 186.591 92.2363 186.364 92.7741 185.909C93.312 185.447 93.7173 184.818 93.9901 184.023C94.2704 183.227 94.4105 182.322 94.4105 181.307C94.4105 180.292 94.2704 179.386 93.9901 178.591C93.7173 177.795 93.312 177.167 92.7741 176.705C92.2363 176.242 91.5658 176.011 90.7628 176.011C89.9522 176.011 89.2704 176.242 88.7173 176.705C88.1719 177.167 87.759 177.795 87.4787 178.591C87.206 179.386 87.0696 180.292 87.0696 181.307C87.0696 182.322 87.206 183.227 87.4787 184.023C87.759 184.818 88.1719 185.447 88.7173 185.909C89.2704 186.364 89.9522 186.591 90.7628 186.591ZM105.72 179.909V190H100.879V172.545H105.492V175.625H105.697C106.083 174.61 106.731 173.807 107.64 173.216C108.549 172.617 109.651 172.318 110.947 172.318C112.159 172.318 113.216 172.583 114.117 173.114C115.019 173.644 115.72 174.402 116.22 175.386C116.72 176.364 116.97 177.53 116.97 178.886V190H112.129V179.75C112.136 178.682 111.864 177.848 111.311 177.25C110.757 176.644 109.996 176.341 109.026 176.341C108.375 176.341 107.799 176.481 107.299 176.761C106.807 177.042 106.42 177.451 106.14 177.989C105.867 178.519 105.727 179.159 105.72 179.909Z" fill="url(#paint2_linear_44_2)"/>
<defs>
<linearGradient id="paint0_linear_44_2" x1="38.0476" y1="115" x2="79" y2="115" gradientUnits="userSpaceOnUse">
<stop offset="0.0104167" stop-color="#007CF0"/>
<stop offset="0.260417" stop-color="#007CF0"/>
<stop offset="0.484375" stop-color="#007CF0"/>
<stop offset="0.911458" stop-color="#00DFD8"/>
</linearGradient>
<linearGradient id="paint1_linear_44_2" x1="59.0001" y1="95" x2="59" y2="0" gradientUnits="userSpaceOnUse">
<stop offset="0.203125" stop-color="#007CF0"/>
<stop offset="0.46875" stop-color="#00DFD8"/>
<stop offset="0.979167" stop-color="#00DFD8" stop-opacity="0"/>
</linearGradient>
<linearGradient id="paint2_linear_44_2" x1="-7.60126e-07" y1="179" x2="116.05" y2="179" gradientUnits="userSpaceOnUse">
<stop offset="0.0520833" stop-color="#007CF0"/>
<stop offset="1" stop-color="#00DFD8"/>
</linearGradient>
</defs>
</svg>
