<svg width="80" height="23" viewBox="0 0 80 23" fill="none" xmlns="http://www.w3.org/2000/svg">
<path d="M9.38965 22C8.42285 22 7.51465 21.8193 6.66504 21.458C5.81543 21.0869 5.06836 20.584 4.42383 19.9492C3.78906 19.3047 3.28613 18.5576 2.91504 17.708C2.55371 16.8584 2.37305 15.9502 2.37305 14.9834V10.3252H0.424805V6.34082H2.37305V0.0712891H6.35742V6.34082H12.4219V10.3252H6.35742V14.9834C6.35742 15.4033 6.43555 15.7988 6.5918 16.1699C6.74805 16.5312 6.96289 16.8486 7.23633 17.1221C7.50977 17.3955 7.83203 17.6152 8.20312 17.7812C8.57422 17.9375 8.96973 18.0156 9.38965 18.0156H12.4219V22H9.38965ZM18.6768 22H14.6777V0.0712891H18.6768V7C19.1553 6.63867 19.6484 6.38477 20.1562 6.23828C20.6641 6.08203 21.1816 6.00391 21.709 6.00391C22.6758 6.00391 23.584 6.18945 24.4336 6.56055C25.2832 6.92188 26.0205 7.4248 26.6455 8.06934C27.2803 8.7041 27.7783 9.45117 28.1396 10.3105C28.5107 11.1602 28.6963 12.0684 28.6963 13.0352V22H24.668V13.0352H24.6973C24.6973 12.625 24.6191 12.2393 24.4629 11.8779C24.3066 11.5068 24.0918 11.1846 23.8184 10.9111C23.5449 10.6377 23.2275 10.4229 22.8662 10.2666C22.5049 10.1104 22.1191 10.0322 21.709 10.0322C21.2891 10.0322 20.8936 10.1104 20.5225 10.2666C20.1514 10.4229 19.8291 10.6377 19.5557 10.9111C19.2822 11.1846 19.0674 11.5068 18.9111 11.8779C18.7549 12.2393 18.6768 12.625 18.6768 13.0352V22ZM46.7139 22H45.7471L44.1943 19.8467C43.8135 20.1885 43.4082 20.5107 42.9785 20.8135C42.5586 21.1064 42.1143 21.3652 41.6455 21.5898C41.1768 21.8047 40.6934 21.9756 40.1953 22.1025C39.707 22.2295 39.209 22.293 38.7012 22.293C37.5977 22.293 36.5576 22.0879 35.5811 21.6777C34.6143 21.2578 33.7646 20.6816 33.0322 19.9492C32.3096 19.207 31.7383 18.333 31.3184 17.3271C30.8984 16.3115 30.6885 15.208 30.6885 14.0166C30.6885 12.835 30.8984 11.7363 31.3184 10.7207C31.7383 9.70508 32.3096 8.82617 33.0322 8.08398C33.7646 7.3418 34.6143 6.76074 35.5811 6.34082C36.5576 5.9209 37.5977 5.71094 38.7012 5.71094C39.0527 5.71094 39.4141 5.74023 39.7852 5.79883C40.166 5.85742 40.5322 5.95508 40.8838 6.0918C41.2451 6.21875 41.582 6.38965 41.8945 6.60449C42.207 6.81934 42.4707 7.08301 42.6855 7.39551V0.0712891H46.7139V22ZM42.6855 14.0166C42.6855 13.4697 42.5781 12.9424 42.3633 12.4346C42.1582 11.917 41.875 11.4629 41.5137 11.0723C41.1523 10.6719 40.7275 10.3545 40.2393 10.1201C39.7607 9.87598 39.248 9.75391 38.7012 9.75391C38.1543 9.75391 37.6367 9.85156 37.1484 10.0469C36.6699 10.2422 36.25 10.5254 35.8887 10.8965C35.5371 11.2578 35.2588 11.7021 35.0537 12.2295C34.8486 12.7568 34.7461 13.3525 34.7461 14.0166C34.7461 14.5928 34.8486 15.1396 35.0537 15.6572C35.2588 16.1748 35.5371 16.6289 35.8887 17.0195C36.25 17.4102 36.6699 17.7178 37.1484 17.9424C37.6367 18.167 38.1543 18.2793 38.7012 18.2793C39.248 18.2793 39.7607 18.1621 40.2393 17.9277C40.7275 17.6836 41.1523 17.3662 41.5137 16.9756C41.875 16.5752 42.1582 16.1211 42.3633 15.6133C42.5781 15.0957 42.6855 14.5635 42.6855 14.0166ZM54.2285 22L48.252 6.31152H52.8076L56.2354 16.0967L59.6484 6.31152H64.2188L58.2422 22H54.2285ZM77.0947 20.1689C76.7725 20.4619 76.4258 20.7402 76.0547 21.0039C75.6934 21.2578 75.3125 21.4824 74.9121 21.6777C74.5117 21.8633 74.0967 22.0098 73.667 22.1172C73.2471 22.2344 72.8174 22.293 72.3779 22.293C71.4111 22.293 70.5029 22.1221 69.6533 21.7803C68.8037 21.4385 68.0566 20.9551 67.4121 20.3301C66.7773 19.6953 66.2744 18.9287 65.9033 18.0303C65.542 17.1221 65.3613 16.1064 65.3613 14.9834V6.31152H69.3457V14.9834C69.3457 15.5107 69.4238 15.9844 69.5801 16.4043C69.7461 16.8145 69.9658 17.1611 70.2393 17.4443C70.5127 17.7275 70.8301 17.9424 71.1914 18.0889C71.5625 18.2354 71.958 18.3086 72.3779 18.3086C72.7881 18.3086 73.1738 18.2158 73.5352 18.0303C73.9062 17.835 74.2285 17.5811 74.502 17.2686C74.7754 16.9561 74.9902 16.6045 75.1465 16.2139C75.3027 15.8135 75.3809 15.4033 75.3809 14.9834V6.31152H79.3799V22H78.4131L77.0947 20.1689Z" fill="black"/>
</svg>
